<svg xmlns="http://www.w3.org/2000/svg">
<defs>
<font id="SVN-HelveticaNeue" horiz-adv-x="1139" >
  <font-face 
    font-family="SVN-Helvetica Neue"
    font-weight="400"
    font-stretch="normal"
    units-per-em="2048"
    panose-1="2 4 6 3 5 5 6 2 2 4"
    ascent="1638"
    descent="-410"
    x-height="1071"
    cap-height="1470"
    bbox="-117 -461 4553 2338"
    underline-thickness="109"
    underline-position="-251"
    unicode-range="U+0020-2122"
  />
<missing-glyph horiz-adv-x="4653" 
d="M788 1681v510h343v-61h-274v-157h236v-61h-236v-231h-69zM1253 1865q0 -72 30 -106.5t76 -34.5t77 34.5t31 106.5q0 69 -31 104.5t-77 35.5t-76 -35.5t-30 -104.5zM1189 1865q0 104 56 151q45 42 114 42q37 0 68.5 -13t54.5 -37t36 -59t13 -79q0 -52 -12.5 -89t-35.5 -61
t-54.5 -35t-69.5 -11q-78 0 -124 48.5t-46 142.5zM1608 1681v369h58v-53q41 61 115 61q56 0 85 -27t37 -63q2 -10 3.5 -24.5t1.5 -36.5v-226h-64v223q0 54 -19.5 77.5t-57.5 23.5q-20 0 -37.5 -6t-30 -20t-20 -37.5t-7.5 -58.5v-202h-64zM2149 1679q-14 -2 -25.5 -3.5
t-21.5 -1.5q-27 5 -44 8t-27 13t-13.5 31t-3.5 62v214h-45v48h45v90l64 38v-128h63v-48h-63v-217q0 -18 1.5 -28t5.5 -15t10.5 -6t16.5 -1h29zM2444 1851q4 -56 40 -86t106 -30q62 0 94.5 23t32.5 61q0 24 -12 41t-44 31q-10 4 -33 10t-57 14t-59 16t-39 16q-40 18 -57 45.5
t-17 65.5q0 29 12.5 54.5t36 45t56.5 30.5t75 11q45 0 80.5 -11.5t60.5 -31.5t39 -47.5t16 -60.5l-69 -3q-11 93 -124 93q-62 0 -88 -22.5t-26 -54.5q0 -27 18 -45q11 -11 35 -19t66 -18q82 -16 112 -32q46 -18 66.5 -50t20.5 -72q0 -34 -14 -61.5t-39 -47.5t-60 -31
t-78 -11q-100 0 -157.5 45t-57.5 130zM3022 1681l-193 510h74l130 -372q8 -22 14 -42l12 -40q6 22 14 42l16 40l140 372h69l-202 -510h-74zM3356 1681v510h72l257 -398v398h69v-510h-74l-255 396v-396h-69zM128 1098q0 -70 29 -104t71 -34t71.5 33t29.5 99q0 78 -30.5 113.5
t-72.5 35.5t-70 -34.5t-28 -108.5zM327 917v45q-37 -53 -104 -53q-35 0 -64 14t-50 39t-33 60t-12 78q0 42 10.5 77.5t30.5 61.5t48.5 40.5t64.5 14.5q34 0 59.5 -14.5t43.5 -38.5v186h64v-510h-58zM725 917v53q-23 -29 -52 -45t-65 -16q-56 0 -85 25.5t-37 65.5

<glyph glyph-name=".notdef" horiz-adv-x="4653" 
d="M788 1681v510h343v-61h-274v-157h236v-61h-236v-231h-69zM1253 1865q0 -72 30 -106.5t76 -34.5t77 34.5t31 106.5q0 69 -31 104.5t-77 35.5t-76 -35.5t-30 -104.5zM1189 1865q0 104 56 151q45 42 114 42q37 0 68.5 -13t54.5 -37t36 -59t13 -79q0 -52 -12.5 -89t-35.5 -61
t-54.5 -35t-69.5 -11q-78 0 -124 48.5t-46 142.5zM1608 1681v369h58v-53q41 61 115 61q56 0 85 -27t37 -63q2 -10 3.5 -24.5t1.5 -36.5v-226h-64v223q0 54 -19.5 77.5t-57.5 23.5q-20 0 -37.5 -6t-30 -20t-20 -37.5t-7.5 -58.5v-202h-64zM2149 1679q-14 -2 -25.5 -3.5
t-21.5 -1.5q-27 5 -44 8t-27 13t-13.5 31t-3.5 62v214h-45v48h45v90l64 38v-128h63v-48h-63v-217q0 -18 1.5 -28t5.5 -15t10.5 -6t16.5 -1h29zM2444 1851q4 -56 40 -86t106 -30q62 0 94.5 23t32.5 61q0 24 -12 41t-44 31q-10 4 -33 10t-57 14t-59 16t-39 16q-40 18 -57 45.5
t-17 65.5q0 29 12.5 54.5t36 45t56.5 30.5t75 11q45 0 80.5 -11.5t60.5 -31.5t39 -47.5t16 -60.5l-69 -3q-11 93 -124 93q-62 0 -88 -22.5t-26 -54.5q0 -27 18 -45q11 -11 35 -19t66 -18q82 -16 112 -32q46 -18 66.5 -50t20.5 -72q0 -34 -14 -61.5t-39 -47.5t-60 -31
t-78 -11q-100 0 -157.5 45t-57.5 130zM3022 1681l-193 510h74l130 -372q8 -22 14 -42l12 -40q6 22 14 42l16 40l140 372h69l-202 -510h-74zM3356 1681v510h72l257 -398v398h69v-510h-74l-255 396v-396h-69zM128 1098q0 -70 29 -104t71 -34t71.5 33t29.5 99q0 78 -30.5 113.5
t-72.5 35.5t-70 -34.5t-28 -108.5zM327 917v45q-37 -53 -104 -53q-35 0 -64 14t-50 39t-33 60t-12 78q0 42 10.5 77.5t30.5 61.5t48.5 40.5t64.5 14.5q34 0 59.5 -14.5t43.5 -38.5v186h64v-510h-58zM725 917v53q-23 -29 -52 -45t-65 -16q-56 0 -85 25.5t-37 65.5
q-2 8 -2.5 21.5t-0.5 33.5v231h64v-207q0 -24 0.5 -40t2.5 -26q5 -24 23 -37.5t48 -13.5q46 0 72 28.5t26 96.5v199h64v-369h-58zM669 1360h-48l-79 99h82zM878 917v369h59v-53q40 61 114 61q56 0 85 -27t37 -63q2 -10 3.5 -24.5t1.5 -36.5v-226h-63v223q0 54 -19.5 77.5
t-57.5 23.5q-20 0 -37.5 -6t-30.5 -20t-20.5 -37.5t-7.5 -58.5v-202h-64zM1311 1106q0 -72 28 -104t70 -32t71.5 32t29.5 104q0 66 -29.5 100.5t-71.5 34.5t-70 -34.5t-28 -100.5zM1324 883q2 -16 6.5 -27.5t14.5 -17.5q20 -16 61 -16q42 0 65 15.5t31 45.5q5 22 5 79
q-22 -22 -46.5 -33.5t-54.5 -11.5q-39 0 -68.5 14.5t-49.5 40t-30.5 59t-10.5 72.5q0 40 11 74.5t31 60.5t49.5 41t67.5 15q62 0 107 -53v45h58v-318q1 -63 -9 -100t-31 -57.5t-52.5 -28.5t-74.5 -13q-64 0 -104.5 29t-38.5 93zM1921 1103q0 -69 16 -95q28 -48 80 -48
q21 0 39.5 8.5t32.5 26t22.5 43.5t8.5 62q0 72 -29 108t-69 36q-42 0 -71.5 -35.5t-29.5 -105.5zM1924 917h-61v510h63v-183q18 26 43.5 38t57.5 12q34 0 62.5 -14t49.5 -39t33 -59.5t12 -75.5q0 -48 -13 -85t-34.5 -61.5t-50.5 -37.5t-61 -13q-34 0 -58.5 13.5t-42.5 39.5
v-45zM2500 1103q-18 -8 -44 -13.5t-60 -10.5q-27 -5 -44 -10t-27 -12.5t-13.5 -17t-3.5 -23.5q0 -26 18.5 -42.5t56.5 -16.5q34 0 63 14.5t43 44.5q8 21 8 63zM2502 962q-34 -29 -65.5 -41t-69.5 -12q-62 0 -93.5 29t-31.5 75q0 44 26 69t62 37q10 2 24 4t31 4q76 12 112 24
q2 6 2.5 10t0.5 6q0 37 -19 53q-26 21 -72 21t-66.5 -15.5t-28.5 -53.5l-64 8q12 56 50.5 85t114.5 29q37 0 62 -6.5t41 -17.5t24.5 -26t12.5 -32q2 -10 4 -24t2 -34v-85q0 -43 0.5 -68.5t2 -41t5 -24.5t10.5 -18h-64q-6 11 -8.5 21t-4.5 24zM2407 1406q21 0 24 2
q17 4 21 13q0 10 -11 14q-16 8 -48 8q-6 0 -13.5 -0.5t-17.5 -2.5l-3 35q6 2 18 2h30q22 -2 39.5 -6t31.5 -10q27 -11 32 -37q0 -36 -64 -40v-18h-39v40zM2656 917v369h58v-53q41 61 115 61q56 0 85 -27t37 -63q2 -10 3.5 -24.5t1.5 -36.5v-226h-64v223q0 54 -19.5 77.5
t-57.5 23.5q-20 0 -37.5 -6t-30 -20t-20 -37.5t-7.5 -58.5v-202h-64zM3089 1106q0 -72 28 -104t70 -32t71 32t29 104q0 66 -29 100.5t-71 34.5t-70 -34.5t-28 -100.5zM3102 883q3 -34 21 -45q19 -16 61 -16t65 15.5t31 45.5q2 10 3.5 30t1.5 49q-22 -22 -46.5 -33.5
t-54.5 -11.5q-39 0 -68.5 14.5t-49.5 40t-30.5 59t-10.5 72.5q0 40 10.5 74.5t31 60.5t50 41t67.5 15q62 0 106 -53v45h59v-318q1 -63 -9.5 -100t-31.5 -57.5t-52.5 -28.5t-74.5 -13q-64 0 -104.5 29t-38.5 93zM3640 917v369h59v-53q18 26 45.5 43.5t65.5 17.5
q42 0 67.5 -17t36.5 -47q43 64 116 64q114 0 114 -125v-252h-63v231q0 51 -15.5 72t-51.5 21q-38 0 -64 -26.5t-26 -84.5v-213h-63v239q0 42 -15 63.5t-49 21.5q-44 0 -68.5 -30.5t-24.5 -102.5v-191h-64zM4473 1103q-17 -8 -43 -13.5t-60 -10.5q-27 -5 -44 -10t-27 -12.5
t-13.5 -17t-3.5 -23.5q0 -26 18.5 -42.5t56.5 -16.5q34 0 63 14.5t43 44.5q8 21 8 63zM4476 962q-34 -29 -65.5 -41t-69.5 -12q-62 0 -93.5 29t-31.5 75q0 44 26 69t62 37q10 2 23.5 4t31.5 4q76 12 112 24q2 6 2 10v6q0 38 -18 53q-26 21 -72 21t-66.5 -15.5t-28.5 -53.5
l-64 8q12 56 50.5 85t114.5 29q37 0 62 -6.5t41 -17.5t24.5 -26t12.5 -32q2 -10 3.5 -24t1.5 -34v-85q0 -43 0.5 -68.5t2 -41t5.5 -24.5t11 -18h-64q-6 11 -8.5 21t-4.5 24zM4288 1350q-2 32 17.5 53t51.5 21q10 0 25 -5.5t33 -15.5q21 -8 32 -8q10 0 17 7.5t9 21.5h46
q-4 -74 -69 -74q-11 0 -26 4t-33 12q-12 6 -20 9.5t-14 3.5q-29 0 -24 -29h-45zM1364 535h69v-294q0 -54 -10 -95.5t-33.5 -70t-61.5 -43t-94 -14.5q-55 0 -93 12.5t-61.5 39.5t-34 69t-10.5 102v294h69v-291q0 -47 6.5 -78t21.5 -50t39 -26.5t58 -7.5q36 0 61.5 7.5
t42 25.5t24 49.5t7.5 79.5v291zM1539 26v369h58v-53q20 29 48.5 45t66.5 16q55 0 84.5 -27.5t37.5 -63.5q2 -10 3.5 -24t1.5 -37v-225h-64v223q0 54 -19.5 77.5t-57.5 23.5q-20 0 -37.5 -6t-30 -20.5t-20 -38t-7.5 -57.5v-202h-64zM1934 26v369h64v-369h-64zM1934 464v71h64
v-71h-64zM2396 153q-10 -64 -53 -99.5t-101 -35.5q-78 0 -122.5 49t-44.5 139q0 94 44.5 145.5t120.5 51.5q62 0 98 -30.5t50 -86.5l-64 -8q-10 34 -31 54t-51 20q-48 0 -75.5 -34.5t-27.5 -108.5t27 -107.5t74 -33.5q77 0 92 93zM2489 209q0 -72 30 -106.5t76 -34.5
t77.5 34.5t31.5 106.5q0 70 -31.5 105.5t-77.5 35.5t-76 -35.5t-30 -105.5zM2425 209q0 103 56 151q47 43 114 43q37 0 68.5 -13t54.5 -37.5t36 -59.5t13 -79q0 -52 -12.5 -89t-35.5 -61t-54.5 -35t-69.5 -11q-78 0 -124 48.5t-46 142.5zM2884 206q0 -69 29.5 -103.5
t71.5 -34.5t71.5 33.5t29.5 99.5q0 78 -31 113.5t-73 35.5q-41 0 -69.5 -35t-28.5 -109zM3083 26v45q-37 -53 -103 -53q-35 0 -64 14t-50 39t-33 60t-12 78q0 42 10.5 77.5t30.5 61.5t48 40.5t64 14.5q35 0 60.5 -15t43.5 -38v185h64v-509h-59zM3497 244q-2 23 -9 41t-17 30
q-34 37 -80 37t-76.5 -30t-32.5 -78h215zM3558 137q-16 -58 -58 -88.5t-106 -30.5q-82 0 -130 49t-48 139q0 94 47 145.5t125 51.5q39 0 71 -13.5t54.5 -39t35 -61t12.5 -80.5q0 -2 -0.5 -6t-2.5 -10h-278q2 -62 34 -93.5t80 -31.5q38 0 62 17.5t38 59.5z" />
    <glyph glyph-name="nonmarkingreturn" horiz-adv-x="571" 
 />
    <glyph glyph-name="dieresis.001" horiz-adv-x="1024" 
 />
    <glyph glyph-name="ugrave" horiz-adv-x="582" 
 />
    <glyph glyph-name="uacute" horiz-adv-x="580" 
 />
    <glyph glyph-name="yacute" horiz-adv-x="629" 
 />
    <glyph glyph-name="Ccaron" unicode="&#x10c;" horiz-adv-x="1274" 
 />
    <glyph glyph-name="ccaron" unicode="&#x10d;" horiz-adv-x="922" 
 />
    <glyph glyph-name="space" unicode=" " horiz-adv-x="569" 
 />
    <glyph glyph-name="exclam" unicode="!" horiz-adv-x="569" 
d="M383 0h-199v209h199v-209zM233 350l-49 635v485h199v-485l-49 -635h-101z" />
    <glyph glyph-name="quotedbl" unicode="&#x22;" horiz-adv-x="727" 
d="M143 1470h150v-522h-150v522zM434 1470h150v-522h-150v522z" />
    <glyph glyph-name="numbersign" unicode="#" 
d="M735 0h-135l59 430h-256l-59 -430h-135l59 430h-211l19 129h211l39 291h-211l18 129h211l59 430h138l-60 -430h254l60 430h137l-60 -430h211l-18 -129h-211l-41 -291h211l-18 -129h-211zM463 850l-41 -291h256l39 291h-254z" />
    <glyph glyph-name="dollar" unicode="$" 
d="M518 1307q-59 0 -104.5 -19.5t-76.5 -52.5t-47 -76t-16 -90q0 -54 21 -94.5t55 -68t78 -44.5t90 -24v469zM614 111q69 0 119.5 21.5t84.5 57.5t50.5 82.5t16.5 96.5q0 43 -13 80t-35 66t-51 50t-61 31l-111 35v-520zM856 1067q-5 42 -17 79.5t-38.5 69t-71 55
t-115.5 36.5v-490q105 -31 189 -59.5t142 -72t89 -110.5t31 -174q0 -87 -21.5 -153.5t-58 -115.5t-83 -81.5t-97 -52.5t-100 -28.5t-91.5 -8.5v-197h-96v197q-95 5 -177.5 30t-143.5 80t-96 143.5t-35 221.5h180q4 -82 18.5 -138.5t45 -94t81 -59t127.5 -33.5v542
q-78 18 -154 44t-136 70.5t-97 114t-37 175.5q0 83 32 155.5t88.5 126.5t134 85.5t169.5 31.5v131h96v-131q32 -3 74.5 -9.5t88 -22.5t89.5 -42.5t79.5 -69t58.5 -103t26 -142.5h-174z" />
    <glyph glyph-name="percent" unicode="%" horiz-adv-x="1821" 
d="M80 1077q0 73 27.5 136.5t75.5 110t111.5 73t135.5 26.5t135 -27t110.5 -73.5t75 -110t27.5 -135.5t-27 -135.5t-74.5 -111.5t-111 -75.5t-135.5 -27.5t-135.5 27t-111.5 74.5t-75.5 111t-27.5 137.5zM223 1077q0 -48 16.5 -86t45 -65t65.5 -41.5t78 -14.5
q45 0 82.5 16.5t65.5 45t43.5 66t15.5 79.5q0 43 -16 80t-44 64.5t-65.5 43t-79.5 15.5q-44 0 -82 -16t-65.5 -44t-43.5 -64.5t-16 -78.5zM1042 336q0 73 27.5 136t75.5 109.5t112 73.5t136 27q71 0 134.5 -27t111 -74t75 -110t27.5 -135t-27.5 -136t-74.5 -111.5
t-110.5 -75t-135.5 -27.5t-136 27t-112 74t-75.5 111t-27.5 138zM1186 336q0 -48 16.5 -86t45 -65t65.5 -41.5t78 -14.5q44 0 82 16.5t65.5 44.5t43 66t15.5 80q0 43 -16 80t-44 64.5t-65 43t-79 15.5q-44 0 -82 -16.5t-65.5 -44t-43.5 -64.5t-16 -78zM559 -39h-110
l808 1479h113z" />
    <glyph glyph-name="ampersand" unicode="&#x26;" horiz-adv-x="1366" 
d="M522 694q-59 -38 -105.5 -71t-79 -70t-50 -81t-17.5 -103q0 -69 30 -116t72 -75.5t87 -40.5t76 -12q99 0 179.5 41.5t139.5 122.5zM586 899q29 20 61.5 44.5t59.5 55.5t45 69t18 85q0 49 -16.5 80.5t-40.5 49.5t-51.5 25t-49.5 7q-57 0 -91 -18t-52 -43.5t-23.5 -53
t-5.5 -45.5q0 -36 15 -73t37 -70.5t47.5 -62.5t46.5 -50zM1321 0h-234l-137 168q-38 -43 -79 -79.5t-92 -63t-113.5 -41.5t-143.5 -15q-91 0 -159 20.5t-116 54t-78.5 76t-48 85t-24 82t-6.5 67.5q0 75 13.5 135.5t50.5 114t101.5 105t166.5 108.5q-40 49 -69.5 88.5
t-48.5 76t-28.5 75t-9.5 86.5q0 64 22.5 123t67 104.5t109.5 72.5t149 27q87 0 149.5 -26.5t102.5 -69.5t59 -97.5t19 -109.5q0 -77 -26 -136.5t-65.5 -105.5t-86 -80.5t-86.5 -62.5l268 -319q12 34 20.5 58.5t15 49t12 52.5t12.5 69h170q-7 -75 -34.5 -172t-84.5 -203z" />
    <glyph glyph-name="quotesingle" unicode="'" horiz-adv-x="391" 
d="M121 1470h149v-522h-149v522z" />
    <glyph glyph-name="parenleft" unicode="(" horiz-adv-x="682" 
d="M610 1501q-43 -82 -81 -155t-68.5 -144.5t-54.5 -146.5t-40.5 -160.5t-25 -186t-8.5 -223.5q0 -127 21 -239.5t58 -221t88.5 -218t112.5 -230.5h-120q-80 120 -145 231t-111.5 225t-71.5 236.5t-25 266.5q0 135 23 258.5t67 241.5t108.5 233t147.5 233h125z" />
    <glyph glyph-name="parenright" unicode=")" horiz-adv-x="682" 
d="M72 -424q43 82 81 155t68.5 145t54.5 146.5t40.5 160t25 186t8.5 223.5q0 127 -21 239.5t-58 221.5t-88.5 218.5t-112.5 229.5h120q80 -120 145 -230.5t111.5 -224.5t71.5 -236.5t25 -266.5q0 -135 -23 -259t-67 -242t-108.5 -233t-147.5 -233h-125z" />
    <glyph glyph-name="asterisk" unicode="*" horiz-adv-x="797" 
d="M121 1323l215 -78v225h123v-225l215 78l41 -113l-221 -69l137 -189l-101 -69l-133 192l-133 -192l-100 69l137 189l-221 69z" />
    <glyph glyph-name="plus" unicode="+" horiz-adv-x="1196" 
d="M524 1034h150v-442h442v-150h-442v-442h-150v442h-444v150h444v442z" />
    <glyph glyph-name="comma" unicode="," horiz-adv-x="569" 
d="M178 217h213v-201q0 -69 -13 -119.5t-33 -85t-45 -56t-48.5 -33.5t-43.5 -17t-30 -6v94q32 3 53 22t33.5 48.5t17.5 65t5 71.5h-109v217z" />
    <glyph glyph-name="hyphen" unicode="-" horiz-adv-x="682" 
d="M592 475h-502v184h502v-184z" />
    <glyph glyph-name="period" unicode="." horiz-adv-x="569" 
d="M391 0h-213v217h213v-217z" />
    <glyph glyph-name="slash" unicode="/" horiz-adv-x="569" 
d="M102 -39h-137l504 1548h135z" />
    <glyph glyph-name="zero" unicode="0" 
d="M870 700q0 135 -18 242.5t-55 182t-93.5 114t-134.5 39.5t-134.5 -39.5t-93.5 -114t-55 -182t-18 -242.5t18 -242t55 -181.5t93.5 -114t134.5 -39.5t134.5 39.5t93.5 114t55 181.5t18 242zM1063 700q0 -75 -8 -158.5t-28 -166t-55.5 -157.5t-90.5 -132t-132 -91t-180 -34
t-180 34t-131.5 91t-90 132t-55.5 157.5t-28 166t-8 158.5t8 159t28 166t55.5 157t90 132.5t131.5 91.5t180 34t180 -34t132 -91.5t90.5 -132.5t55.5 -157t28 -166t8 -159z" />
    <glyph glyph-name="one" unicode="1" 
d="M735 0h-192v1022h-336v143q87 6 150.5 17t109 38.5t76 79t51.5 140.5h141v-1440z" />
    <glyph glyph-name="two" unicode="2" 
d="M90 924q0 117 26 201t68.5 141.5t96 91.5t109 52.5t107.5 24t91 5.5q94 0 176 -29.5t143 -85t96 -135.5t35 -180q0 -97 -30 -168t-82 -126.5t-122 -100t-151 -87.5l-149 -82q-74 -41 -121 -81t-74 -76.5t-38.5 -67t-14.5 -51.5h782v-170h-985q4 112 30 199.5t70.5 156
t105 121t132.5 94.5l191 111q57 33 105.5 63t84 67t55 86t19.5 120q0 43 -15 89t-48.5 84t-88 62.5t-133.5 24.5q-68 0 -115.5 -19.5t-79.5 -50.5t-50.5 -69.5t-28 -78t-13 -75.5t-4.5 -61h-180z" />
    <glyph glyph-name="three" unicode="3" 
d="M459 819q23 -2 47 -3t47 -1q52 0 101.5 11.5t87.5 38.5t61.5 72.5t23.5 113.5q0 32 -11.5 71.5t-41 74t-81 58t-132.5 23.5q-64 0 -109 -16t-75.5 -42t-48.5 -59t-28 -67.5t-13.5 -67t-5.5 -57.5h-177q0 53 8 108.5t28 107.5t54 98.5t86 81.5t123 55t166 20
q105 0 187.5 -28.5t139.5 -79t87.5 -120t30.5 -151.5q0 -69 -18 -120.5t-45.5 -88t-60 -58t-61.5 -30.5v-4q52 -17 96.5 -44.5t76 -68.5t49.5 -96t18 -127q0 -89 -29.5 -172t-92 -148t-160.5 -104t-236 -39q-81 0 -147.5 18t-118.5 46q-60 31 -99.5 76.5t-63.5 100
t-36 115.5t-16 123h186q2 -34 6.5 -70.5t16 -71.5t32.5 -67t54.5 -56t82 -38t115.5 -14q69 0 127 20t99.5 57t64.5 88t23 113q0 60 -16.5 103.5t-43.5 73t-62 47t-72.5 26.5t-74 12t-67.5 3q-20 0 -41 -1t-41 -1v155z" />
    <glyph glyph-name="four" unicode="4" 
d="M860 350v-350h-180v350h-629v176l660 914h149v-934h211v-156h-211zM217 506h463v653h-4z" />
    <glyph glyph-name="five" unicode="5" 
d="M301 838q23 18 51 34t62.5 28.5t76 20t89.5 7.5q87 0 172 -30.5t152 -89t108 -144.5t41 -197q0 -40 -7.5 -93t-28 -109.5t-57 -110.5t-94.5 -97t-140.5 -69.5t-195.5 -26.5q-47 0 -97.5 7t-99 24.5t-93 46.5t-80.5 73.5t-61 105t-33 140.5h186q7 -63 32.5 -108.5t66 -75
t93 -43.5t113.5 -14q70 0 126 26t95.5 71t60.5 104.5t21 127.5q0 78 -25 137.5t-68 100t-101 61.5t-125 21q-79 0 -147.5 -35.5t-119.5 -101.5l-155 8l108 772h746v-176h-611z" />
    <glyph glyph-name="six" unicode="6" 
d="M854 1057q-9 48 -26.5 88.5t-47.5 70t-73 46t-101 16.5q-71 0 -123.5 -29t-90.5 -75.5t-62.5 -105t-39.5 -117.5t-20.5 -113.5t-5.5 -92.5l4 -4q17 29 45 60.5t69.5 57.5t97.5 42.5t130 16.5q44 0 94.5 -10t100.5 -32t96.5 -57.5t82 -86t56.5 -118t21 -153.5
q0 -56 -7.5 -104t-24 -92t-42.5 -84.5t-63 -80.5q-29 -32 -61 -57.5t-74 -43.5t-98 -28t-132 -10q-41 0 -90 10t-98.5 34.5t-96.5 64.5t-86 100q-32 51 -53.5 108.5t-34 121t-17.5 131.5t-5 139q0 79 9.5 166.5t33 173t62.5 163.5t98 137.5t140 94.5t189 35q62 0 133 -18.5
t132.5 -63t104.5 -118t50 -183.5h-176zM289 442q0 -57 17.5 -114t54.5 -102.5t94.5 -74t136.5 -28.5q64 0 116.5 24t89 67.5t56.5 104.5t20 134q0 48 -14 101t-47.5 98t-89 74.5t-139.5 29.5q-75 0 -130 -25t-92 -68t-55 -100t-18 -121z" />
    <glyph glyph-name="seven" unicode="7" 
d="M76 1409h995v-158q-36 -37 -86.5 -99.5t-107.5 -148t-116.5 -192.5t-113 -234t-98 -271.5t-70.5 -305.5h-198q12 99 41 206t71.5 217.5t96 220.5t114.5 214t128 199t136 176h-792v176z" />
    <glyph glyph-name="eight" unicode="8" 
d="M1008 1069q0 -78 -20 -130t-48.5 -86.5t-60.5 -54.5t-56 -32q73 -31 119 -74t72 -91t35.5 -96.5t9.5 -88.5q0 -87 -28.5 -169t-88 -145.5t-152 -102t-219.5 -38.5q-30 0 -71.5 4.5t-88 17t-95 34t-91.5 55.5q-55 43 -85 92.5t-43.5 96t-16 87t-2.5 66.5q0 132 65 217.5
t179 132.5q-93 35 -144 106.5t-51 173.5q0 37 8.5 81t28 88t52.5 85t81.5 72.5t114 50.5t151.5 19q120 0 204.5 -34.5t138 -88t78 -119.5t24.5 -129zM567 676q-76 0 -132 -23t-92.5 -60.5t-54.5 -85t-18 -97.5q0 -43 13 -93.5t47.5 -93.5t94 -71.5t153.5 -28.5q49 0 100 11
t93 41t68.5 83t26.5 137q0 73 -23.5 126t-64.5 87.5t-95.5 51t-115.5 16.5zM565 831q58 0 105.5 18t81 49t51.5 73.5t18 91.5q0 33 -12 70.5t-42.5 70t-82.5 53.5t-131 21q-72 0 -118.5 -22t-73.5 -56t-37.5 -73.5t-10.5 -73.5q0 -52 21 -93t56 -69.5t80.5 -44t94.5 -15.5z
" />
    <glyph glyph-name="nine" unicode="9" 
d="M539 481q-100 0 -183.5 32.5t-143.5 92.5t-93 146t-33 194q0 98 29.5 187.5t88 157.5t145 108.5t200.5 40.5q115 0 197 -33t138 -88t89.5 -125.5t51 -144.5t23 -146.5t5.5 -130.5q0 -29 -2 -79t-10 -112.5t-23 -132.5t-40.5 -139t-64 -132t-92.5 -111t-126 -76.5
t-165 -28.5q-84 0 -148.5 19t-112 50t-79.5 71.5t-51.5 83t-28 84.5t-8.5 77h181q8 -109 70 -172t173 -63q74 0 131 31.5t99 97.5t70.5 167.5t45.5 241.5l-4 4q-20 -41 -55 -73t-79.5 -54t-94.5 -33.5t-100 -11.5zM565 643q24 0 53.5 4.5t60 17t60 35.5t52.5 59.5t37 88.5
t14 123q0 61 -16.5 117t-51.5 98t-90 67t-133 25q-63 0 -114.5 -23.5t-88 -66t-56.5 -102.5t-20 -132q0 -69 13.5 -119t36 -84.5t52 -55.5t62 -32.5t66 -15.5t63.5 -4z" />
    <glyph glyph-name="colon" unicode=":" horiz-adv-x="569" 
d="M391 0h-213v217h213v-217zM391 840h-213v217h213v-217z" />
    <glyph glyph-name="semicolon" unicode=";" horiz-adv-x="569" 
d="M178 217h213v-201q0 -69 -13 -119.5t-33 -85t-45 -56t-48.5 -33.5t-43.5 -17t-30 -6v94q32 3 53 22t33.5 48.5t17.5 65t5 71.5h-109v217zM178 840v217h213v-217h-213z" />
    <glyph glyph-name="less" unicode="&#x3c;" horiz-adv-x="1196" 
d="M1098 23l-1000 423v144l1000 424v-164l-799 -332l799 -332v-163z" />
    <glyph glyph-name="equal" unicode="=" horiz-adv-x="1196" 
d="M1116 649h-1036v150h1036v-150zM1116 236h-1036v149h1036v-149z" />
    <glyph glyph-name="greater" unicode="&#x3e;" horiz-adv-x="1196" 
d="M98 1014l1000 -424v-144l-1000 -423v163l799 332l-799 332v164z" />
    <glyph glyph-name="question" unicode="?" 
d="M115 1010q2 52 6.5 102.5t20.5 99t47 94.5t87 89q62 48 139 71t158 23q86 0 165 -26t139 -76.5t95.5 -125.5t35.5 -174q0 -51 -10.5 -91t-34 -78t-60 -78t-88.5 -90q-48 -47 -82.5 -83t-56.5 -75.5t-31.5 -90t-7.5 -126.5h-180q0 58 4.5 103t14 82t25 67.5t37 60t49.5 60
t64 67.5q51 52 83 86.5t50 64t24.5 60t6.5 74.5q0 32 -11 72.5t-38.5 76t-75.5 60t-123 24.5q-66 0 -111.5 -18t-75.5 -46.5t-47 -64t-25.5 -71.5t-10.5 -68.5t-2 -54.5h-180zM651 0h-198v209h198v-209z" />
    <glyph glyph-name="at" unicode="@" horiz-adv-x="2079" 
d="M1251 836q0 37 -13.5 71.5t-36.5 60t-53.5 41t-64.5 15.5q-68 0 -125 -38.5t-98 -97.5t-63.5 -129t-22.5 -134q0 -44 12.5 -80.5t35 -63t54.5 -41t70 -14.5q65 0 121 41t97 102.5t64 133t23 133.5zM1356 1139h139q-20 -72 -41 -145.5t-41.5 -143t-39 -132.5t-32.5 -113
t-22 -85t-8 -49q0 -29 9 -44t34 -15q52 0 104 38.5t93.5 100.5t67.5 141.5t26 161.5q0 123 -46 221t-124 166t-182 104.5t-220 36.5q-137 0 -251 -51.5t-196.5 -140t-128.5 -208t-46 -255.5t49 -252.5t134.5 -202.5t202 -135t250.5 -49q72 0 142 16.5t134.5 46.5t121 73.5
t100.5 97.5h137q-50 -84 -119 -151t-151.5 -113.5t-176 -71.5t-192.5 -25q-109 0 -210 27.5t-187.5 77.5t-157.5 120.5t-121.5 157t-78 186.5t-27.5 209q0 107 28 205.5t78.5 184t121.5 156t156.5 120t183.5 77t204 27.5q95 0 184 -21.5t167.5 -61.5t143.5 -97t111.5 -128
t72.5 -154.5t26 -176.5q0 -92 -23.5 -172t-63 -145.5t-90.5 -116.5t-105.5 -86t-108.5 -53t-99 -18q-26 0 -49 7.5t-41 23.5t-29 40.5t-12 57.5l-4 -2q-22 -24 -49.5 -47t-59 -40.5t-66.5 -28.5t-71 -11q-66 0 -121.5 26t-95 70.5t-62 104t-22.5 126.5q0 69 15.5 138
t44 131.5t70.5 116.5t94.5 94t115 62.5t133.5 22.5q75 0 135.5 -36.5t100.5 -122.5z" />
    <glyph glyph-name="A" unicode="A" horiz-adv-x="1366" 
d="M387 428l-154 -428h-204l553 1470h225l532 -1470h-217l-145 428h-590zM905 604l-217 647h-4l-235 -647h456z" />
    <glyph glyph-name="B" unicode="B" horiz-adv-x="1366" 
d="M350 848h359q71 0 128 11.5t96.5 39.5t61 73t21.5 113q0 52 -16.5 92t-53 67.5t-94.5 41.5t-141 14h-361v-452zM152 1470h647q103 0 180.5 -29.5t129.5 -80.5t78.5 -118t26.5 -142q0 -36 -8 -78t-29.5 -83.5t-59.5 -79.5t-99 -66q36 -15 82 -37.5t87 -62.5t69 -102.5
t28 -156.5q0 -88 -32.5 -167t-95.5 -138t-156.5 -94t-215.5 -35h-632v1470zM350 170h424q155 0 233 72.5t78 195.5q0 78 -31 126.5t-80.5 75.5t-110.5 36.5t-122 9.5h-391v-516z" />
    <glyph glyph-name="C" unicode="C" horiz-adv-x="1479" 
d="M1188 1028q-14 65 -40 112.5t-60 81.5t-73.5 55.5t-80.5 34t-82 17t-76 4.5q-100 0 -187.5 -36.5t-153 -109.5t-103 -182.5t-37.5 -254.5q0 -130 25 -242t82 -194.5t150 -129.5t230 -47q32 0 71 6t80 22.5t82 45t77 73.5t64.5 108t45.5 149h193q-15 -104 -46.5 -184
t-73 -140.5t-91 -103t-100.5 -70.5t-101.5 -44.5t-95 -25t-79.5 -10.5t-56 -2q-83 0 -165 18.5t-155.5 58.5t-136 102t-108 149t-71.5 200t-26 254q0 170 47 311t135.5 242t215.5 157t288 56q142 0 250.5 -40.5t183.5 -107.5t117 -154t53 -179h-192z" />
    <glyph glyph-name="D" unicode="D" horiz-adv-x="1479" 
d="M166 1470h596q144 0 258.5 -52t194.5 -146t122.5 -225.5t42.5 -290.5q0 -83 -13 -171t-42 -172t-76.5 -159t-117.5 -131.5t-163 -89.5t-214 -33h-588v1470zM365 170h385q97 0 175.5 37.5t134 110t86 179.5t30.5 246t-31 243.5t-88 174t-138.5 104.5t-183.5 35h-370v-1130
z" />
    <glyph glyph-name="E" unicode="E" horiz-adv-x="1366" 
d="M1262 0h-1086v1470h1071v-176h-872v-450h805v-176h-805v-492h887v-176z" />
    <glyph glyph-name="F" unicode="F" horiz-adv-x="1251" 
d="M375 0h-199v1470h1018v-176h-819v-450h721v-176h-721v-668z" />
    <glyph glyph-name="G" unicode="G" horiz-adv-x="1593" 
d="M797 786h645v-786h-129l-47 190q-38 -52 -90.5 -94.5t-115 -72.5t-134 -46t-146.5 -16q-95 0 -166 15.5t-125 39.5t-92.5 53.5t-66.5 57.5q-85 80 -131.5 165t-69 167t-27 156t-4.5 133q0 90 18.5 181t55.5 175.5t94.5 158.5t134.5 128.5t175.5 86t218.5 31.5
q68 0 138 -13t135.5 -39.5t124 -66.5t105 -93.5t77.5 -122t42 -150.5h-192q-24 96 -73 156.5t-110.5 94t-129 46t-128.5 12.5q-99 0 -186.5 -39t-153 -114.5t-103.5 -187t-38 -255.5q0 -75 9 -149t31 -141t58 -125t90.5 -100.5t129 -66.5t172.5 -24q27 0 62.5 2.5t74.5 12
t81 28.5t83 51q48 39 79.5 82.5t49.5 92.5t25 103t7 113h-458v170z" />
    <glyph glyph-name="H" unicode="H" horiz-adv-x="1479" 
d="M1124 1470h199v-1470h-199v686h-768v-686h-198v1470h198v-608h768v608z" />
    <glyph glyph-name="I" unicode="I" horiz-adv-x="569" 
d="M385 0h-199v1470h199v-1470z" />
    <glyph glyph-name="J" unicode="J" horiz-adv-x="1024" 
d="M221 473v-102q0 -66 15.5 -112t44 -74.5t69.5 -41t92 -12.5q69 0 114.5 19.5t72.5 54t38 80.5t11 100v1085h199v-1073q0 -129 -38.5 -213.5t-99.5 -134t-136.5 -69t-149.5 -19.5q-86 0 -150 17.5t-110.5 47t-77 67.5t-48.5 78.5t-25 81t-7 75.5v145h186z" />
    <glyph glyph-name="K" unicode="K" horiz-adv-x="1366" 
d="M354 0h-198v1470h198v-712l713 712h274l-612 -593l629 -877h-258l-514 737l-232 -221v-516z" />
    <glyph glyph-name="L" unicode="L" 
d="M354 176h746v-176h-944v1470h198v-1294z" />
    <glyph glyph-name="M" unicode="M" horiz-adv-x="1706" 
d="M1366 0v868q0 16 0.5 56t1.5 92t1.5 110t0.5 109h-4l-414 -1235h-196l-414 1233h-4q0 -51 0.5 -108t1.5 -109t1.5 -92t0.5 -56v-868h-192v1470h284l420 -1243h4l418 1243h283v-1470h-193z" />
    <glyph glyph-name="N" unicode="N" horiz-adv-x="1479" 
d="M1130 1470h193v-1470h-223l-748 1188h-4v-1188h-192v1470h235l735 -1187h4v1187z" />
    <glyph glyph-name="O" unicode="O" horiz-adv-x="1593" 
d="M1309 735q0 130 -35 239.5t-101 189t-161 124.5t-215 45t-215 -45t-161 -124.5t-101 -189t-35 -239.5t35 -239.5t101 -189t161 -124.5t215 -45t215 45t161 124.5t101 189t35 239.5zM1513 735q0 -79 -15 -167.5t-48.5 -174.5t-88.5 -164t-134.5 -137.5t-186 -95
t-243.5 -35.5t-243.5 35.5t-186.5 95t-134.5 137.5t-88.5 164t-49 174.5t-15 167.5t15 167.5t49 174.5t88.5 164t134.5 138t186.5 95t243.5 35t243.5 -35t186 -95t134.5 -138t88.5 -164t48.5 -174.5t15 -167.5z" />
    <glyph glyph-name="P" unicode="P" horiz-adv-x="1366" 
d="M375 791h395q67 0 122 13.5t94.5 44t61 81t21.5 125.5q0 70 -22.5 117t-61.5 75.5t-92.5 40.5t-114.5 12h-403v-509zM375 0h-199v1470h662q102 0 183 -31t137 -86.5t86 -131t30 -164.5q0 -77 -23.5 -154.5t-75 -140t-134.5 -102t-203 -39.5h-463v-621z" />
    <glyph glyph-name="Q" unicode="Q" horiz-adv-x="1593" 
d="M961 426l186 -145q78 78 120 195t42 259q0 130 -35 239.5t-101 189t-161 124.5t-215 45t-215 -45t-161 -124.5t-101 -189t-35 -239.5t35 -239.5t101 -189t161 -124.5t215 -45q62 0 116 12t101 35l-154 119zM1401 -115l-225 174q-73 -46 -167.5 -72t-211.5 -26
q-137 0 -243.5 35.5t-186.5 95t-134.5 137.5t-88.5 164t-49 174.5t-15 167.5t15 167.5t49 174.5t88.5 164t134.5 138t186.5 95t243.5 35t243.5 -35t186 -95t134.5 -138t88.5 -164t48.5 -174.5t15 -167.5q0 -70 -11.5 -146.5t-36.5 -152t-66 -146.5t-99 -130l201 -156z" />
    <glyph glyph-name="R" unicode="R" horiz-adv-x="1479" 
d="M379 0h-199v1470h680q91 0 177.5 -18t154.5 -63t109.5 -121t41.5 -193q0 -81 -18.5 -138.5t-48 -98t-66 -67.5t-71.5 -48q31 -13 61.5 -29t55 -45.5t40.5 -77.5t19 -125l12 -266q1 -31 4 -53t10.5 -38.5t22 -29.5t37.5 -26v-33h-244q-7 22 -12.5 54.5t-9.5 69t-6.5 74
t-4 71t-2 60t-0.5 40.5q0 45 -7.5 91.5t-34.5 84.5t-79 62t-141 24h-481v-631zM379 801h461q54 0 107.5 9t96 36.5t69 77.5t26.5 131q0 85 -27.5 134t-68 73.5t-86.5 31t-83 6.5h-495v-499z" />
    <glyph glyph-name="S" unicode="S" horiz-adv-x="1366" 
d="M1042 1040q-4 85 -38 142.5t-85.5 92.5t-115 49.5t-125.5 14.5q-31 0 -68 -3.5t-74.5 -13.5t-72.5 -28t-62 -46.5t-43 -69.5t-16 -97q0 -47 15 -79t39.5 -53.5t56 -34t63.5 -19.5l420 -96q71 -17 132 -47.5t106 -78.5t70.5 -114t25.5 -153t-25 -154t-68 -116.5
t-100.5 -83t-121.5 -54t-131 -29t-130 -8.5q-102 0 -175 13.5t-124.5 34.5t-86 46t-58.5 47q-47 42 -76 86.5t-45.5 91t-22.5 95.5t-6 100h187q0 -100 37 -166t95 -105.5t130 -56t143 -16.5q36 0 78.5 3.5t85.5 13.5t82.5 27.5t70.5 45t49.5 66.5t18.5 92q0 57 -15 97
t-51 69t-96 51t-151 43l-301 70q-24 5 -56.5 15t-67.5 27.5t-68.5 43t-60.5 62t-43.5 85.5t-16.5 113q0 86 29 167.5t90 145.5t156.5 102.5t229.5 38.5q128 0 220 -23.5t155.5 -62t101.5 -88t59 -102t28.5 -103t9.5 -90.5h-187z" />
    <glyph glyph-name="T" unicode="T" horiz-adv-x="1251" 
d="M29 1470h1194v-176h-498v-1294h-199v1294h-497v176z" />
    <glyph glyph-name="U" unicode="U" horiz-adv-x="1479" 
d="M1319 1470v-954q0 -113 -36 -214t-109 -176.5t-184.5 -120t-262.5 -44.5q-148 0 -255 44t-176 117.5t-101.5 168.5t-32.5 198v981h198v-925q0 -120 33 -199t86.5 -125.5t120 -65t133.5 -18.5q68 0 137 18t124.5 64t90.5 124t35 198v929h199z" />
    <glyph glyph-name="V" unicode="V" horiz-adv-x="1366" 
d="M1102 1470h223l-537 -1470h-210l-537 1470h221l420 -1253h4z" />
    <glyph glyph-name="W" unicode="W" horiz-adv-x="1933" 
d="M625 0h-209l-383 1470h215l274 -1196h4l330 1196h217l330 -1196h4l274 1196h220l-388 -1470h-208l-336 1219h-4z" />
    <glyph glyph-name="X" unicode="X" horiz-adv-x="1366" 
d="M1327 0h-246l-395 604l-407 -604h-240l526 754l-493 716h250l372 -563l373 563h238l-494 -716z" />
    <glyph glyph-name="Y" unicode="Y" horiz-adv-x="1366" 
d="M782 0h-198v592l-555 878h231l422 -706l422 706h233l-555 -878v-592z" />
    <glyph glyph-name="Z" unicode="Z" horiz-adv-x="1251" 
d="M1204 0h-1157v166l901 1128h-833v176h1089v-172l-905 -1122h905v-176z" />
    <glyph glyph-name="bracketleft" unicode="[" horiz-adv-x="569" 
d="M291 -256h221v-145h-383v1880h383v-146h-221v-1589z" />
    <glyph glyph-name="backslash" unicode="\" horiz-adv-x="569" 
d="M-35 1509h135l504 -1548h-137z" />
    <glyph glyph-name="bracketright" unicode="]" horiz-adv-x="569" 
d="M279 1333h-222v146h383v-1880h-383v145h222v1589z" />
    <glyph glyph-name="asciicircum" unicode="^" horiz-adv-x="961" 
d="M831 541l-350 704l-350 -704h-160l437 868h147l434 -868h-158z" />
    <glyph glyph-name="underscore" unicode="_" 
d="M0 -256v102h1139v-102h-1139z" />
    <glyph glyph-name="grave" unicode="`" horiz-adv-x="682" 
d="M29 1503h221l182 -289h-137z" />
    <glyph glyph-name="a" unicode="a" 
d="M127 745q3 96 35.5 164t89.5 110.5t137.5 62.5t179.5 20q21 0 59 -3t82.5 -13.5t90 -30t82.5 -53t60.5 -82.5t23.5 -117v-617q0 -34 15.5 -48.5t43.5 -14.5q12 0 28 2.5t31 5.5v-131q-23 -6 -45 -13t-53 -7q-60 0 -96.5 14t-56.5 37t-27.5 52t-9.5 60q-26 -28 -60.5 -59
t-81 -56.5t-107 -42t-138.5 -16.5q-74 0 -135.5 22.5t-106 63t-69.5 98t-25 126.5q0 22 3.5 53.5t14.5 65.5t32.5 68.5t57.5 64.5t89 52t128 31l297 37q16 1 33 6.5t30.5 19t22.5 37.5t9 64q0 85 -62 129.5t-190 44.5q-77 0 -123.5 -21t-72 -52t-36 -67t-14.5 -67h-166z
M786 547q-11 -9 -27 -16.5t-48 -15.5t-85 -16.5t-137 -19.5q-33 -5 -73 -13.5t-74.5 -27.5t-58 -50.5t-23.5 -82.5q0 -88 46.5 -137t148.5 -49q63 0 122.5 19t106 53t74.5 80t28 100v176z" />
    <glyph glyph-name="b" unicode="b" 
d="M119 0v1470h180v-534h4q59 85 137 124.5t172 41.5q107 0 190 -41.5t140 -113.5t87 -169.5t30 -210.5q0 -64 -9.5 -133t-31.5 -135.5t-58 -126.5t-88 -105t-122.5 -71.5t-161.5 -26.5q-68 0 -117.5 17.5t-84.5 42.5t-57 53.5t-36 50.5h-4v-133h-170zM872 539q0 34 -2.5 77
t-11.5 87.5t-27.5 87t-51 76t-81.5 53.5t-118 20q-65 0 -112 -21.5t-79 -57.5t-51.5 -83t-29.5 -97.5t-13.5 -101.5t-3.5 -94q0 -107 29.5 -176.5t74 -110t95.5 -57t94 -16.5q73 0 127.5 31.5t90 87t53 131t17.5 164.5z" />
    <glyph glyph-name="c" unicode="c" horiz-adv-x="1024" 
d="M803 711q-17 107 -79 168t-175 61q-84 0 -140.5 -36.5t-91 -94t-49 -129.5t-14.5 -143q0 -46 4.5 -94.5t16.5 -94.5t32.5 -86.5t53 -71t78.5 -48t108 -17.5q45 0 86.5 16.5t75 49t58 79.5t36.5 109h174q-5 -42 -17.5 -89t-34.5 -92.5t-55.5 -87t-80.5 -73t-108.5 -50
t-139.5 -18.5q-113 0 -202 40.5t-151 112t-94.5 170t-32.5 214.5q0 124 30.5 233t93.5 189.5t160 127t230 46.5q105 0 179 -35t122 -91t72 -125.5t29 -139.5h-174z" />
    <glyph glyph-name="d" unicode="d" 
d="M1022 0h-170v147h-4q-29 -54 -66 -89t-77 -54.5t-81.5 -27t-80.5 -7.5q-91 0 -161.5 26.5t-123 71.5t-88 105t-57.5 126.5t-31.5 135.5t-9.5 133q0 113 29.5 210.5t86.5 169.5t140 113.5t190 41.5q73 0 126 -20t91 -48.5t62.5 -59.5t40.5 -54l4 14v536h180v-1470z
M258 539q0 -89 17.5 -164.5t53 -131t90 -87t128.5 -31.5q43 0 94 16.5t95.5 57t74 110t29.5 176.5q0 43 -3.5 94t-14 101.5t-29.5 97.5t-51.5 83t-79 57.5t-111.5 21.5q-70 0 -118.5 -20t-81.5 -53.5t-51.5 -76t-27.5 -87t-11.5 -87.5t-2.5 -77z" />
    <glyph glyph-name="e" unicode="e" 
d="M1042 336q-2 -19 -13 -54.5t-33.5 -77.5t-57.5 -84.5t-86 -76.5q-18 -12 -42 -25.5t-57.5 -24t-80.5 -17.5t-111 -7q-113 0 -202 40.5t-150.5 112t-94 170t-32.5 214.5q0 124 30.5 233t93.5 189.5t160 127t230 46.5q116 0 202.5 -44.5t144 -126t86 -197t28.5 -257.5h-783
q0 -168 78 -260t234 -92q64 0 114 21.5t85.5 54t55 69t21.5 66.5h180zM870 621q-4 62 -20 119.5t-50.5 102t-90.5 71t-138 26.5q-62 0 -116 -26.5t-94.5 -71t-63.5 -102t-23 -119.5h596z" />
    <glyph glyph-name="f" unicode="f" horiz-adv-x="569" 
d="M356 922v-922h-180v922h-147v149h147v184q0 121 73.5 178.5t205.5 57.5q20 0 40 -1t42 -3v-162q-17 2 -37 3t-37 1q-59 0 -83 -30t-24 -95v-133h181v-149h-181z" />
    <glyph glyph-name="g" unicode="g" 
d="M268 539q0 -89 17.5 -164.5t53 -131t90 -87t128.5 -31.5q43 0 94 16.5t95.5 57t74 110t29.5 176.5q0 43 -3.5 94t-14 101.5t-29.5 97.5t-51.5 83t-79 57.5t-111.5 21.5q-69 0 -118 -20t-81.5 -53.5t-51 -76t-28 -87t-12 -87.5t-2.5 -77zM1022 88q0 -38 -2.5 -93
t-16.5 -115t-44 -119t-85.5 -106.5t-140.5 -76.5t-209 -29q-32 0 -72 4t-82.5 15.5t-84.5 33.5t-76.5 57.5t-59.5 87t-34 122.5h180q8 -42 26.5 -71.5t41.5 -48.5t49 -29t50.5 -14.5t44 -5.5t30.5 -1q78 0 130.5 19t86.5 50.5t52 71.5t26 82t9 82t1 72v45h-4v-8
q-18 -29 -44.5 -55t-62 -45.5t-80 -31.5t-98.5 -12q-91 0 -161.5 26.5t-123 71.5t-88 105t-57.5 126.5t-31.5 135.5t-9.5 133q0 113 29.5 210.5t86.5 169.5t140 113.5t190 41.5q73 0 126 -20t91 -48.5t62.5 -59.5t40.5 -54h4v151h170v-983z" />
    <glyph glyph-name="h" unicode="h" 
d="M1006 0h-181v700q0 55 -9 99t-33 75.5t-65.5 48.5t-105.5 17q-55 0 -108.5 -17.5t-96 -59t-68.5 -110t-26 -169.5v-584h-180v1470h180v-542h4q19 25 46.5 55.5t65.5 56.5t87.5 44t114.5 18q41 0 85 -6.5t86 -22.5t79 -43t65 -68.5t44 -99t16 -133.5v-729z" />
    <glyph glyph-name="i" unicode="i" horiz-adv-x="455" 
d="M317 0h-180v1071h180v-1071zM137 1266v204h180v-204h-180z" />
    <glyph glyph-name="j" unicode="j" horiz-adv-x="455" 
d="M317 -158q0 -23 -2 -52t-10 -59.5t-25 -59t-47.5 -51t-77 -36.5t-112.5 -14q-36 0 -76 6v156h37q40 0 66 3.5t41 16.5t20.5 39.5t5.5 71.5v1208h180v-1229zM317 1266h-180v204h180v-204z" />
    <glyph glyph-name="k" unicode="k" horiz-adv-x="1024" 
d="M1026 0h-231l-334 541l-150 -135v-406h-174v1470h174v-852l461 453h229l-409 -399z" />
    <glyph glyph-name="l" unicode="l" horiz-adv-x="455" 
d="M317 0h-180v1470h180v-1470z" />
    <glyph glyph-name="m" unicode="m" horiz-adv-x="1706" 
d="M133 1071h170v-151h4q15 21 40 52.5t64 60t93.5 49t126.5 20.5t121 -19t81.5 -46.5t51.5 -57.5t30 -51q34 37 66 69t69.5 55.5t84 36.5t108.5 13q29 0 64.5 -6t72.5 -21t72 -41t62.5 -66t44 -96t16.5 -131v-741h-180v692q0 55 -9.5 101t-32.5 78.5t-61 50.5t-96 18
q-57 0 -103.5 -24.5t-79.5 -65t-51 -92t-18 -105.5v-653h-180v741q0 34 -7.5 69t-26.5 64t-51.5 47.5t-82.5 18.5q-25 0 -56 -6t-62.5 -21.5t-61 -41.5t-52.5 -65.5t-37 -94.5t-14 -127v-584h-180v1071z" />
    <glyph glyph-name="n" unicode="n" 
d="M1006 0h-181v659q0 70 -11 122.5t-37.5 88t-70.5 53t-110 17.5q-25 0 -56 -6t-62.5 -21.5t-61 -41.5t-52.5 -65.5t-37 -94.5t-14 -127v-584h-180v1071h170v-151h4q15 21 41 52.5t66 60t94 49t123 20.5q41 0 85 -6.5t86 -22.5t79 -43t65 -68.5t44 -99t16 -133.5v-729z" />
    <glyph glyph-name="o" unicode="o" 
d="M72 537q0 69 13 137.5t40 131.5t67.5 117t95.5 94t125 62.5t156 22.5q85 0 155.5 -22.5t125.5 -62.5t96 -94t68 -117t40 -131.5t13 -137.5t-13 -138t-40 -132t-68 -117t-96 -94t-125.5 -62.5t-155.5 -22.5t-155.5 22.5t-125.5 62.5t-95.5 94t-67.5 117t-40 132t-13 138z
M258 537q0 -36 5 -80.5t18 -90t35.5 -88.5t57 -76.5t82.5 -54t113 -20.5q64 0 112.5 20.5t83 54t57 76.5t36 88.5t18.5 90t5 80.5t-5 80t-18.5 89.5t-36 88.5t-57 76.5t-83 54t-112.5 20.5t-112.5 -20.5t-83 -54t-57 -76.5t-35.5 -88.5t-18 -89.5t-5 -80z" />
    <glyph glyph-name="p" unicode="p" 
d="M291 485q0 -107 29.5 -176.5t74 -110t95.5 -57t94 -16.5q73 0 127.5 31.5t90 87t53 131t17.5 164.5q0 34 -2.5 77t-11.5 87.5t-27.5 87t-51 76t-81.5 53.5t-118 20q-65 0 -112 -21.5t-79 -57.5t-51.5 -83t-29.5 -97.5t-13.5 -101.5t-3.5 -94zM119 1071h170v-151h4
q16 23 40.5 54t62 59.5t90.5 48.5t126 20q107 0 190 -41.5t140 -113.5t87 -169.5t30 -210.5q0 -64 -9.5 -133t-31.5 -135.5t-58 -126.5t-88 -105t-122.5 -71.5t-161.5 -26.5q-54 0 -98.5 12t-80 31.5t-62 45.5t-44.5 55h-4v-537h-180v1495z" />
    <glyph glyph-name="q" unicode="q" 
d="M1012 -424h-181v537h-4q-18 -29 -44.5 -55t-61.5 -45.5t-79.5 -31.5t-98.5 -12q-91 0 -161.5 26.5t-123 71.5t-88 105t-57.5 126.5t-31.5 135.5t-9.5 133q0 113 29.5 210.5t86.5 169.5t140 113.5t190 41.5q73 0 126 -20t91 -48.5t62.5 -59.5t40.5 -54h4v151h170v-1495z
M840 485q0 43 -3.5 94t-14 101.5t-29.5 97.5t-51.5 83t-79 57.5t-111.5 21.5q-70 0 -118.5 -20t-81.5 -53.5t-51.5 -76t-27.5 -87t-11.5 -87.5t-2.5 -77q0 -89 17.5 -164.5t53 -131t90 -87t128.5 -31.5q43 0 94 16.5t95.5 57t74 110t29.5 176.5z" />
    <glyph glyph-name="r" unicode="r" horiz-adv-x="682" 
d="M338 0h-180v1071h170v-178h4q27 47 58 85.5t68.5 66t80.5 42.5t94 15q17 0 26.5 -1.5t20.5 -4.5v-187h-68q-63 0 -113.5 -23t-86.5 -62t-55 -91t-19 -110v-623z" />
    <glyph glyph-name="s" unicode="s" horiz-adv-x="1024" 
d="M741 766q-1 25 -8.5 56.5t-33.5 59t-76.5 46t-135.5 18.5q-21 0 -56.5 -5t-70.5 -20.5t-60.5 -45.5t-25.5 -80q0 -33 11 -54.5t34.5 -37t60.5 -27.5t89 -25l180 -45q84 -21 141.5 -47t93 -60t51 -77.5t15.5 -97.5q0 -83 -32 -149t-89 -112t-134.5 -70t-168.5 -24
q-106 0 -181 19t-125.5 49.5t-80.5 70.5t-45.5 81.5t-21 82t-6.5 72.5h174q2 -32 11 -70t38 -71t84.5 -55.5t150.5 -22.5q48 0 92.5 10t78.5 30.5t54.5 52.5t20.5 77q0 32 -11.5 54.5t-37 40t-66 31t-98.5 28.5l-209 51q-56 14 -101.5 35.5t-78 53t-50.5 73.5t-18 98
q0 88 34 152.5t90 106.5t129.5 62.5t152.5 20.5q96 0 163.5 -21t113 -54t72 -73t40 -77.5t17 -67.5t3.5 -43h-174z" />
    <glyph glyph-name="t" unicode="t" horiz-adv-x="569" 
d="M354 922v-697q0 -32 12 -49t29 -24.5t35.5 -9t32.5 -1.5h63v-141q-49 -5 -85 -9.5t-50 -4.5q-67 0 -109 17.5t-66 48.5t-33 73t-9 90v707h-145v149h145v299h180v-299h172v-149h-172z" />
    <glyph glyph-name="u" unicode="u" 
d="M831 0v156l-4 4q-28 -47 -60.5 -82.5t-73 -59.5t-91.5 -36.5t-115 -12.5q-59 0 -120.5 16t-112 54t-83 102t-32.5 160v770h180v-711q0 -66 16 -111t44 -72.5t65.5 -39.5t81.5 -12q85 0 142 34t91 86t48 115t14 121v590h180v-1071h-170z" />
    <glyph glyph-name="v" unicode="v" horiz-adv-x="1024" 
d="M811 1071h197l-408 -1071h-192l-392 1071h209l279 -872h4z" />
    <glyph glyph-name="w" unicode="w" horiz-adv-x="1479" 
d="M524 0h-186l-309 1071h196l205 -842h4l207 842h201l209 -842h4l217 842h180l-311 -1071h-187l-217 829h-4z" />
    <glyph glyph-name="x" unicode="x" horiz-adv-x="1024" 
d="M1004 0h-230l-266 403l-258 -403h-227l376 551l-358 520h231l248 -377l248 377h221l-362 -520z" />
    <glyph glyph-name="y" unicode="y" horiz-adv-x="1024" 
d="M803 1071h198q-94 -264 -187.5 -525t-197.5 -526q-42 -108 -74 -184.5t-59 -127.5t-53.5 -80t-59 -43.5t-74 -18.5t-99.5 -4q-20 0 -37 5t-39 11v164q17 -6 44 -12t64 -6q36 0 58 7.5t41 33t39.5 74.5t52.5 132l-397 1100h204l285 -872h4z" />
    <glyph glyph-name="z" unicode="z" horiz-adv-x="1024" 
d="M303 150h658v-150h-898v141l646 781h-596v149h829v-147z" />
    <glyph glyph-name="braceleft" unicode="{" horiz-adv-x="684" 
d="M86 602q35 0 65.5 19.5t53 54.5t35 82.5t12.5 103.5v352q0 63 18 112.5t47 83t67 51.5t77 18h137v-133h-90q-27 0 -45 -13.5t-29 -36t-15.5 -53.5t-4.5 -65v-349q-5 -75 -28 -127.5t-52 -86.5t-57.5 -51t-43.5 -21v-4q15 -5 43.5 -21.5t57.5 -50t52 -87.5t28 -134v-346
q0 -34 4.5 -64.5t15.5 -53.5t29 -36.5t45 -13.5h90v-133h-137q-39 0 -77 17.5t-67 51.5t-47 83t-18 112v350q0 58 -12.5 106.5t-35 84t-53 55.5t-65.5 20v123z" />
    <glyph glyph-name="bar" unicode="|" horiz-adv-x="532" 
d="M193 1509h149v-1548h-149v1548z" />
    <glyph glyph-name="braceright" unicode="}" horiz-adv-x="684" 
d="M598 479q-35 0 -65.5 -20t-53 -55.5t-35 -84t-12.5 -106.5v-350q0 -63 -18 -112t-47 -83t-67 -51.5t-77 -17.5h-137v133h90q27 0 45 13.5t29 36.5t15.5 53.5t4.5 64.5v346q5 80 28 134t52 87.5t57.5 50t43.5 21.5v4q-15 4 -43.5 21t-57.5 51t-52 86.5t-28 127.5v349
q0 34 -4.5 65t-15.5 53.5t-29 36t-45 13.5h-90v133h137q39 0 77 -18t67 -51.5t47 -83t18 -112.5v-352q0 -56 12.5 -103.5t35 -82.5t53 -54.5t65.5 -19.5v-123z" />
    <glyph glyph-name="asciitilde" unicode="~" horiz-adv-x="1196" 
d="M1071 553q-23 -37 -50 -69t-59 -56t-68.5 -37.5t-78.5 -13.5q-57 0 -107.5 20t-101.5 47q-49 28 -106.5 50t-128.5 22q-34 0 -60.5 -13t-47.5 -34t-36.5 -47t-27.5 -53l-74 114q17 32 40 63.5t53.5 56.5t71 40.5t91.5 15.5q53 0 110.5 -19.5t116.5 -45.5
q78 -35 130.5 -54.5t78.5 -19.5q31 0 56 13t47 34t40.5 47.5t36.5 53.5z" />
    <glyph glyph-name="Euro" unicode="&#x20ac;" 
d="M1042 1094q-19 37 -48.5 70.5t-70 59t-93 40t-117.5 14.5q-79 0 -136 -32.5t-95.5 -85t-58.5 -118.5t-26 -133h584l-49 -147h-541v-146h490l-50 -147h-428q6 -78 31.5 -142t65.5 -109.5t92 -70t110 -24.5q57 0 112.5 15t102 37.5t79.5 47.5t46 45v-202q-6 -6 -33 -23
t-70 -35t-100 -32.5t-122 -14.5q-218 0 -346 128.5t-160 379.5h-162l51 147h99v146h-148l51 147h105q12 125 50.5 223.5t103.5 167t156 104.5t208 36q67 0 126.5 -12.5t108.5 -33.5t86.5 -49t61.5 -59z" />
    <glyph glyph-name="quotesinglbase" unicode="&#x201a;" horiz-adv-x="455" 
d="M109 217h213v-201q0 -59 -10 -111t-34.5 -94t-65.5 -71.5t-103 -44.5v96q40 6 61.5 29.5t32 54.5t12.5 65t2 60h-108v217z" />
    <glyph glyph-name="florin" unicode="&#x192;" 
d="M995 1319q-34 14 -60.5 24.5t-55.5 10.5q-41 0 -69.5 -20t-48 -50t-31 -65t-17.5 -64l-41 -211h233v-143h-260l-123 -670q-29 -156 -70 -262t-93.5 -171.5t-116.5 -93.5t-138 -28q-27 0 -45.5 2t-33 5t-25.5 7.5t-23 10.5l31 166q22 -11 47.5 -20t57.5 -9q51 0 84.5 24.5
t57 70.5t40 112t31.5 149l131 707h-224v143h252l58 254q12 54 39 109.5t68 100.5t95 73t121 28q31 0 54 -2.5t41 -6.5t33.5 -9.5t31.5 -11.5z" />
    <glyph glyph-name="quotedblbase" unicode="&#x201e;" horiz-adv-x="682" 
d="M53 217h213v-201q0 -59 -10 -111t-34.5 -94t-65.5 -71.5t-103 -44.5v96q40 6 62 29.5t32.5 54.5t12.5 65t2 60h-109v217zM391 217h213v-201q0 -59 -10 -111t-34.5 -94t-65.5 -71.5t-103 -44.5v96q40 6 62 29.5t32.5 54.5t12.5 65t2 60h-109v217z" />
    <glyph glyph-name="ellipsis" unicode="&#x2026;" horiz-adv-x="2048" 
d="M449 0h-213v217h213v-217zM1130 0h-212v217h212v-217zM1812 0h-213v217h213v-217z" />
    <glyph glyph-name="dagger" unicode="&#x2020;" 
d="M668 -326h-193v1209h-387v155h387v432h193v-432h385v-155h-385v-1209z" />
    <glyph glyph-name="daggerdbl" unicode="&#x2021;" 
d="M668 244h385v-156h-385v-414h-193v414h-387v156h387v655h-387v156h387v415h193v-415h385v-156h-385v-655z" />
    <glyph glyph-name="circumflex" unicode="&#x2c6;" horiz-adv-x="682" 
d="M205 1214h-162l203 289h190l203 -289h-164l-135 191z" />
    <glyph glyph-name="perthousand" unicode="&#x2030;" horiz-adv-x="2048" 
d="M14 1104q0 67 25 125t68.5 101t102 68t124.5 25t124 -25t101.5 -68.5t68.5 -101.5t25 -124t-25 -124.5t-68 -102t-101 -68.5t-125 -25q-66 0 -124.5 24.5t-102 68t-68.5 101.5t-25 126zM143 1104q0 -39 14.5 -74t40 -61t60.5 -41t76 -15q39 0 73.5 15t60.5 41t41 61
t15 74q0 40 -15 74.5t-41 60t-60.5 40.5t-73.5 15q-41 0 -76 -15.5t-60.5 -41.5t-40 -60.5t-14.5 -72.5zM653 305q0 67 25 125t68.5 101.5t102 68.5t124.5 25t124 -25.5t101.5 -69t68.5 -101.5t25 -124t-25 -124t-68 -101.5t-101 -68.5t-125 -25q-66 0 -124.5 24.5
t-102 67.5t-68.5 101t-25 126zM782 305q0 -39 14.5 -73.5t40 -60.5t60.5 -41t76 -15q39 0 73.5 15t60.5 41t41 60.5t15 73.5q0 40 -15 75t-41 60.5t-60.5 40.5t-73.5 15q-41 0 -76 -15.5t-60.5 -41.5t-40 -60.5t-14.5 -73.5zM1397 305q0 67 25 125t68.5 101.5t101.5 68.5
t124 25t124 -25.5t101.5 -69t69 -101.5t25.5 -124t-25 -124t-68.5 -101.5t-101.5 -68.5t-125 -25q-66 0 -124 24.5t-101.5 67.5t-68.5 101t-25 126zM1526 305q0 -39 14.5 -73.5t40 -60.5t60 -41t75.5 -15q39 0 74 15t61 41t41 60.5t15 73.5q0 40 -15 75t-41 60.5t-61 40.5
t-74 15q-41 0 -75.5 -15.5t-60 -41.5t-40 -60.5t-14.5 -73.5zM301 -39h-113l813 1479h113z" />
    <glyph glyph-name="Scaron" unicode="&#x160;" horiz-adv-x="1366" 
d="M1042 1040q-4 85 -38 142.5t-85.5 92.5t-115 49.5t-125.5 14.5q-31 0 -68 -3.5t-74.5 -13.5t-72.5 -28t-62 -46.5t-43 -69.5t-16 -97q0 -47 15 -79t39.5 -53.5t56 -34t63.5 -19.5l420 -96q71 -17 132 -47.5t106 -78.5t70.5 -114t25.5 -153t-25 -154t-68 -116.5
t-100.5 -83t-121.5 -54t-131 -29t-130 -8.5q-102 0 -175 13.5t-124.5 34.5t-86 46t-58.5 47q-47 42 -76 86.5t-45.5 91t-22.5 95.5t-6 100h187q0 -100 37 -166t95 -105.5t130 -56t143 -16.5q36 0 78.5 3.5t85.5 13.5t82.5 27.5t70.5 45t49.5 66.5t18.5 92q0 57 -15 97
t-51 69t-96 51t-151 43l-301 70q-24 5 -56.5 15t-67.5 27.5t-68.5 43t-60.5 62t-43.5 85.5t-16.5 113q0 86 29 167.5t90 145.5t156.5 102.5t229.5 38.5q128 0 220 -23.5t155.5 -62t101.5 -88t59 -102t28.5 -103t9.5 -90.5h-187zM682 1712l135 191h164l-203 -289h-190
l-203 289h162z" />
    <glyph glyph-name="guilsinglleft" unicode="&#x2039;" horiz-adv-x="682" 
d="M502 221l-322 252v189l322 251v-180l-215 -166l215 -166v-180z" />
    <glyph glyph-name="OE" unicode="&#x152;" horiz-adv-x="2048" 
d="M1059 1008q0 76 -26.5 137.5t-73.5 104.5t-112 66t-142 23q-99 0 -169 -34t-117.5 -89t-75 -125t-42 -141.5t-18.5 -138.5t-4 -117q0 -90 12.5 -165.5t38.5 -141.5q26 -64 59.5 -112t81 -80t111 -48t149.5 -16q50 0 107.5 18t106.5 58.5t81.5 105.5t32.5 158v537z
M1071 1470h901v-176h-715v-450h682v-176h-682v-492h719v-176h-907v154h-4q-26 -33 -55.5 -67.5t-73.5 -62t-107 -45.5t-155 -18q-145 0 -257 58t-188 160t-115.5 242.5t-39.5 305.5q0 72 11 157.5t38 172.5t72.5 168.5t115.5 144.5t166 101t225 38q91 0 155.5 -22t107 -52.5
t66.5 -62.5t36 -51h4v149z" />
    <glyph glyph-name="Zcaron" unicode="&#x17d;" horiz-adv-x="1251" 
d="M1204 0h-1157v166l901 1128h-833v176h1089v-172l-905 -1122h905v-176zM625 1712l135 191h164l-203 -289h-191l-202 289h161z" />
    <glyph glyph-name="quoteleft" unicode="&#x2018;" horiz-adv-x="455" 
d="M346 963h-213v200q0 59 10 111.5t34.5 94.5t65.5 71.5t103 44.5v-96q-40 -6 -61.5 -30t-32 -55t-12.5 -64.5t-2 -59.5h108v-217z" />
    <glyph glyph-name="quoteright" unicode="&#x2019;" horiz-adv-x="455" 
d="M109 1470h213v-200q0 -59 -10 -111.5t-34.5 -94.5t-65.5 -71.5t-103 -44.5v96q40 6 61.5 30t32 55t12.5 64.5t2 59.5h-108v217z" />
    <glyph glyph-name="quotedblleft" unicode="&#x201c;" horiz-adv-x="682" 
d="M629 963h-213v200q0 59 10 111.5t34.5 94.5t65.5 71.5t103 44.5v-96q-40 -6 -62 -30t-32.5 -55t-12.5 -64.5t-2 -59.5h109v-217zM291 963h-213v200q0 59 10 111.5t34.5 94.5t65.5 71.5t103 44.5v-96q-40 -6 -62 -30t-32.5 -55t-12.5 -64.5t-2 -59.5h109v-217z" />
    <glyph glyph-name="quotedblright" unicode="&#x201d;" horiz-adv-x="682" 
d="M53 1470h213v-200q0 -59 -10 -111.5t-34.5 -94.5t-65.5 -71.5t-103 -44.5v96q40 6 62 30t32.5 55t12.5 64.5t2 59.5h-109v217zM391 1470h213v-200q0 -59 -10 -111.5t-34.5 -94.5t-65.5 -71.5t-103 -44.5v96q40 6 62 30t32.5 55t12.5 64.5t2 59.5h-109v217z" />
    <glyph glyph-name="bullet" unicode="&#x2022;" horiz-adv-x="717" 
d="M682 735q0 -67 -25.5 -125.5t-69.5 -102t-103 -68.5t-126 -25t-125.5 25t-102 68t-68.5 101.5t-25 126.5q0 67 25 126t68 103t101.5 69.5t126.5 25.5q67 0 126 -25.5t103 -69.5t69.5 -103t25.5 -126z" />
    <glyph glyph-name="endash" unicode="&#x2013;" 
d="M1139 492h-1139v149h1139v-149z" />
    <glyph glyph-name="emdash" unicode="&#x2014;" horiz-adv-x="2048" 
d="M2048 492h-2048v149h2048v-149z" />
    <glyph glyph-name="tilde" unicode="&#x2dc;" horiz-adv-x="682" 
d="M690 1479q-5 -46 -21.5 -87t-42.5 -71.5t-61.5 -48t-79.5 -17.5q-27 0 -53 6.5t-67 20.5l-54 18q-27 9 -46 15t-33.5 9.5t-25.5 5t-20 1.5q-41 0 -62.5 -25t-33.5 -65h-98q6 45 21 85t40.5 70t63 47t88.5 17q40 0 73.5 -9t65.5 -21l45 -19q29 -12 56.5 -19.5t39.5 -7.5
q31 0 49.5 9.5t29.5 23.5t16 30.5t8 31.5h102z" />
    <glyph glyph-name="trademark" unicode="&#x2122;" horiz-adv-x="2048" 
d="M1382 850l238 620h229v-843h-149v686h-4l-264 -686h-103l-264 686h-4v-686h-150v843h230zM764 1348h-260v-721h-150v721h-260v122h670v-122z" />
    <glyph glyph-name="scaron" unicode="&#x161;" horiz-adv-x="1024" 
d="M741 766q-1 25 -8.5 56.5t-33.5 59t-76.5 46t-135.5 18.5q-21 0 -56.5 -5t-70.5 -20.5t-60.5 -45.5t-25.5 -80q0 -33 11 -54.5t34.5 -37t60.5 -27.5t89 -25l180 -45q84 -21 141.5 -47t93 -60t51 -77.5t15.5 -97.5q0 -83 -32 -149t-89 -112t-134.5 -70t-168.5 -24
q-106 0 -181 19t-125.5 49.5t-80.5 70.5t-45.5 81.5t-21 82t-6.5 72.5h174q2 -32 11 -70t38 -71t84.5 -55.5t150.5 -22.5q48 0 92.5 10t78.5 30.5t54.5 52.5t20.5 77q0 32 -11.5 54.5t-37 40t-66 31t-98.5 28.5l-209 51q-56 14 -101.5 35.5t-78 53t-50.5 73.5t-18 98
q0 88 34 152.5t90 106.5t129.5 62.5t152.5 20.5q96 0 163.5 -21t113 -54t72 -73t40 -77.5t17 -67.5t3.5 -43h-174zM512 1313l135 190h164l-203 -289h-190l-203 289h162z" />
    <glyph glyph-name="guilsinglright" unicode="&#x203a;" horiz-adv-x="682" 
d="M180 401l215 166l-215 166v180l322 -251v-189l-322 -252v180z" />
    <glyph glyph-name="oe" unicode="&#x153;" horiz-adv-x="1933" 
d="M1661 621q-4 62 -20.5 119.5t-51 102t-90 71t-137.5 26.5q-62 0 -116.5 -26.5t-95 -71t-64 -102t-23.5 -119.5h598zM1833 336q-2 -19 -13 -54.5t-33.5 -77.5t-58 -84.5t-86.5 -76.5q-18 -12 -41.5 -25.5t-57.5 -24t-80.5 -17.5t-110.5 -7q-57 0 -112 11.5t-106 36.5
t-96.5 64.5t-83.5 94.5q-37 -71 -90 -112.5t-108.5 -62t-105.5 -26t-81 -4.5q-85 0 -155.5 22.5t-125.5 62.5t-95.5 94t-67.5 117t-40 132t-13 138t13 137.5t40 131.5t67.5 117t95.5 94t125 62.5t156 22.5q128 -2 232 -55t170 -162q37 57 80.5 98.5t94.5 67.5t110.5 38.5
t129.5 12.5q116 0 202.5 -44.5t144 -126t86 -197t28.5 -257.5h-784q0 -168 78.5 -260t234.5 -92q64 0 114.5 21.5t85.5 54t55 69t22 66.5h180zM258 537q0 -36 5 -80.5t18 -90t35.5 -88.5t57 -76.5t82.5 -54t113 -20.5q64 0 112.5 20.5t83 54t57 76.5t36 88.5t18.5 90t5 80.5
t-5 80t-18.5 89.5t-36 88.5t-57 76.5t-83 54t-112.5 20.5t-112.5 -20.5t-83 -54t-57 -76.5t-35.5 -88.5t-18 -89.5t-5 -80z" />
    <glyph glyph-name="zcaron" unicode="&#x17e;" horiz-adv-x="1024" 
d="M303 150h658v-150h-898v141l646 781h-596v149h829v-147zM512 1313l135 190h164l-203 -289h-190l-203 289h162z" />
    <glyph glyph-name="Ydieresis" unicode="&#x178;" horiz-adv-x="1366" 
d="M782 0h-198v592l-555 878h231l422 -706l422 706h233l-555 -878v-592zM610 1636h-186v209h186v-209zM942 1636h-186v209h186v-209z" />
    <glyph glyph-name="uni00A0" unicode="&#xa0;" horiz-adv-x="569" 
 />
    <glyph glyph-name="exclamdown" unicode="&#xa1;" horiz-adv-x="682" 
d="M242 1071h198v-209h-198v209zM391 721l49 -635v-485h-198v485l49 635h100z" />
    <glyph glyph-name="cent" unicode="&#xa2;" 
d="M655 940q-12 5 -24.5 5.5t-34.5 0.5q-65 0 -122 -25.5t-99 -79.5t-66 -138t-24 -201q0 -56 11 -108.5t30.5 -97.5t47 -80t60.5 -56zM874 707q-6 25 -15 55.5t-24.5 60t-39.5 54t-60 38.5l-225 -790q15 -5 29.5 -6.5t42.5 -1.5q47 0 92 10t84 38.5t69.5 78.5t49.5 131h174
q-5 -37 -17.5 -82.5t-36 -91.5t-59 -89.5t-85.5 -77t-115.5 -53.5t-149.5 -20q-25 0 -55 4t-68 10l-64 -211h-84l70 234q-59 28 -111 73.5t-90 108t-60 143t-22 179.5q0 144 34 256t99 188.5t158.5 116t212.5 39.5q31 0 52 -3t36 -9l54 186h79l-51 -205q28 -8 69 -30.5
t81.5 -65.5t72.5 -109t41 -159h-168z" />
    <glyph glyph-name="sterling" unicode="&#xa3;" 
d="M760 778v-129h-283q8 -29 13.5 -60.5t5.5 -74.5q0 -44 -15 -93t-45 -98.5t-76.5 -97.5t-109.5 -90l2 -2q57 32 125 54t143 22q48 0 95.5 -11.5t92 -25t84.5 -24.5t72 -11q21 0 43.5 5.5t43.5 14.5t39 20.5t30 23.5l84 -135q-65 -50 -125.5 -74.5t-134.5 -24.5
q-46 0 -97.5 14.5t-106 31.5t-111 31.5t-113.5 14.5q-59 0 -121 -23t-119 -59l-100 142q80 53 129 109.5t76 108t36 95t9 70.5q0 19 -4 40t-10 40.5t-13 37t-12 29.5h-219v129h141q-14 28 -29.5 60t-28.5 66.5t-21.5 72t-8.5 76.5q0 42 10 89.5t33 94t61.5 88.5t94.5 74.5
t132 51.5t175 19q116 0 199 -38t136.5 -100t79 -140t25.5 -158v-30h-180v18q0 64 -20.5 117.5t-57 92.5t-88.5 61t-115 22q-84 0 -140.5 -28t-90.5 -67.5t-48 -82.5t-14 -74q0 -60 27 -126.5t78 -158.5h342z" />
    <glyph glyph-name="currency" unicode="&#xa4;" 
d="M1081 1137l-112 -111q52 -60 77 -141.5t25 -165.5q0 -85 -25 -164.5t-77 -144.5l110 -115l-92 -92l-113 119q-61 -57 -141 -85t-164 -28q-83 0 -163 28t-142 85l-112 -119l-93 92l111 115q-53 65 -77.5 144.5t-24.5 164.5q0 84 24.5 165.5t77.5 141.5l-113 111l99 98
l116 -115q59 51 137.5 78t159.5 27q82 0 160 -27t137 -78l117 115zM217 719q0 -74 27.5 -140.5t75 -117t111.5 -80t138 -29.5t138.5 29.5t112 80t75 117t27.5 140.5q0 72 -27.5 137.5t-75.5 115.5t-112.5 79.5t-137.5 29.5t-137 -29.5t-112 -79.5t-75.5 -115.5t-27.5 -137.5
z" />
    <glyph glyph-name="yen" unicode="&#xa5;" 
d="M86 786h315l-395 623h205l358 -604l359 604h205l-396 -623h318v-116h-396v-174h396v-117h-396v-379h-180v379h-393v117h393v174h-393v116z" />
    <glyph glyph-name="brokenbar" unicode="&#xa6;" horiz-adv-x="532" 
d="M193 563h149v-602h-149v602zM193 1509h149v-567h-149v567z" />
    <glyph glyph-name="section" unicode="&#xa7;" 
d="M768 1135q-1 16 -3 38.5t-9 47t-19.5 48.5t-35 43t-55.5 30.5t-81 11.5q-30 0 -63 -8.5t-61 -28t-46 -51.5t-18 -78q0 -57 40 -100t109 -84l299 -177q47 -27 88 -58t71 -70t47.5 -87.5t17.5 -111.5q0 -65 -18.5 -115t-48 -89t-67.5 -69t-77 -55q24 -26 43.5 -51t33.5 -53
t21.5 -59.5t7.5 -69.5q0 -79 -33.5 -140.5t-86.5 -103.5t-119 -64t-132 -22q-86 0 -159.5 22t-127.5 68.5t-85 119.5t-31 175h180q0 -17 2 -40.5t8.5 -49t20 -51t35.5 -45t54.5 -32t78.5 -12.5q28 0 65.5 6t70.5 24t56 51.5t23 88.5q0 53 -29.5 90t-83.5 72l-430 287
q-41 28 -67 61.5t-40.5 68t-20 66t-5.5 54.5q0 65 15.5 114t42.5 87t64.5 67t82.5 55q-26 28 -44.5 52.5t-30 48.5t-16.5 49t-5 55q0 57 20 118.5t63.5 112.5t113.5 84t171 33q41 0 85 -6.5t86 -23t79 -44t65.5 -69t45 -98.5t16.5 -133h-174zM395 877q-60 -31 -98.5 -79
t-38.5 -120q0 -41 10.5 -71t25.5 -51t30.5 -33.5t25.5 -18.5l387 -250q29 19 55 39t45.5 44t30.5 54.5t11 69.5q0 34 -10 62.5t-27.5 53t-40.5 44.5t-49 36z" />
    <glyph glyph-name="dieresis" unicode="&#xa8;" horiz-adv-x="682" 
d="M268 1237h-186v209h186v-209zM600 1237h-186v209h186v-209z" />
    <glyph glyph-name="copyright" unicode="&#xa9;" horiz-adv-x="1509" 
d="M758 -39q-106 0 -206 26.5t-187.5 75.5t-160 118t-124.5 155.5t-80.5 187.5t-28.5 213q0 111 28.5 211.5t80.5 186.5t124.5 155t160 117.5t187 75t206.5 26.5q106 0 204.5 -26.5t185.5 -75t159 -117.5t124 -155t80.5 -186.5t28.5 -211.5q0 -112 -28.5 -213t-80.5 -187.5
t-124 -155.5t-159 -118t-186 -75.5t-204 -26.5zM127 737q0 -93 22 -177t62.5 -156t98 -130t127.5 -99t151 -63t170 -22q131 0 245.5 49t199 135t133 204.5t48.5 258.5q0 138 -48.5 255.5t-133 203.5t-199 135t-245.5 49q-133 0 -248.5 -49t-200.5 -135t-133.5 -203.5
t-48.5 -255.5zM1165 592q-15 -76 -49.5 -137t-84.5 -104t-113 -66t-134 -23q-104 0 -188.5 37t-144 101t-91.5 151t-32 188q0 102 31 189t89 150t141 98.5t187 35.5q74 0 139.5 -21t117 -61.5t85.5 -100.5t45 -138h-137q-9 42 -31 76.5t-54 59t-73.5 37.5t-89.5 13
q-72 0 -127 -25.5t-92.5 -70.5t-56.5 -106.5t-19 -133.5q0 -69 21 -131.5t60 -109.5t94.5 -75t125.5 -28q48 0 89.5 14.5t73 40t52 61.5t27.5 79h139z" />
    <glyph glyph-name="ordfeminine" unicode="&#xaa;" horiz-adv-x="758" 
d="M709 840q-16 -3 -31 -7t-35 -4q-38 0 -61.5 8.5t-36.5 22.5t-18.5 33.5t-6.5 40.5q-17 -17 -39.5 -35.5t-53 -34t-69.5 -25.5t-90 -10q-48 0 -88 13.5t-69 38.5t-45.5 59t-16.5 76q0 23 6.5 55t29.5 63t69 56.5t125 34.5l180 20q9 1 18 5t15.5 12t11 22.5t4.5 38.5
q0 32 -36.5 56t-119.5 24q-53 0 -83.5 -12.5t-46.5 -29.5t-21 -36t-6 -31h-111q2 58 23.5 98.5t59 66.5t89.5 38t117 12q14 0 38.5 -2t53.5 -8t59 -18t54 -32t39.5 -49.5t15.5 -70.5v-364q0 -22 9 -30.5t28 -8.5q8 0 18 1t21 3v-90zM297 936q42 0 81 11.5t68.5 31.5t46.5 48
t15 60v80q-5 -5 -14.5 -9t-30 -9t-55 -10.5t-89.5 -12.5q-21 -2 -46 -7t-46 -14.5t-35 -25.5t-14 -41q0 -46 26.5 -74t92.5 -28zM678 721v-98h-606v98h606z" />
    <glyph glyph-name="guillemotleft" unicode="&#xab;" 
d="M520 221l-321 252v189l321 251v-180l-215 -166l215 -166v-180zM940 221l-322 252v189l322 251v-180l-215 -166l215 -166v-180z" />
    <glyph glyph-name="logicalnot" unicode="&#xac;" horiz-adv-x="1196" 
d="M967 649h-887v150h1036v-578h-149v428z" />
    <glyph glyph-name="uni00AD" unicode="&#xad;" horiz-adv-x="682" 
d="M592 475h-502v184h502v-184z" />
    <glyph glyph-name="registered" unicode="&#xae;" horiz-adv-x="1509" 
d="M758 -39q-106 0 -206 26.5t-187.5 75.5t-160 118t-124.5 155.5t-80.5 187.5t-28.5 213q0 111 28.5 211.5t80.5 186.5t124.5 155t160 117.5t187 75t206.5 26.5q106 0 204.5 -26.5t185.5 -75t159 -117.5t124 -155t80.5 -186.5t28.5 -211.5q0 -112 -28.5 -213t-80.5 -187.5
t-124 -155.5t-159 -118t-186 -75.5t-204 -26.5zM127 737q0 -93 22 -177t62.5 -156t98 -130t127.5 -99t151 -63t170 -22q131 0 245.5 49t199 135t133 204.5t48.5 258.5q0 138 -48.5 255.5t-133 203.5t-199 135t-245.5 49q-133 0 -248.5 -49t-200.5 -135t-133.5 -203.5
t-48.5 -255.5zM594 289h-135v893h340q159 0 237 -60.5t78 -193.5q0 -60 -17.5 -103.5t-48.5 -73.5t-73.5 -46.5t-91.5 -22.5l254 -393h-152l-235 387h-156v-387zM756 791q43 0 82 3.5t69 17.5t48 43.5t18 80.5q0 42 -17.5 67.5t-45 39.5t-62.5 19t-70 5h-184v-276h162z" />
    <glyph glyph-name="macron" unicode="&#xaf;" horiz-adv-x="682" 
d="M662 1284h-642v117h642v-117z" />
    <glyph glyph-name="degree" unicode="&#xb0;" horiz-adv-x="819" 
d="M410 1352q-41 0 -77.5 -18t-64 -47t-43.5 -67.5t-16 -78.5q0 -41 16 -79t43.5 -67.5t64 -47t77.5 -17.5q40 0 76.5 17.5t64 47t43.5 67.5t16 79q0 40 -16 78.5t-43.5 67.5t-64 47t-76.5 18zM709 1141q0 -64 -23 -118.5t-63 -94.5t-94.5 -63t-118.5 -23t-118.5 23
t-94.5 63t-63 94.5t-23 118.5t23 118.5t63 94.5t94.5 63t118.5 23t118.5 -23t94.5 -63t63 -94.5t23 -118.5z" />
    <glyph glyph-name="plusminus" unicode="&#xb1;" horiz-adv-x="1196" 
d="M524 1036h150v-329h442v-150h-442v-330h-150v330h-444v150h444v329zM80 150h1036v-150h-1036v150z" />
    <glyph glyph-name="twosuperior" unicode="&#xb2;" horiz-adv-x="682" 
d="M39 1130q0 70 17 120.5t44.5 85t62.5 55t71 31.5t69.5 14.5t58.5 3.5q63 0 117.5 -18t95 -51.5t64 -81t23.5 -107.5q0 -59 -19 -102t-52 -77t-77.5 -60.5t-95.5 -51.5l-92 -47q-36 -19 -62.5 -37t-45.5 -36t-32.5 -35.5t-23.5 -35.5h500v-125h-654q3 68 20 120.5t45 94
t65.5 72.5t82.5 56l123 67q40 21 72.5 39.5t55 40t34.5 50.5t12 71q2 23 -5 47t-27 43.5t-54.5 32t-85.5 12.5q-65 0 -101 -22.5t-54 -53.5t-23 -63.5t-6 -51.5h-123z" />
    <glyph glyph-name="threesuperior" unicode="&#xb3;" horiz-adv-x="682" 
d="M150 840q1 -27 7.5 -56.5t24.5 -54.5t52 -41t92 -16q89 0 142.5 35t53.5 110q0 55 -21.5 85t-54 44t-69 16.5t-66.5 2.5h-47v104h55q34 0 64.5 6t53.5 22t36.5 42t13.5 67q0 16 -5.5 36t-23 37.5t-49.5 29.5t-85 12q-52 0 -83.5 -15.5t-49.5 -39.5t-25 -53t-8 -56h-125
q0 48 13.5 98t48.5 91t95 67.5t152 26.5q67 0 121 -17t91 -47.5t57 -72.5t20 -91q0 -41 -11.5 -72t-29.5 -52.5t-39.5 -34.5t-40.5 -19v-4q69 -18 112.5 -65.5t43.5 -133.5q0 -53 -19.5 -103t-60.5 -89t-106 -62.5t-156 -23.5q-53 0 -95.5 11t-76.5 28q-39 18 -65 45.5
t-42 60t-24 69t-11 73.5h140z" />
    <glyph glyph-name="acute" unicode="&#xb4;" horiz-adv-x="682" 
d="M387 1214h-137l182 289h221z" />
    <glyph glyph-name="mu" unicode="&#xb5;" horiz-adv-x="1184" 
d="M831 0v156l-4 4q-28 -47 -60.5 -82.5t-73 -59.5t-91.5 -36.5t-115 -12.5q-15 0 -36 2t-43.5 9.5t-44 21.5t-39.5 37h-5v-463h-180v725v770h180v-711q0 -66 16 -111t44 -72.5t65.5 -39.5t81.5 -12q85 0 142 34t91 86t48 115t14 121v590h180v-1071h-170z" />
    <glyph glyph-name="paragraph" unicode="&#xb6;" horiz-adv-x="1100" 
d="M475 705q-98 0 -179 29t-138.5 79.5t-89 119t-31.5 148.5q0 102 33.5 175.5t95.5 121t149 70t195 22.5h508v-1824h-150v1702h-243v-1702h-150v1059z" />
    <glyph glyph-name="periodcentered" unicode="&#xb7;" horiz-adv-x="569" 
d="M287 645q24 0 46.5 -10t40.5 -27t29 -40.5t11 -51.5q0 -24 -10 -47t-27 -41t-41 -28.5t-51 -10.5q-26 0 -49.5 10.5t-40.5 28t-27 40.5t-10 48q0 28 10.5 52t28.5 41t41 26.5t49 9.5z" />
    <glyph glyph-name="cedilla" unicode="&#xb8;" horiz-adv-x="682" 
d="M293 0h96l-94 -127q17 3 30 5.5t33 2.5q50 0 83.5 -15t53 -37.5t27.5 -49.5t8 -51q0 -40 -16.5 -74.5t-47.5 -60t-75.5 -40t-101.5 -14.5t-107 14t-90 31l35 82q38 -15 66.5 -23t66.5 -8q15 0 34.5 3t37.5 12t30.5 26t12.5 45q0 24 -11.5 39.5t-27 24.5t-32.5 12.5
t-28 3.5q-14 0 -30.5 -3.5t-48.5 -12.5l-35 39z" />
    <glyph glyph-name="onesuperior" unicode="&#xb9;" horiz-adv-x="682" 
d="M88 1182v94q57 4 98.5 10t71 22.5t49 47.5t33.5 84h115v-865h-146v607h-221z" />
    <glyph glyph-name="ordmasculine" unicode="&#xba;" horiz-adv-x="748" 
d="M698 1169q0 -100 -29 -165.5t-75.5 -104.5t-104 -54.5t-114.5 -15.5t-115 15.5t-104.5 54.5t-75.5 104.5t-29 165.5t29 165.5t75.5 104.5t104.5 54.5t115 15.5t114.5 -15.5t104 -54.5t75.5 -104.5t29 -165.5zM561 1169q0 21 -2.5 46.5t-9.5 51.5t-20 50.5t-33.5 43.5
t-50.5 30.5t-70 11.5t-70 -11.5t-50.5 -30.5t-33.5 -43.5t-20.5 -50.5t-10 -51.5t-2.5 -46.5q0 -32 6.5 -72t26.5 -76t56.5 -60.5t97.5 -24.5t97.5 24.5t56 60.5t26 76t6.5 72zM678 721v-98h-606v98h606z" />
    <glyph glyph-name="guillemotright" unicode="&#xbb;" 
d="M199 221v180l215 166l-215 166v180l321 -251v-189zM618 221v180l216 166l-216 166v180l322 -251v-189z" />
    <glyph glyph-name="onequarter" unicode="&#xbc;" horiz-adv-x="1708" 
d="M858 315l422 549h131v-553h137v-118h-137v-193h-131v193h-422v122zM1280 694h-4l-291 -383h295v383zM432 -39h-117l906 1479h116zM150 1188v88q57 4 98 10t70.5 22.5t49 47.5t33.5 84h109v-865h-139v613h-221z" />
    <glyph glyph-name="onehalf" unicode="&#xbd;" horiz-adv-x="1708" 
d="M358 -39h-116l905 1479h117zM88 1182v94q57 4 98.5 10t71 22.5t49 47.5t33.5 84h115v-865h-146v607h-221zM961 555q0 70 17 120.5t44.5 84.5t62.5 54.5t71 31.5t69.5 14.5t58.5 3.5q63 0 117.5 -18t95 -51t63.5 -81t23 -108q0 -58 -19 -101t-52 -77t-77.5 -61t-95.5 -52
l-92 -47q-36 -19 -62 -37t-45 -36t-32.5 -35t-24.5 -35h500v-125h-653q3 67 20 120t45 94t65.5 72t82.5 56l123 68q40 21 72 39.5t54.5 40t35 50t12.5 70.5q2 23 -5 47t-27 43.5t-54.5 32t-85.5 12.5q-65 0 -101 -22.5t-54.5 -53.5t-23.5 -63t-6 -51h-122z" />
    <glyph glyph-name="threequarters" unicode="&#xbe;" horiz-adv-x="1708" 
d="M969 315l422 549h131v-553h137v-118h-137v-193h-131v193h-422v122zM1096 311h295v383h-5zM553 -39h-117l905 1479h117zM231 840q2 -27 8 -56.5t24.5 -54.5t52.5 -41t92 -16q89 0 142.5 35t53.5 110q0 55 -21.5 85t-54 44t-69 16.5t-66.5 2.5h-47v104h55q34 0 64.5 6
t53.5 22t36.5 42t13.5 67q0 16 -5.5 36t-23 37.5t-49.5 29.5t-85 12q-52 0 -83.5 -15.5t-49.5 -39.5t-25 -53t-8 -56h-125q0 48 13.5 98t48.5 91t95 67.5t152 26.5q67 0 121 -17t91 -47.5t57 -72.5t20 -91q0 -41 -11.5 -72t-29.5 -52.5t-39.5 -34.5t-40.5 -19v-4
q69 -18 112.5 -65.5t43.5 -133.5q0 -53 -19.5 -103t-60.5 -89t-106 -62.5t-156 -23.5q-53 0 -95.5 11t-77.5 28q-39 18 -65 45.5t-41.5 60t-23.5 69t-11 73.5h139z" />
    <glyph glyph-name="questiondown" unicode="&#xbf;" horiz-adv-x="1251" 
d="M1079 68q-2 -53 -6.5 -103.5t-20.5 -99t-47 -94t-87 -88.5q-62 -48 -139 -71.5t-158 -23.5q-86 0 -165 26t-139 77t-95.5 126t-35.5 173q0 51 10.5 91t34 78.5t60 78.5t88.5 90q48 47 82.5 83t56.5 75.5t31 89.5t8 126h180q0 -58 -4.5 -103t-14 -81.5t-25 -67t-37 -60
t-49.5 -60.5t-64 -68q-51 -52 -83 -86.5t-50 -64t-24.5 -60t-6.5 -74.5q0 -32 11 -72.5t38.5 -76t75.5 -60t123 -24.5q66 0 111.5 18t75.5 46.5t47 64.5t25.5 72t10.5 68.5t2 54.5h180zM543 1075h198v-209h-198v209z" />
    <glyph glyph-name=".notdef.106" unicode="&#xc0;" horiz-adv-x="1366" 
d="M387 428l-154 -428h-204l553 1470h225l532 -1470h-217l-145 428h-590zM905 604l-217 647h-4l-235 -647h456zM392 1903h221l182 -289h-137z" />
    <glyph glyph-name=".notdef.107" unicode="&#xc1;" horiz-adv-x="1366" 
d="M387 428l-154 -428h-204l553 1470h225l532 -1470h-217l-145 428h-590zM905 604l-217 647h-4l-235 -647h456zM720 1614h-137l182 289h221z" />
    <glyph glyph-name=".notdef.111" unicode="&#xc2;" horiz-adv-x="1366" 
d="M387 428l-154 -428h-204l553 1470h225l532 -1470h-217l-145 428h-590zM905 604l-217 647h-4l-235 -647h456zM547 1614h-162l203 289h190l203 -289h-164l-135 190z" />
    <glyph glyph-name=".notdef.109" unicode="&#xc3;" horiz-adv-x="1366" 
d="M387 428l-154 -428h-204l553 1470h225l532 -1470h-217l-145 428h-590zM905 604l-217 647h-4l-235 -647h456zM1041 1878q-5 -46 -21.5 -86.5t-42.5 -71t-61.5 -48t-79.5 -17.5q-27 0 -53 6t-67 20l-54 19q-27 9 -46 15t-33.5 9.5t-25.5 5t-20 1.5q-41 0 -62 -25.5
t-34 -65.5h-98q6 45 21 85t40.5 70t63 47.5t88.5 17.5q40 0 73.5 -9.5t65.5 -21.5l45 -19q29 -12 56.5 -19t39.5 -7q31 0 49.5 9t29.5 23t16 30.5t8 31.5h102z" />
    <glyph glyph-name="Adieresis" unicode="&#xc4;" horiz-adv-x="1366" 
d="M387 428l-154 -428h-204l553 1470h225l532 -1470h-217l-145 428h-590zM905 604l-217 647h-4l-235 -647h456zM610 1636h-186v209h186v-209zM942 1636h-186v209h186v-209z" />
    <glyph glyph-name="Aring" unicode="&#xc5;" horiz-adv-x="1366" 
d="M387 428l-154 -428h-204l553 1470h225l532 -1470h-217l-145 428h-590zM905 604l-217 647h-4l-235 -647h456zM684 1907q41 0 75.5 -14t59.5 -39.5t39 -60t14 -75.5t-14 -75t-39 -59.5t-59.5 -39.5t-75.5 -14t-75.5 14t-59.5 39.5t-39 59.5t-14 75t14 75.5t39 60t59.5 39.5
t75.5 14zM578 1718q0 -45 30.5 -75.5t75.5 -30.5q22 0 41.5 8.5t34 22.5t23 33.5t8.5 41.5t-8.5 42t-23 34t-34 22.5t-41.5 8.5t-41.5 -8.5t-33.5 -22.5t-22.5 -34t-8.5 -42z" />
    <glyph glyph-name="AE" unicode="&#xc6;" horiz-adv-x="2048" 
d="M231 0h-215l598 1470h1319v-176h-798v-450h729v-176h-729v-492h813v-176h-1012v428h-543zM936 1294h-199l-272 -690h471v690z" />
    <glyph glyph-name="Ccedilla" unicode="&#xc7;" horiz-adv-x="1479" 
d="M578 -334q38 -15 66 -23t67 -8q15 0 34.5 3t37 12t30 26t12.5 45q0 24 -11 39.5t-27 24.5t-32.5 12.5t-27.5 3.5q-14 0 -31 -3.5t-49 -12.5l-35 39l105 141q-120 4 -233 49t-200.5 139t-140.5 239.5t-53 350.5q0 170 47 311t135.5 242t215.5 157t288 56
q142 0 250.5 -40.5t183.5 -107.5t117 -154t53 -179h-192q-14 65 -40 112.5t-60 81.5t-73.5 55.5t-80.5 34t-82 17t-76 4.5q-100 0 -187.5 -36.5t-153 -109.5t-103 -182.5t-37.5 -254.5q0 -130 25 -242t82 -194.5t150 -129.5t230 -47q32 0 71 6t80 22.5t82 45t77 73.5
t64.5 108t45.5 149h193q-18 -120 -57 -209t-90 -152t-110 -103.5t-118 -64t-113 -34t-94 -13.5l-68 -92q17 3 30.5 5.5t33.5 2.5q50 0 83 -15t53 -37.5t28 -49.5t8 -51q0 -40 -16.5 -74.5t-47.5 -60t-76 -40t-102 -14.5t-106.5 14t-89.5 31z" />
    <glyph glyph-name=".notdef.123" unicode="&#xc8;" horiz-adv-x="1366" 
d="M1262 0h-1086v1470h1071v-176h-872v-450h805v-176h-805v-492h887v-176zM458 1903h221l182 -289h-137z" />
    <glyph glyph-name=".notdef.124" unicode="&#xc9;" horiz-adv-x="1366" 
d="M1262 0h-1086v1470h1071v-176h-872v-450h805v-176h-805v-492h887v-176zM692 1614h-137l182 289h221z" />
    <glyph glyph-name=".notdef.128" unicode="&#xca;" horiz-adv-x="1366" 
d="M1262 0h-1086v1470h1071v-176h-872v-450h805v-176h-805v-492h887v-176zM547 1614h-162l203 289h190l203 -289h-164l-135 190z" />
    <glyph glyph-name="Edieresis" unicode="&#xcb;" horiz-adv-x="1366" 
d="M1262 0h-1086v1470h1071v-176h-872v-450h805v-176h-805v-492h887v-176zM610 1636h-186v209h186v-209zM942 1636h-186v209h186v-209z" />
    <glyph glyph-name=".notdef.104" unicode="&#xcc;" horiz-adv-x="569" 
d="M385 0h-199v1470h199v-1470zM-27 1903h222l182 -289h-137z" />
    <glyph glyph-name=".notdef.103" unicode="&#xcd;" horiz-adv-x="569" 
d="M385 0h-199v1470h199v-1470zM324 1614h-137l182 289h221z" />
    <glyph glyph-name="Icircumflex" unicode="&#xce;" horiz-adv-x="569" 
d="M385 0h-199v1470h199v-1470zM150 1614h-162l202 289h191l203 -289h-164l-135 190z" />
    <glyph glyph-name="Idieresis" unicode="&#xcf;" horiz-adv-x="569" 
d="M385 0h-199v1470h199v-1470zM213 1636h-186v209h186v-209zM545 1636h-187v209h187v-209z" />
    <glyph glyph-name="Eth" unicode="&#xd0;" horiz-adv-x="1479" 
d="M758 668h-393v-498h385q97 0 175.5 37.5t134 110t86 179.5t30.5 246t-31 243.5t-88 174t-138.5 104.5t-183.5 35h-370v-456h393v-176zM0 844h166v626h596q144 0 258.5 -52t194.5 -146t122.5 -225.5t42.5 -290.5q0 -23 -2.5 -68t-11.5 -102.5t-27 -123.5t-48.5 -131
t-76.5 -125t-111 -105.5t-151 -73t-198 -27.5h-588v668h-166v176z" />
    <glyph glyph-name="Ntilde" unicode="&#xd1;" horiz-adv-x="1479" 
d="M1130 1470h193v-1470h-223l-748 1188h-4v-1188h-192v1470h235l735 -1187h4v1187zM1110 1878q-5 -46 -21.5 -86.5t-42.5 -71t-61.5 -48t-79.5 -17.5q-28 0 -53.5 6t-67.5 20l-53 19q-27 9 -46.5 15t-33.5 9.5t-25 5t-20 1.5q-41 0 -62.5 -25.5t-33.5 -65.5h-98
q6 45 20.5 85t40 70t63 47.5t89.5 17.5q40 0 73.5 -9.5t65.5 -21.5l45 -19q29 -12 56.5 -19t39.5 -7q31 0 49.5 9t29.5 23t16 30.5t8 31.5h102z" />
    <glyph glyph-name=".notdef.099" unicode="&#xd2;" horiz-adv-x="1593" 
d="M1309 735q0 130 -35 239.5t-101 189t-161 124.5t-215 45t-215 -45t-161 -124.5t-101 -189t-35 -239.5t35 -239.5t101 -189t161 -124.5t215 -45t215 45t161 124.5t101 189t35 239.5zM1513 735q0 -79 -15 -167.5t-48.5 -174.5t-88.5 -164t-134.5 -137.5t-186 -95
t-243.5 -35.5t-243.5 35.5t-186.5 95t-134.5 137.5t-88.5 164t-49 174.5t-15 167.5t15 167.5t49 174.5t88.5 164t134.5 138t186.5 95t243.5 35t243.5 -35t186 -95t134.5 -138t88.5 -164t48.5 -174.5t15 -167.5zM528 1903h222l182 -289h-137z" />
    <glyph glyph-name=".notdef.098" unicode="&#xd3;" horiz-adv-x="1593" 
d="M1309 735q0 130 -35 239.5t-101 189t-161 124.5t-215 45t-215 -45t-161 -124.5t-101 -189t-35 -239.5t35 -239.5t101 -189t161 -124.5t215 -45t215 45t161 124.5t101 189t35 239.5zM1513 735q0 -79 -15 -167.5t-48.5 -174.5t-88.5 -164t-134.5 -137.5t-186 -95
t-243.5 -35.5t-243.5 35.5t-186.5 95t-134.5 137.5t-88.5 164t-49 174.5t-15 167.5t15 167.5t49 174.5t88.5 164t134.5 138t186.5 95t243.5 35t243.5 -35t186 -95t134.5 -138t88.5 -164t48.5 -174.5t15 -167.5zM794 1614h-137l182 289h221z" />
    <glyph glyph-name=".notdef.094" unicode="&#xd4;" horiz-adv-x="1593" 
d="M1309 735q0 130 -35 239.5t-101 189t-161 124.5t-215 45t-215 -45t-161 -124.5t-101 -189t-35 -239.5t35 -239.5t101 -189t161 -124.5t215 -45t215 45t161 124.5t101 189t35 239.5zM1513 735q0 -79 -15 -167.5t-48.5 -174.5t-88.5 -164t-134.5 -137.5t-186 -95
t-243.5 -35.5t-243.5 35.5t-186.5 95t-134.5 137.5t-88.5 164t-49 174.5t-15 167.5t15 167.5t49 174.5t88.5 164t134.5 138t186.5 95t243.5 35t243.5 -35t186 -95t134.5 -138t88.5 -164t48.5 -174.5t15 -167.5zM662 1614h-162l202 289h191l203 -289h-164l-135 190z" />
    <glyph glyph-name=".notdef.096" unicode="&#xd5;" horiz-adv-x="1593" 
d="M1309 735q0 130 -35 239.5t-101 189t-161 124.5t-215 45t-215 -45t-161 -124.5t-101 -189t-35 -239.5t35 -239.5t101 -189t161 -124.5t215 -45t215 45t161 124.5t101 189t35 239.5zM1513 735q0 -79 -15 -167.5t-48.5 -174.5t-88.5 -164t-134.5 -137.5t-186 -95
t-243.5 -35.5t-243.5 35.5t-186.5 95t-134.5 137.5t-88.5 164t-49 174.5t-15 167.5t15 167.5t49 174.5t88.5 164t134.5 138t186.5 95t243.5 35t243.5 -35t186 -95t134.5 -138t88.5 -164t48.5 -174.5t15 -167.5zM1144 1878q-5 -46 -21.5 -86.5t-42.5 -71t-61.5 -48
t-79.5 -17.5q-28 0 -53.5 6t-67.5 20l-53 19q-27 9 -46.5 15t-33.5 9.5t-25 5t-20 1.5q-41 0 -62.5 -25.5t-33.5 -65.5h-98q6 45 20.5 85t40 70t63 47.5t89.5 17.5q40 0 73.5 -9.5t65.5 -21.5l45 -19q29 -12 56.5 -19t39.5 -7q31 0 49.5 9t29 23t15.5 30.5t8 31.5h103z" />
    <glyph glyph-name="Odieresis" unicode="&#xd6;" horiz-adv-x="1593" 
d="M1309 735q0 130 -35 239.5t-101 189t-161 124.5t-215 45t-215 -45t-161 -124.5t-101 -189t-35 -239.5t35 -239.5t101 -189t161 -124.5t215 -45t215 45t161 124.5t101 189t35 239.5zM1513 735q0 -79 -15 -167.5t-48.5 -174.5t-88.5 -164t-134.5 -137.5t-186 -95
t-243.5 -35.5t-243.5 35.5t-186.5 95t-134.5 137.5t-88.5 164t-49 174.5t-15 167.5t15 167.5t49 174.5t88.5 164t134.5 138t186.5 95t243.5 35t243.5 -35t186 -95t134.5 -138t88.5 -164t48.5 -174.5t15 -167.5zM725 1636h-186v209h186v-209zM1057 1636h-187v209h187v-209z
" />
    <glyph glyph-name="multiply" unicode="&#xd7;" horiz-adv-x="1196" 
d="M80 932l106 104l412 -411l414 411l104 -104l-411 -414l411 -414l-104 -104l-414 412l-414 -412l-104 104l414 414z" />
    <glyph glyph-name="Oslash" unicode="&#xd8;" horiz-adv-x="1593" 
d="M444 283q65 -70 153 -108t200 -38q120 0 215 45t161 124.5t101 189t35 239.5q0 112 -25.5 207.5t-75.5 169.5zM1155 1184q-65 71 -155.5 110t-202.5 39q-120 0 -215 -45t-161 -124.5t-101 -189t-35 -239.5q0 -112 26.5 -209t77.5 -176zM1346 1262q46 -59 77.5 -125.5
t51.5 -135t29 -136.5t9 -130q0 -79 -15 -167.5t-48.5 -174.5t-88.5 -164t-134.5 -137.5t-186 -95t-243.5 -35.5q-161 0 -281 49t-203 129l-163 -178l-66 57l170 185q-48 59 -81 126t-53.5 136t-30 138t-9.5 132q0 79 15 167.5t49 174.5t88.5 164t134.5 138t186.5 95
t243.5 35q166 0 287 -50t202 -132l166 182l64 -61z" />
    <glyph glyph-name=".notdef.088" unicode="&#xd9;" horiz-adv-x="1479" 
d="M1319 1470v-954q0 -113 -36 -214t-109 -176.5t-184.5 -120t-262.5 -44.5q-148 0 -255 44t-176 117.5t-101.5 168.5t-32.5 198v981h198v-925q0 -120 33 -199t86.5 -125.5t120 -65t133.5 -18.5q68 0 137 18t124.5 64t90.5 124t35 198v929h199zM480 1903h221l182 -289h-137z
" />
    <glyph glyph-name=".notdef.087" unicode="&#xda;" horiz-adv-x="1479" 
d="M1319 1470v-954q0 -113 -36 -214t-109 -176.5t-184.5 -120t-262.5 -44.5q-148 0 -255 44t-176 117.5t-101.5 168.5t-32.5 198v981h198v-925q0 -120 33 -199t86.5 -125.5t120 -65t133.5 -18.5q68 0 137 18t124.5 64t90.5 124t35 198v929h199zM733 1614h-137l182 289h222z
" />
    <glyph glyph-name="Ucircumflex" unicode="&#xdb;" horiz-adv-x="1479" 
d="M1319 1470v-954q0 -113 -36 -214t-109 -176.5t-184.5 -120t-262.5 -44.5q-148 0 -255 44t-176 117.5t-101.5 168.5t-32.5 198v981h198v-925q0 -120 33 -199t86.5 -125.5t120 -65t133.5 -18.5q68 0 137 18t124.5 64t90.5 124t35 198v929h199zM604 1614h-162l203 289h191
l202 -289h-164l-135 190z" />
    <glyph glyph-name="Udieresis" unicode="&#xdc;" horiz-adv-x="1479" 
d="M1319 1470v-954q0 -113 -36 -214t-109 -176.5t-184.5 -120t-262.5 -44.5q-148 0 -255 44t-176 117.5t-101.5 168.5t-32.5 198v981h198v-925q0 -120 33 -199t86.5 -125.5t120 -65t133.5 -18.5q68 0 137 18t124.5 64t90.5 124t35 198v929h199zM668 1636h-187v209h187v-209z
M999 1636h-186v209h186v-209z" />
    <glyph glyph-name=".notdef.070" unicode="&#xdd;" horiz-adv-x="1366" 
d="M782 0h-198v592l-555 878h231l422 -706l422 706h233l-555 -878v-592zM677 1614h-137l182 289h221z" />
    <glyph glyph-name="Thorn" unicode="&#xde;" horiz-adv-x="1366" 
d="M375 547h395q67 0 122 13.5t94.5 44t61 81t21.5 125.5q0 70 -22.5 117t-61.5 75.5t-92.5 41t-114.5 12.5h-403v-510zM176 1470h199v-243h463q102 0 183 -31t137 -86.5t86 -131.5t30 -165q0 -77 -23.5 -154.5t-75 -140t-134.5 -102t-203 -39.5h-463v-377h-199v1470z" />
    <glyph glyph-name="germandbls" unicode="&#xdf;" horiz-adv-x="1251" 
d="M137 1090q0 88 30.5 161.5t90.5 127t148.5 83t203.5 29.5q114 0 204.5 -26t154 -74.5t97.5 -116.5t34 -152q0 -74 -19.5 -126.5t-46.5 -87.5t-55.5 -56t-46.5 -33q57 -15 101 -52t74 -84t46 -99t16 -97q0 -136 -39.5 -234t-108.5 -161t-163.5 -93t-204.5 -30
q-22 0 -38 1.5t-28 3.5t-22 4.5t-20 5.5v153q45 -6 90 -6q168 0 258 75.5t90 231.5q0 81 -25 135.5t-70.5 88.5t-110 48.5t-142.5 14.5q-25 0 -43 -1.5t-37 -6.5v162l24.5 -3.5t22.5 -1.5q92 0 153.5 19t98 51.5t51.5 74.5t15 87q0 49 -19.5 91t-58.5 72.5t-97.5 48
t-136.5 17.5q-87 0 -143 -21t-89 -59t-46 -91.5t-13 -119.5v-1044h-180v1090z" />
    <glyph glyph-name=".notdef.066" unicode="&#xe0;" 
d="M127 745q3 96 35.5 164t89.5 110.5t137.5 62.5t179.5 20q21 0 59 -3t82.5 -13.5t90 -30t82.5 -53t60.5 -82.5t23.5 -117v-617q0 -34 15.5 -48.5t43.5 -14.5q12 0 28 2.5t31 5.5v-131q-23 -6 -45 -13t-53 -7q-60 0 -96.5 14t-56.5 37t-27.5 52t-9.5 60q-26 -28 -60.5 -59
t-81 -56.5t-107 -42t-138.5 -16.5q-74 0 -135.5 22.5t-106 63t-69.5 98t-25 126.5q0 22 3.5 53.5t14.5 65.5t32.5 68.5t57.5 64.5t89 52t128 31l297 37q16 1 33 6.5t30.5 19t22.5 37.5t9 64q0 85 -62 129.5t-190 44.5q-77 0 -123.5 -21t-72 -52t-36 -67t-14.5 -67h-166z
M786 547q-11 -9 -27 -16.5t-48 -15.5t-85 -16.5t-137 -19.5q-33 -5 -73 -13.5t-74.5 -27.5t-58 -50.5t-23.5 -82.5q0 -88 46.5 -137t148.5 -49q63 0 122.5 19t106 53t74.5 80t28 100v176zM296 1503h221l183 -289h-138z" />
    <glyph glyph-name=".notdef.065" unicode="&#xe1;" 
d="M127 745q3 96 35.5 164t89.5 110.5t137.5 62.5t179.5 20q21 0 59 -3t82.5 -13.5t90 -30t82.5 -53t60.5 -82.5t23.5 -117v-617q0 -34 15.5 -48.5t43.5 -14.5q12 0 28 2.5t31 5.5v-131q-23 -6 -45 -13t-53 -7q-60 0 -96.5 14t-56.5 37t-27.5 52t-9.5 60q-26 -28 -60.5 -59
t-81 -56.5t-107 -42t-138.5 -16.5q-74 0 -135.5 22.5t-106 63t-69.5 98t-25 126.5q0 22 3.5 53.5t14.5 65.5t32.5 68.5t57.5 64.5t89 52t128 31l297 37q16 1 33 6.5t30.5 19t22.5 37.5t9 64q0 85 -62 129.5t-190 44.5q-77 0 -123.5 -21t-72 -52t-36 -67t-14.5 -67h-166z
M786 547q-11 -9 -27 -16.5t-48 -15.5t-85 -16.5t-137 -19.5q-33 -5 -73 -13.5t-74.5 -27.5t-58 -50.5t-23.5 -82.5q0 -88 46.5 -137t148.5 -49q63 0 122.5 19t106 53t74.5 80t28 100v176zM567 1214h-137l183 289h221z" />
    <glyph glyph-name=".notdef.061" unicode="&#xe2;" 
d="M127 745q3 96 35.5 164t89.5 110.5t137.5 62.5t179.5 20q21 0 59 -3t82.5 -13.5t90 -30t82.5 -53t60.5 -82.5t23.5 -117v-617q0 -34 15.5 -48.5t43.5 -14.5q12 0 28 2.5t31 5.5v-131q-23 -6 -45 -13t-53 -7q-60 0 -96.5 14t-56.5 37t-27.5 52t-9.5 60q-26 -28 -60.5 -59
t-81 -56.5t-107 -42t-138.5 -16.5q-74 0 -135.5 22.5t-106 63t-69.5 98t-25 126.5q0 22 3.5 53.5t14.5 65.5t32.5 68.5t57.5 64.5t89 52t128 31l297 37q16 1 33 6.5t30.5 19t22.5 37.5t9 64q0 85 -62 129.5t-190 44.5q-77 0 -123.5 -21t-72 -52t-36 -67t-14.5 -67h-166z
M786 547q-11 -9 -27 -16.5t-48 -15.5t-85 -16.5t-137 -19.5q-33 -5 -73 -13.5t-74.5 -27.5t-58 -50.5t-23.5 -82.5q0 -88 46.5 -137t148.5 -49q63 0 122.5 19t106 53t74.5 80t28 100v176zM434 1214h-162l203 289h191l202 -289h-163l-136 191z" />
    <glyph glyph-name=".notdef.063" unicode="&#xe3;" 
d="M127 745q3 96 35.5 164t89.5 110.5t137.5 62.5t179.5 20q21 0 59 -3t82.5 -13.5t90 -30t82.5 -53t60.5 -82.5t23.5 -117v-617q0 -34 15.5 -48.5t43.5 -14.5q12 0 28 2.5t31 5.5v-131q-23 -6 -45 -13t-53 -7q-60 0 -96.5 14t-56.5 37t-27.5 52t-9.5 60q-26 -28 -60.5 -59
t-81 -56.5t-107 -42t-138.5 -16.5q-74 0 -135.5 22.5t-106 63t-69.5 98t-25 126.5q0 22 3.5 53.5t14.5 65.5t32.5 68.5t57.5 64.5t89 52t128 31l297 37q16 1 33 6.5t30.5 19t22.5 37.5t9 64q0 85 -62 129.5t-190 44.5q-77 0 -123.5 -21t-72 -52t-36 -67t-14.5 -67h-166z
M786 547q-11 -9 -27 -16.5t-48 -15.5t-85 -16.5t-137 -19.5q-33 -5 -73 -13.5t-74.5 -27.5t-58 -50.5t-23.5 -82.5q0 -88 46.5 -137t148.5 -49q63 0 122.5 19t106 53t74.5 80t28 100v176zM920 1479q-5 -46 -21.5 -87t-42.5 -71.5t-61.5 -48t-79.5 -17.5q-28 0 -53.5 6.5
t-67.5 20.5l-53 18q-27 9 -46 15t-33.5 9.5t-25.5 5t-20 1.5q-41 0 -62.5 -25t-33.5 -65h-98q6 45 20.5 85t40 70t63 47t89.5 17q40 0 73.5 -9t65.5 -21l45 -19q29 -12 56.5 -19.5t39.5 -7.5q31 0 49.5 9.5t29.5 23.5t16 30.5t8 31.5h102z" />
    <glyph glyph-name="adieresis" unicode="&#xe4;" 
d="M127 745q3 96 35.5 164t89.5 110.5t137.5 62.5t179.5 20q21 0 59 -3t82.5 -13.5t90 -30t82.5 -53t60.5 -82.5t23.5 -117v-617q0 -34 15.5 -48.5t43.5 -14.5q12 0 28 2.5t31 5.5v-131q-23 -6 -45 -13t-53 -7q-60 0 -96.5 14t-56.5 37t-27.5 52t-9.5 60q-26 -28 -60.5 -59
t-81 -56.5t-107 -42t-138.5 -16.5q-74 0 -135.5 22.5t-106 63t-69.5 98t-25 126.5q0 22 3.5 53.5t14.5 65.5t32.5 68.5t57.5 64.5t89 52t128 31l297 37q16 1 33 6.5t30.5 19t22.5 37.5t9 64q0 85 -62 129.5t-190 44.5q-77 0 -123.5 -21t-72 -52t-36 -67t-14.5 -67h-166z
M786 547q-11 -9 -27 -16.5t-48 -15.5t-85 -16.5t-137 -19.5q-33 -5 -73 -13.5t-74.5 -27.5t-58 -50.5t-23.5 -82.5q0 -88 46.5 -137t148.5 -49q63 0 122.5 19t106 53t74.5 80t28 100v176zM498 1237h-187v209h187v-209zM829 1237h-186v209h186v-209z" />
    <glyph glyph-name="aring" unicode="&#xe5;" 
d="M127 745q3 96 35.5 164t89.5 110.5t137.5 62.5t179.5 20q21 0 59 -3t82.5 -13.5t90 -30t82.5 -53t60.5 -82.5t23.5 -117v-617q0 -34 15.5 -48.5t43.5 -14.5q12 0 28 2.5t31 5.5v-131q-23 -6 -45 -13t-53 -7q-60 0 -96.5 14t-56.5 37t-27.5 52t-9.5 60q-26 -28 -60.5 -59
t-81 -56.5t-107 -42t-138.5 -16.5q-74 0 -135.5 22.5t-106 63t-69.5 98t-25 126.5q0 22 3.5 53.5t14.5 65.5t32.5 68.5t57.5 64.5t89 52t128 31l297 37q16 1 33 6.5t30.5 19t22.5 37.5t9 64q0 85 -62 129.5t-190 44.5q-77 0 -123.5 -21t-72 -52t-36 -67t-14.5 -67h-166z
M786 547q-11 -9 -27 -16.5t-48 -15.5t-85 -16.5t-137 -19.5q-33 -5 -73 -13.5t-74.5 -27.5t-58 -50.5t-23.5 -82.5q0 -88 46.5 -137t148.5 -49q63 0 122.5 19t106 53t74.5 80t28 100v176zM571 1548q41 0 75.5 -14t60 -39.5t39.5 -60t14 -74.5q0 -41 -14 -75.5t-39.5 -60
t-60 -39.5t-75.5 -14t-75 14t-59.5 39.5t-39.5 60t-14 75.5q0 40 14 74.5t39.5 60t59.5 39.5t75 14zM465 1360q0 -23 8.5 -42.5t22.5 -33.5t33.5 -22.5t41.5 -8.5t42 8.5t34 22.5t22.5 33.5t8.5 42.5q0 22 -8.5 41.5t-22.5 33.5t-34 22.5t-42 8.5q-45 0 -75.5 -30.5
t-30.5 -75.5z" />
    <glyph glyph-name="ae" unicode="&#xe6;" horiz-adv-x="1821" 
d="M1548 621q-4 62 -20.5 119.5t-51 102t-90 71t-137.5 26.5q-62 0 -116.5 -26.5t-94.5 -71t-63 -102t-23 -119.5h596zM1720 336q-2 -19 -13 -54.5t-33.5 -77.5t-57.5 -84.5t-86 -76.5q-18 -12 -42 -25.5t-57.5 -24t-80.5 -17.5t-111 -7q-96 0 -163.5 24.5t-113.5 59.5
t-73.5 73.5t-42.5 66.5q-39 -59 -85 -101.5t-100 -69.5t-116.5 -40t-134.5 -13q-74 0 -135.5 22.5t-106 63t-69.5 98t-25 126.5q0 22 3.5 53.5t14.5 65.5t32.5 68.5t57.5 64.5t89 52t128 31l297 37q16 1 33 6.5t30.5 19t22.5 37.5t9 64q0 85 -62 129.5t-190 44.5
q-77 0 -123.5 -21t-72 -52t-36 -67t-14.5 -67h-166q3 96 35.5 164t89.5 110.5t137.5 62.5t179.5 20q77 0 130.5 -12.5t92.5 -33.5t68 -48.5t58 -57.5q22 22 50 48.5t69.5 49.5t98.5 38.5t138 15.5q116 0 202.5 -44.5t144 -126t86 -197t28.5 -257.5h-783q0 -168 78 -260
t234 -92q64 0 114 21.5t85.5 54t55 69t21.5 66.5h180zM786 547q-11 -9 -27 -16.5t-48 -15.5t-85 -16.5t-137 -19.5q-33 -5 -73 -13.5t-74.5 -27.5t-58 -50.5t-23.5 -82.5q0 -88 46.5 -137t148.5 -49q63 0 122.5 19t106 53t74.5 80t28 100v176z" />
    <glyph glyph-name="ccedilla" unicode="&#xe7;" horiz-adv-x="1024" 
d="M352 -334q38 -15 66.5 -23t66.5 -8q15 0 34.5 3t37.5 12t30.5 26t12.5 45q0 24 -11.5 39.5t-27 24.5t-32.5 12.5t-27 3.5q-14 0 -31 -3.5t-49 -12.5l-35 39l111 149q-104 8 -185 51t-137 113.5t-85.5 164.5t-29.5 204q0 124 30.5 233t93.5 189.5t160 127t230 46.5
q105 0 179 -35t122 -91t72 -125.5t29 -139.5h-174q-17 107 -79 168t-175 61q-84 0 -140.5 -36.5t-91 -94t-49 -129.5t-14.5 -143q0 -46 4.5 -94.5t16.5 -94.5t32.5 -86.5t53 -71t78.5 -48t108 -17.5q45 0 86.5 16.5t75 49t58 79.5t36.5 109h174q-6 -60 -28.5 -127.5
t-67 -126t-114.5 -100t-171 -50.5l-76 -102q17 3 30.5 5.5t33.5 2.5q50 0 83 -15t53 -37.5t28 -49.5t8 -51q0 -40 -16.5 -74.5t-47.5 -60t-76 -40t-102 -14.5t-106.5 14t-90.5 31z" />
    <glyph glyph-name=".notdef.049" unicode="&#xe8;" 
d="M1042 336q-2 -19 -13 -54.5t-33.5 -77.5t-57.5 -84.5t-86 -76.5q-18 -12 -42 -25.5t-57.5 -24t-80.5 -17.5t-111 -7q-113 0 -202 40.5t-150.5 112t-94 170t-32.5 214.5q0 124 30.5 233t93.5 189.5t160 127t230 46.5q116 0 202.5 -44.5t144 -126t86 -197t28.5 -257.5h-783
q0 -168 78 -260t234 -92q64 0 114 21.5t85.5 54t55 69t21.5 66.5h180zM870 621q-4 62 -20 119.5t-50.5 102t-90.5 71t-138 26.5q-62 0 -116 -26.5t-94.5 -71t-63.5 -102t-23 -119.5h596zM323 1503h221l183 -289h-138z" />
    <glyph glyph-name=".notdef.048" unicode="&#xe9;" 
d="M1042 336q-2 -19 -13 -54.5t-33.5 -77.5t-57.5 -84.5t-86 -76.5q-18 -12 -42 -25.5t-57.5 -24t-80.5 -17.5t-111 -7q-113 0 -202 40.5t-150.5 112t-94 170t-32.5 214.5q0 124 30.5 233t93.5 189.5t160 127t230 46.5q116 0 202.5 -44.5t144 -126t86 -197t28.5 -257.5h-783
q0 -168 78 -260t234 -92q64 0 114 21.5t85.5 54t55 69t21.5 66.5h180zM870 621q-4 62 -20 119.5t-50.5 102t-90.5 71t-138 26.5q-62 0 -116 -26.5t-94.5 -71t-63.5 -102t-23 -119.5h596zM568 1214h-137l183 289h221z" />
    <glyph glyph-name=".notdef.044" unicode="&#xea;" 
d="M1042 336q-2 -19 -13 -54.5t-33.5 -77.5t-57.5 -84.5t-86 -76.5q-18 -12 -42 -25.5t-57.5 -24t-80.5 -17.5t-111 -7q-113 0 -202 40.5t-150.5 112t-94 170t-32.5 214.5q0 124 30.5 233t93.5 189.5t160 127t230 46.5q116 0 202.5 -44.5t144 -126t86 -197t28.5 -257.5h-783
q0 -168 78 -260t234 -92q64 0 114 21.5t85.5 54t55 69t21.5 66.5h180zM870 621q-4 62 -20 119.5t-50.5 102t-90.5 71t-138 26.5q-62 0 -116 -26.5t-94.5 -71t-63.5 -102t-23 -119.5h596zM434 1214h-162l203 289h191l202 -289h-163l-136 191z" />
    <glyph glyph-name="edieresis" unicode="&#xeb;" 
d="M1042 336q-2 -19 -13 -54.5t-33.5 -77.5t-57.5 -84.5t-86 -76.5q-18 -12 -42 -25.5t-57.5 -24t-80.5 -17.5t-111 -7q-113 0 -202 40.5t-150.5 112t-94 170t-32.5 214.5q0 124 30.5 233t93.5 189.5t160 127t230 46.5q116 0 202.5 -44.5t144 -126t86 -197t28.5 -257.5h-783
q0 -168 78 -260t234 -92q64 0 114 21.5t85.5 54t55 69t21.5 66.5h180zM870 621q-4 62 -20 119.5t-50.5 102t-90.5 71t-138 26.5q-62 0 -116 -26.5t-94.5 -71t-63.5 -102t-23 -119.5h596zM498 1237h-187v209h187v-209zM829 1237h-186v209h186v-209z" />
    <glyph glyph-name=".notdef.038" unicode="&#xec;" horiz-adv-x="569" 
d="M375 0h-180v1071h180v-1071zM-27 1503h222l182 -289h-137z" />
    <glyph glyph-name=".notdef.037" unicode="&#xed;" horiz-adv-x="569" 
d="M375 0h-180v1071h180v-1071zM309 1214h-137l182 289h221z" />
    <glyph glyph-name="icircumflex" unicode="&#xee;" horiz-adv-x="569" 
d="M375 0h-180v1071h180v-1071zM150 1214h-162l202 289h191l203 -289h-164l-135 191z" />
    <glyph glyph-name="idieresis" unicode="&#xef;" horiz-adv-x="569" 
d="M375 0h-180v1071h180v-1071zM213 1237h-186v209h186v-209zM545 1237h-187v209h187v-209z" />
    <glyph glyph-name="eth" unicode="&#xf0;" 
d="M258 520q0 -28 5 -68t17.5 -84t34.5 -87.5t56.5 -78t83 -56t114.5 -21.5q65 0 114 21.5t83.5 56t57 78t35 87.5t17.5 84t5 68t-5 68.5t-18 84.5t-35 87t-56.5 77.5t-83.5 56t-114 21.5q-66 0 -114.5 -21.5t-83 -56t-56.5 -77.5t-34.5 -87t-17.5 -84.5t-5 -68.5zM741 1323
q78 -72 139 -156t103 -175t64 -187.5t22 -194.5q0 -123 -21 -218t-57 -166.5t-84 -120.5t-102 -79t-110 -43.5t-109 -13.5q-135 0 -232 48t-159.5 126t-92.5 177t-30 200q0 102 30.5 200.5t89.5 176.5t147 126t202 48q25 0 57 -3t68 -14t73.5 -34t73.5 -62l4 5
q-18 43 -43.5 84.5t-55.5 78.5t-63 69t-65 58l-254 -127l-86 86l242 117q-86 66 -183 107l152 73q51 -20 97.5 -46t88.5 -58l217 104l97 -82z" />
    <glyph glyph-name="ntilde" unicode="&#xf1;" 
d="M1006 0h-181v659q0 70 -11 122.5t-37.5 88t-70.5 53t-110 17.5q-25 0 -56 -6t-62.5 -21.5t-61 -41.5t-52.5 -65.5t-37 -94.5t-14 -127v-584h-180v1071h170v-151h4q15 21 41 52.5t66 60t94 49t123 20.5q41 0 85 -6.5t86 -22.5t79 -43t65 -68.5t44 -99t16 -133.5v-729z
M899 1479q-5 -46 -21.5 -87t-42.5 -71.5t-61.5 -48t-79.5 -17.5q-28 0 -53.5 6.5t-67.5 20.5l-53 18q-27 9 -46 15t-33.5 9.5t-25.5 5t-20 1.5q-41 0 -62.5 -25t-33.5 -65h-98q6 45 20.5 85t40 70t63 47t89.5 17q40 0 73.5 -9t65.5 -21l45 -19q29 -12 56.5 -19.5t39.5 -7.5
q31 0 49.5 9.5t29.5 23.5t16 30.5t8 31.5h102z" />
    <glyph glyph-name=".notdef.033" unicode="&#xf2;" 
d="M72 537q0 69 13 137.5t40 131.5t67.5 117t95.5 94t125 62.5t156 22.5q85 0 155.5 -22.5t125.5 -62.5t96 -94t68 -117t40 -131.5t13 -137.5t-13 -138t-40 -132t-68 -117t-96 -94t-125.5 -62.5t-155.5 -22.5t-155.5 22.5t-125.5 62.5t-95.5 94t-67.5 117t-40 132t-13 138z
M258 537q0 -36 5 -80.5t18 -90t35.5 -88.5t57 -76.5t82.5 -54t113 -20.5q64 0 112.5 20.5t83 54t57 76.5t36 88.5t18.5 90t5 80.5t-5 80t-18.5 89.5t-36 88.5t-57 76.5t-83 54t-112.5 20.5t-112.5 -20.5t-83 -54t-57 -76.5t-35.5 -88.5t-18 -89.5t-5 -80zM296 1503h221
l183 -289h-138z" />
    <glyph glyph-name=".notdef.032" unicode="&#xf3;" 
d="M72 537q0 69 13 137.5t40 131.5t67.5 117t95.5 94t125 62.5t156 22.5q85 0 155.5 -22.5t125.5 -62.5t96 -94t68 -117t40 -131.5t13 -137.5t-13 -138t-40 -132t-68 -117t-96 -94t-125.5 -62.5t-155.5 -22.5t-155.5 22.5t-125.5 62.5t-95.5 94t-67.5 117t-40 132t-13 138z
M258 537q0 -36 5 -80.5t18 -90t35.5 -88.5t57 -76.5t82.5 -54t113 -20.5q64 0 112.5 20.5t83 54t57 76.5t36 88.5t18.5 90t5 80.5t-5 80t-18.5 89.5t-36 88.5t-57 76.5t-83 54t-112.5 20.5t-112.5 -20.5t-83 -54t-57 -76.5t-35.5 -88.5t-18 -89.5t-5 -80zM566 1214h-137
l183 289h221z" />
    <glyph glyph-name=".notdef.028" unicode="&#xf4;" 
d="M72 537q0 69 13 137.5t40 131.5t67.5 117t95.5 94t125 62.5t156 22.5q85 0 155.5 -22.5t125.5 -62.5t96 -94t68 -117t40 -131.5t13 -137.5t-13 -138t-40 -132t-68 -117t-96 -94t-125.5 -62.5t-155.5 -22.5t-155.5 22.5t-125.5 62.5t-95.5 94t-67.5 117t-40 132t-13 138z
M258 537q0 -36 5 -80.5t18 -90t35.5 -88.5t57 -76.5t82.5 -54t113 -20.5q64 0 112.5 20.5t83 54t57 76.5t36 88.5t18.5 90t5 80.5t-5 80t-18.5 89.5t-36 88.5t-57 76.5t-83 54t-112.5 20.5t-112.5 -20.5t-83 -54t-57 -76.5t-35.5 -88.5t-18 -89.5t-5 -80zM434 1214h-162
l203 289h191l202 -289h-163l-136 191z" />
    <glyph glyph-name=".notdef.030" unicode="&#xf5;" 
d="M72 537q0 69 13 137.5t40 131.5t67.5 117t95.5 94t125 62.5t156 22.5q85 0 155.5 -22.5t125.5 -62.5t96 -94t68 -117t40 -131.5t13 -137.5t-13 -138t-40 -132t-68 -117t-96 -94t-125.5 -62.5t-155.5 -22.5t-155.5 22.5t-125.5 62.5t-95.5 94t-67.5 117t-40 132t-13 138z
M258 537q0 -36 5 -80.5t18 -90t35.5 -88.5t57 -76.5t82.5 -54t113 -20.5q64 0 112.5 20.5t83 54t57 76.5t36 88.5t18.5 90t5 80.5t-5 80t-18.5 89.5t-36 88.5t-57 76.5t-83 54t-112.5 20.5t-112.5 -20.5t-83 -54t-57 -76.5t-35.5 -88.5t-18 -89.5t-5 -80zM920 1479
q-6 -46 -22 -87t-42.5 -71.5t-62 -48t-78.5 -17.5q-28 0 -54 6.5t-67 20.5l-53 18q-54 19 -80.5 25t-44.5 6q-42 0 -63 -25t-34 -65h-98q6 45 21 85t40.5 70t63 47t88.5 17q40 0 73.5 -9t65.5 -21l45 -19q29 -12 56.5 -19.5t40.5 -7.5q31 0 49.5 9.5t29 23.5t15.5 30.5
t8 31.5h103z" />
    <glyph glyph-name="odieresis" unicode="&#xf6;" 
d="M72 537q0 69 13 137.5t40 131.5t67.5 117t95.5 94t125 62.5t156 22.5q85 0 155.5 -22.5t125.5 -62.5t96 -94t68 -117t40 -131.5t13 -137.5t-13 -138t-40 -132t-68 -117t-96 -94t-125.5 -62.5t-155.5 -22.5t-155.5 22.5t-125.5 62.5t-95.5 94t-67.5 117t-40 132t-13 138z
M258 537q0 -36 5 -80.5t18 -90t35.5 -88.5t57 -76.5t82.5 -54t113 -20.5q64 0 112.5 20.5t83 54t57 76.5t36 88.5t18.5 90t5 80.5t-5 80t-18.5 89.5t-36 88.5t-57 76.5t-83 54t-112.5 20.5t-112.5 -20.5t-83 -54t-57 -76.5t-35.5 -88.5t-18 -89.5t-5 -80zM498 1237h-187v209
h187v-209zM829 1237h-186v209h186v-209z" />
    <glyph glyph-name="divide" unicode="&#xf7;" horiz-adv-x="1196" 
d="M80 442v150h1036v-150h-1036zM459 934q0 29 11.5 54.5t30.5 44t44 29.5t53 11t53.5 -11t44.5 -30t30 -44.5t11 -53.5q0 -26 -11 -51t-30 -44.5t-44.5 -31.5t-53.5 -12t-53 11t-44 30t-30.5 44t-11.5 54zM459 100q0 29 11.5 54.5t30.5 44.5t44 30t53 11t53.5 -11
t44.5 -30.5t30 -45t11 -53.5q0 -26 -11 -51t-30 -44.5t-44.5 -31.5t-53.5 -12t-53 11t-44 30t-30.5 44.5t-11.5 53.5z" />
    <glyph glyph-name="oslash" unicode="&#xf8;" horiz-adv-x="1251" 
d="M958 903q56 -77 82.5 -172t26.5 -194q0 -69 -13 -138t-40 -132t-68 -117t-96 -94t-125.5 -62.5t-155.5 -22.5q-105 0 -185.5 33t-139.5 90l-123 -139l-64 53l131 148q-58 78 -87 177.5t-29 203.5q0 69 13 137.5t40 131.5t67.5 117t95.5 94t125 62.5t156 22.5
q110 0 193 -35.5t143 -97.5l131 147l64 -53zM793 840q-36 46 -90.5 76t-133.5 30q-64 0 -112.5 -20.5t-83 -54t-57 -76.5t-35.5 -88.5t-18 -89.5t-5 -80q0 -26 2.5 -55.5t8.5 -61t15.5 -64t24.5 -63.5zM356 221q34 -42 86.5 -68t126.5 -26q64 0 112.5 20.5t83 54t57 76.5
t36 88.5t18.5 90t5 80.5q0 24 -2.5 51.5t-7.5 57t-13.5 59.5t-21.5 59z" />
    <glyph glyph-name=".notdef.022" unicode="&#xf9;" 
d="M831 0v156l-4 4q-28 -47 -60.5 -82.5t-73 -59.5t-91.5 -36.5t-115 -12.5q-59 0 -120.5 16t-112 54t-83 102t-32.5 160v770h180v-711q0 -66 16 -111t44 -72.5t65.5 -39.5t81.5 -12q85 0 142 34t91 86t48 115t14 121v590h180v-1071h-170zM293 1503h221l183 -289h-138z" />
    <glyph glyph-name=".notdef.021" unicode="&#xfa;" 
d="M831 0v156l-4 4q-28 -47 -60.5 -82.5t-73 -59.5t-91.5 -36.5t-115 -12.5q-59 0 -120.5 16t-112 54t-83 102t-32.5 160v770h180v-711q0 -66 16 -111t44 -72.5t65.5 -39.5t81.5 -12q85 0 142 34t91 86t48 115t14 121v590h180v-1071h-170zM579 1214h-137l183 289h221z" />
    <glyph glyph-name="ucircumflex" unicode="&#xfb;" 
d="M831 0v156l-4 4q-28 -47 -60.5 -82.5t-73 -59.5t-91.5 -36.5t-115 -12.5q-59 0 -120.5 16t-112 54t-83 102t-32.5 160v770h180v-711q0 -66 16 -111t44 -72.5t65.5 -39.5t81.5 -12q85 0 142 34t91 86t48 115t14 121v590h180v-1071h-170zM434 1214h-162l203 289h191
l202 -289h-163l-136 191z" />
    <glyph glyph-name="udieresis" unicode="&#xfc;" 
d="M831 0v156l-4 4q-28 -47 -60.5 -82.5t-73 -59.5t-91.5 -36.5t-115 -12.5q-59 0 -120.5 16t-112 54t-83 102t-32.5 160v770h180v-711q0 -66 16 -111t44 -72.5t65.5 -39.5t81.5 -12q85 0 142 34t91 86t48 115t14 121v590h180v-1071h-170zM498 1237h-187v209h187v-209z
M829 1237h-186v209h186v-209z" />
    <glyph glyph-name=".notdef.004" unicode="&#xfd;" horiz-adv-x="1024" 
d="M803 1071h198q-94 -264 -187.5 -525t-197.5 -526q-42 -108 -74 -184.5t-59 -127.5t-53.5 -80t-59 -43.5t-74 -18.5t-99.5 -4q-20 0 -37 5t-39 11v164q17 -6 44 -12t64 -6q36 0 58 7.5t41 33t39.5 74.5t52.5 132l-397 1100h204l285 -872h4zM540 1214h-137l182 289h221z
" />
    <glyph glyph-name="thorn" unicode="&#xfe;" 
d="M291 485q0 -107 29.5 -176.5t74 -110t95.5 -57t94 -16.5q73 0 127.5 31.5t90 87t53 131t17.5 164.5q0 34 -2.5 77t-11.5 87.5t-27.5 87t-51 76t-81.5 53.5t-118 20q-65 0 -112 -21.5t-79 -57.5t-51.5 -83t-29.5 -97.5t-13.5 -101.5t-3.5 -94zM119 1470h180v-546h4
q14 21 36.5 51.5t59 58.5t88.5 48t125 20q107 0 190 -41.5t140 -113.5t87 -169.5t30 -210.5q0 -64 -9.5 -133t-31.5 -135.5t-58 -126.5t-88 -105t-122.5 -71.5t-161.5 -26.5q-54 0 -98.5 12t-80 31.5t-62 45.5t-44.5 55h-4v-537h-180v1894z" />
    <glyph glyph-name="ydieresis" unicode="&#xff;" horiz-adv-x="1024" 
d="M803 1071h198q-94 -264 -187.5 -525t-197.5 -526q-42 -108 -74 -184.5t-59 -127.5t-53.5 -80t-59 -43.5t-74 -18.5t-99.5 -4q-20 0 -37 5t-39 11v164q17 -6 44 -12t64 -6q36 0 58 7.5t41 33t39.5 74.5t52.5 132l-397 1100h204l285 -872h4zM440 1237h-186v209h186v-209z
M772 1237h-186v209h186v-209z" />
    <glyph glyph-name=".notdef.117" unicode="&#x102;" horiz-adv-x="1366" 
d="M387 428l-154 -428h-204l553 1470h225l532 -1470h-217l-145 428h-590zM905 604l-217 647h-4l-235 -647h456zM480 1849q10 -45 29.5 -75.5t47.5 -49t63 -26.5t75 -8t74.5 8t62.5 26.5t48 49t30 75.5h100q-6 -57 -27.5 -108t-59.5 -89.5t-95 -61.5t-133 -23
q-77 0 -133.5 23t-95 61.5t-60 89.5t-27.5 108h101z" />
    <glyph glyph-name=".notdef.055" unicode="&#x103;" 
d="M127 745q3 96 35.5 164t89.5 110.5t137.5 62.5t179.5 20q21 0 59 -3t82.5 -13.5t90 -30t82.5 -53t60.5 -82.5t23.5 -117v-617q0 -34 15.5 -48.5t43.5 -14.5q12 0 28 2.5t31 5.5v-131q-23 -6 -45 -13t-53 -7q-60 0 -96.5 14t-56.5 37t-27.5 52t-9.5 60q-26 -28 -60.5 -59
t-81 -56.5t-107 -42t-138.5 -16.5q-74 0 -135.5 22.5t-106 63t-69.5 98t-25 126.5q0 22 3.5 53.5t14.5 65.5t32.5 68.5t57.5 64.5t89 52t128 31l297 37q16 1 33 6.5t30.5 19t22.5 37.5t9 64q0 85 -62 129.5t-190 44.5q-77 0 -123.5 -21t-72 -52t-36 -67t-14.5 -67h-166z
M786 547q-11 -9 -27 -16.5t-48 -15.5t-85 -16.5t-137 -19.5q-33 -5 -73 -13.5t-74.5 -27.5t-58 -50.5t-23.5 -82.5q0 -88 46.5 -137t148.5 -49q63 0 122.5 19t106 53t74.5 80t28 100v176zM358 1495q10 -45 29.5 -75.5t47.5 -49t63 -26.5t75 -8t74.5 8t62.5 26.5t48 49
t30 75.5h100q-6 -57 -27.5 -108t-59.5 -89.5t-95 -61.5t-133 -23q-77 0 -133.5 23t-95 61.5t-60 89.5t-27.5 108h101z" />
    <glyph glyph-name="Dslash" unicode="&#x110;" horiz-adv-x="1479" 
d="M758 668h-393v-498h385q97 0 175.5 37.5t134 110t86 179.5t30.5 246t-31 243.5t-88 174t-138.5 104.5t-183.5 35h-370v-456h393v-176zM0 844h166v626h596q144 0 258.5 -52t194.5 -146t122.5 -225.5t42.5 -290.5q0 -23 -2.5 -68t-11.5 -102.5t-27 -123.5t-48.5 -131
t-76.5 -125t-111 -105.5t-151 -73t-198 -27.5h-588v668h-166v176z" />
    <glyph glyph-name=".notdef.101" unicode="&#x128;" horiz-adv-x="569" 
d="M385 0h-199v1470h199v-1470zM633 1878q-5 -46 -21.5 -86.5t-42.5 -71t-61.5 -48t-79.5 -17.5q-27 0 -53 6t-67 20l-54 19q-27 9 -46 15t-33.5 9.5t-25.5 5t-20 1.5q-41 0 -62 -25.5t-34 -65.5h-98q6 45 21 85t40.5 70t63 47.5t88.5 17.5q40 0 73.5 -9.5t65.5 -21.5
l45 -19q29 -12 56.5 -19t39.5 -7q31 0 49.5 9t29.5 23t16 30.5t8 31.5h102z" />
    <glyph glyph-name=".notdef.035" unicode="&#x129;" horiz-adv-x="455" 
d="M317 0h-180v1071h180v-1071zM581 1479q-5 -46 -21.5 -87t-42.5 -71.5t-61.5 -48t-79.5 -17.5q-28 0 -53.5 6.5t-67.5 20.5l-53 18q-27 9 -46 15t-33.5 9.5t-25.5 5t-20 1.5q-41 0 -62.5 -25t-33.5 -65h-98q6 45 20.5 85t40 70t63 47t89.5 17q40 0 73.5 -9t65.5 -21
l45 -19q29 -12 56.5 -19.5t39.5 -7.5q31 0 49.5 9.5t29.5 23.5t16 30.5t8 31.5h102z" />
    <glyph glyph-name=".notdef.102" unicode="&#x1ec8;" horiz-adv-x="569" 
d="M385 1470h-199v-1470h199v1470zM345 1612h-117q-1 62 15.5 108t75 87t58.5 93q0 49 -27 70.5t-62 21.5q-55 0 -76.5 -31t-21.5 -76l-131 -2q0 111 72 168q61 49 149 49q78 0 138 -30q98 -52 98 -166q0 -54 -25.5 -90.5t-86 -79.5t-59.5 -122z" />
    <glyph glyph-name=".notdef.036" unicode="&#x1ec9;" horiz-adv-x="455" 
d="M317 1071h-180v-1071h180v1071zM287 1214h-117q-1 62 15.5 108t75 87t58.5 93q0 49 -27 70.5t-62 21.5q-55 0 -76.5 -31t-21.5 -76l-131 -2q0 111 72 168q61 49 149 49q78 0 138 -30q98 -52 98 -166q0 -54 -25.5 -90.5t-86 -79.5t-59.5 -122z" />
    <glyph glyph-name=".notdef.100" unicode="&#x1eca;" horiz-adv-x="569" 
d="M385 0h-199v1470h199v-1470zM391 -380h-213v217h213v-217z" />
    <glyph glyph-name=".notdef.034" unicode="&#x1ecb;" horiz-adv-x="455" 
d="M317 0h-180v1071h180v-1071zM137 1266v204h180v-204h-180zM333 -380h-213v217h213v-217z" />
    <glyph glyph-name=".notdef.077" unicode="&#x1a0;" horiz-adv-x="1666" 
d="M1309 735q0 130 -35 239.5t-101 189t-161 124.5t-215 45t-215 -45t-161 -124.5t-101 -189t-35 -239.5t35 -239.5t101 -189t161 -124.5t215 -45t215 45t161 124.5t101 189t35 239.5zM1513 735q0 -79 -15 -167.5t-48.5 -174.5t-88.5 -164t-134.5 -137.5t-186 -95
t-243.5 -35.5t-243.5 35.5t-186.5 95t-134.5 137.5t-88.5 164t-49 174.5t-15 167.5t15 167.5t49 174.5t88.5 164t134.5 138t186.5 95t243.5 35t243.5 -35t186 -95t134.5 -138t88.5 -164t48.5 -174.5t15 -167.5zM1387 1471h200v-169q0 -63 -12 -103t-44.5 -65.5t-89.5 -40
t-147 -25.5v81q59 4 97.5 11.5t60.5 22.5t31 40t10 65h-106v183z" />
    <glyph glyph-name=".notdef.011" unicode="&#x1a1;" horiz-adv-x="1289" 
d="M72 537q0 69 13 137.5t40 131.5t67.5 117t95.5 94t125 62.5t156 22.5q85 0 155.5 -22.5t125.5 -62.5t96 -94t68 -117t40 -131.5t13 -137.5t-13 -138t-40 -132t-68 -117t-96 -94t-125.5 -62.5t-155.5 -22.5t-155.5 22.5t-125.5 62.5t-95.5 94t-67.5 117t-40 132t-13 138z
M258 537q0 -36 5 -80.5t18 -90t35.5 -88.5t57 -76.5t82.5 -54t113 -20.5q64 0 112.5 20.5t83 54t57 76.5t36 88.5t18.5 90t5 80.5t-5 80t-18.5 89.5t-36 88.5t-57 76.5t-83 54t-112.5 20.5t-112.5 -20.5t-83 -54t-57 -76.5t-35.5 -88.5t-18 -89.5t-5 -80zM1009 1072h200
v-169q0 -63 -12 -103t-44.5 -65.5t-89.5 -40t-147 -25.5v81q59 4 97.5 11.5t60.5 22.5t31 40t10 65h-106v183z" />
    <glyph glyph-name=".notdef.095" unicode="&#x1ecc;" horiz-adv-x="1593" 
d="M1309 735q0 130 -35 239.5t-101 189t-161 124.5t-215 45t-215 -45t-161 -124.5t-101 -189t-35 -239.5t35 -239.5t101 -189t161 -124.5t215 -45t215 45t161 124.5t101 189t35 239.5zM1513 735q0 -79 -15 -167.5t-48.5 -174.5t-88.5 -164t-134.5 -137.5t-186 -95
t-243.5 -35.5t-243.5 35.5t-186.5 95t-134.5 137.5t-88.5 164t-49 174.5t-15 167.5t15 167.5t49 174.5t88.5 164t134.5 138t186.5 95t243.5 35t243.5 -35t186 -95t134.5 -138t88.5 -164t48.5 -174.5t15 -167.5zM910 -380h-213v217h213v-217z" />
    <glyph glyph-name=".notdef.029" unicode="&#x1ecd;" 
d="M72 537q0 69 13 137.5t40 131.5t67.5 117t95.5 94t125 62.5t156 22.5q85 0 155.5 -22.5t125.5 -62.5t96 -94t68 -117t40 -131.5t13 -137.5t-13 -138t-40 -132t-68 -117t-96 -94t-125.5 -62.5t-155.5 -22.5t-155.5 22.5t-125.5 62.5t-95.5 94t-67.5 117t-40 132t-13 138z
M258 537q0 -36 5 -80.5t18 -90t35.5 -88.5t57 -76.5t82.5 -54t113 -20.5q64 0 112.5 20.5t83 54t57 76.5t36 88.5t18.5 90t5 80.5t-5 80t-18.5 89.5t-36 88.5t-57 76.5t-83 54t-112.5 20.5t-112.5 -20.5t-83 -54t-57 -76.5t-35.5 -88.5t-18 -89.5t-5 -80zM678 -380h-213v217
h213v-217z" />
    <glyph glyph-name=".notdef.097" unicode="&#x1ece;" horiz-adv-x="1593" 
d="M1309 735q0 -130 -35 -239.5t-101 -189t-161 -124.5t-215 -45t-215 45t-161 124.5t-101 189t-35 239.5t35 239.5t101 189t161 124.5t215 45t215 -45t161 -124.5t101 -189t35 -239.5zM1513 735q0 79 -15 167.5t-48.5 174.5t-88.5 164t-134.5 138t-186 95t-243.5 35
t-243.5 -35t-186.5 -95t-134.5 -138t-88.5 -164t-49 -174.5t-15 -167.5t15 -167.5t49 -174.5t88.5 -164t134.5 -137.5t186.5 -95t243.5 -35.5t243.5 35.5t186 95t134.5 137.5t88.5 164t48.5 174.5t15 167.5zM850 1612h-117q-1 62 15.5 108t75 87t58.5 93q0 49 -27 70.5
t-62 21.5q-55 0 -76.5 -31t-21.5 -76l-131 -2q0 111 72 168q61 49 149 49q78 0 138 -30q98 -52 98 -166q0 -54 -25.5 -90.5t-86 -79.5t-59.5 -122z" />
    <glyph glyph-name=".notdef.031" unicode="&#x1ecf;" 
d="M72 537q0 -69 13 -138t40 -132t67.5 -117t95.5 -94t125.5 -62.5t155.5 -22.5t155.5 22.5t125.5 62.5t96 94t68 117t40 132t13 138t-13 137.5t-40 131.5t-68 117t-96 94t-125.5 62.5t-155.5 22.5q-86 0 -156 -22.5t-125 -62.5t-95.5 -94t-67.5 -117t-40 -131.5t-13 -137.5
zM258 537q0 36 5 80t18 89.5t35.5 88.5t57 76.5t83 54t112.5 20.5t112.5 -20.5t83 -54t57 -76.5t36 -88.5t18.5 -89.5t5 -80t-5 -80.5t-18.5 -90t-36 -88.5t-57 -76.5t-83 -54t-112.5 -20.5q-65 0 -113 20.5t-82.5 54t-57 76.5t-35.5 88.5t-18 90t-5 80.5zM629 1214h-117
q-1 62 15.5 108t75 87t58.5 93q0 49 -27 70.5t-62 21.5q-55 0 -76.5 -31t-21.5 -76l-131 -2q0 111 72 168q61 49 149 49q78 0 138 -30q98 -52 98 -166q0 -54 -25.5 -90.5t-86 -79.5t-59.5 -122z" />
    <glyph glyph-name=".notdef.085" unicode="&#x168;" horiz-adv-x="1479" 
d="M1319 1470v-954q0 -113 -36 -214t-109 -176.5t-184.5 -120t-262.5 -44.5q-148 0 -255 44t-176 117.5t-101.5 168.5t-32.5 198v981h198v-925q0 -120 33 -199t86.5 -125.5t120 -65t133.5 -18.5q68 0 137 18t124.5 64t90.5 124t35 198v929h199zM1094 1878
q-5 -46 -21.5 -86.5t-42.5 -71t-61.5 -48t-79.5 -17.5q-27 0 -53 6t-67 20l-54 19q-27 9 -46 15t-33.5 9.5t-25.5 5t-20 1.5q-41 0 -62 -25.5t-34 -65.5h-98q6 45 21 85t40.5 70t63 47.5t88.5 17.5q40 0 73.5 -9.5t65.5 -21.5l45 -19q29 -12 56.5 -19t39.5 -7q31 0 49.5 9
t29.5 23t16 30.5t8 31.5h102z" />
    <glyph glyph-name=".notdef.019" unicode="&#x169;" 
d="M831 0v156l-4 4q-28 -47 -60.5 -82.5t-73 -59.5t-91.5 -36.5t-115 -12.5q-59 0 -120.5 16t-112 54t-83 102t-32.5 160v770h180v-711q0 -66 16 -111t44 -72.5t65.5 -39.5t81.5 -12q85 0 142 34t91 86t48 115t14 121v590h180v-1071h-170zM931 1479q-5 -46 -21.5 -87
t-42.5 -71.5t-61.5 -48t-79.5 -17.5q-28 0 -53.5 6.5t-67.5 20.5l-53 18q-27 9 -46 15t-33.5 9.5t-25.5 5t-20 1.5q-41 0 -62.5 -25t-33.5 -65h-98q6 45 20.5 85t40 70t63 47t89.5 17q40 0 73.5 -9t65.5 -21l45 -19q29 -12 56.5 -19.5t39.5 -7.5q31 0 49.5 9.5t29.5 23.5
t16 30.5t8 31.5h102z" />
    <glyph glyph-name=".notdef.083" unicode="&#x1af;" horiz-adv-x="1667" 
d="M1319 1470v-954q0 -113 -36 -214t-109 -176.5t-184.5 -120t-262.5 -44.5q-148 0 -255 44t-176 117.5t-101.5 168.5t-32.5 198v981h198v-925q0 -120 33 -199t86.5 -125.5t120 -65t133.5 -18.5q68 0 137 18t124.5 64t90.5 124t35 198v929h199zM1387 1471h200v-169
q0 -63 -12 -103t-44.5 -65.5t-89.5 -40t-147 -25.5v81q59 4 97.5 11.5t60.5 22.5t31 40t10 65h-106v183z" />
    <glyph glyph-name=".notdef.017" unicode="&#x1b0;" horiz-adv-x="1329" 
d="M831 0v156l-4 4q-28 -47 -60.5 -82.5t-73 -59.5t-91.5 -36.5t-115 -12.5q-59 0 -120.5 16t-112 54t-83 102t-32.5 160v770h180v-711q0 -66 16 -111t44 -72.5t65.5 -39.5t81.5 -12q85 0 142 34t91 86t48 115t14 121v590h180v-1071h-170zM1066 1072h200v-169
q0 -63 -12 -103t-44.5 -65.5t-89.5 -40t-147 -25.5v81q59 4 97.5 11.5t60.5 22.5t31 40t10 65h-106v183z" />
    <glyph glyph-name=".notdef.084" unicode="&#x1ee4;" horiz-adv-x="1479" 
d="M1319 1470v-954q0 -113 -36 -214t-109 -176.5t-184.5 -120t-262.5 -44.5q-148 0 -255 44t-176 117.5t-101.5 168.5t-32.5 198v981h198v-925q0 -120 33 -199t86.5 -125.5t120 -65t133.5 -18.5q68 0 137 18t124.5 64t90.5 124t35 198v929h199zM834 -380h-213v217h213v-217z
" />
    <glyph glyph-name=".notdef.018" unicode="&#x1ee5;" 
d="M831 0v156l-4 4q-28 -47 -60.5 -82.5t-73 -59.5t-91.5 -36.5t-115 -12.5q-59 0 -120.5 16t-112 54t-83 102t-32.5 160v770h180v-711q0 -66 16 -111t44 -72.5t65.5 -39.5t81.5 -12q85 0 142 34t91 86t48 115t14 121v590h180v-1071h-170zM670 -380h-213v217h213v-217z" />
    <glyph glyph-name=".notdef.086" unicode="&#x1ee6;" horiz-adv-x="1479" 
d="M1120 1470v-929q0 -120 -35 -198t-90.5 -124t-124.5 -64t-137 -18q-67 0 -133.5 18.5t-120 65t-86.5 125.5t-33 199v925h-198v-981q0 -103 32.5 -198t101.5 -168.5t176 -117.5t255 -44q151 0 262.5 44.5t184.5 120t109 176.5t36 214v954h-199zM808 1612h-117
q-1 62 15.5 108t75 87t58.5 93q0 49 -27 70.5t-62 21.5q-55 0 -76.5 -31t-21.5 -76l-131 -2q0 111 72 168q61 49 149 49q78 0 138 -30q98 -52 98 -166q0 -54 -25.5 -90.5t-86 -79.5t-59.5 -122z" />
    <glyph glyph-name=".notdef.020" unicode="&#x1ee7;" 
d="M1001 0v1071h-180v-590q0 -58 -14 -121t-48 -115t-91 -86t-142 -34q-44 0 -81.5 12t-65.5 39.5t-44 72.5t-16 111v711h-180v-770q0 -96 32.5 -160t83 -102t112 -54t120.5 -16q64 0 115 12.5t91.5 36.5t73 59.5t60.5 82.5l4 -4v-156h170zM629 1214h-117q-1 62 15.5 108
t75 87t58.5 93q0 49 -27 70.5t-62 21.5q-55 0 -76.5 -31t-21.5 -76l-131 -2q0 111 72 168q61 49 149 49q78 0 138 -30q98 -52 98 -166q0 -54 -25.5 -90.5t-86 -79.5t-59.5 -122z" />
    <glyph glyph-name=".notdef.127" unicode="&#x1eb8;" horiz-adv-x="1366" 
d="M1262 0h-1086v1470h1071v-176h-872v-450h805v-176h-805v-492h887v-176zM797 -380h-213v217h213v-217z" />
    <glyph glyph-name=".notdef.045" unicode="&#x1eb9;" 
d="M1042 336q-2 -19 -13 -54.5t-33.5 -77.5t-57.5 -84.5t-86 -76.5q-18 -12 -42 -25.5t-57.5 -24t-80.5 -17.5t-111 -7q-113 0 -202 40.5t-150.5 112t-94 170t-32.5 214.5q0 124 30.5 233t93.5 189.5t160 127t230 46.5q116 0 202.5 -44.5t144 -126t86 -197t28.5 -257.5h-783
q0 -168 78 -260t234 -92q64 0 114 21.5t85.5 54t55 69t21.5 66.5h180zM870 621q-4 62 -20 119.5t-50.5 102t-90.5 71t-138 26.5q-62 0 -116 -26.5t-94.5 -71t-63.5 -102t-23 -119.5h596zM675 -380h-213v217h213v-217z" />
    <glyph glyph-name=".notdef.125" unicode="&#x1eba;" horiz-adv-x="1366" 
d="M1262 176h-887v492h805v176h-805v450h872v176h-1071v-1470h1086v176zM755 1612h-117q-1 62 15.5 108t75 87t58.5 93q0 49 -27 70.5t-62 21.5q-55 0 -76.5 -31t-21.5 -76l-131 -2q0 111 72 168q61 49 149 49q78 0 138 -30q98 -52 98 -166q0 -54 -25.5 -90.5t-86 -79.5
t-59.5 -122z" />
    <glyph glyph-name=".notdef.047" unicode="&#x1ebb;" 
d="M862 336q-2 -30 -21.5 -66.5t-55 -69t-85.5 -54t-114 -21.5q-156 0 -234 92t-78 260h783q0 142 -28.5 257.5t-86 197t-144 126t-202.5 44.5q-133 0 -230 -46.5t-160 -127t-93.5 -189.5t-30.5 -233q0 -116 32.5 -214.5t94 -170t150.5 -112t202 -40.5q64 0 111 7t80.5 17.5
t57.5 24t42 25.5q51 34 86 76.5t57.5 84.5t33.5 77.5t13 54.5h-180zM274 621q0 62 23 119.5t63.5 102t94.5 71t116 26.5q82 0 138 -26.5t90.5 -71t50.5 -102t20 -119.5h-596zM645 1214h-117q-1 62 15.5 108t75 87t58.5 93q0 49 -27 70.5t-62 21.5q-55 0 -76.5 -31t-21.5 -76
l-131 -2q0 111 72 168q61 49 149 49q78 0 138 -30q98 -52 98 -166q0 -54 -25.5 -90.5t-86 -79.5t-59.5 -122z" />
    <glyph glyph-name=".notdef.126" unicode="&#x1ebc;" horiz-adv-x="1366" 
d="M1262 0h-1086v1470h1071v-176h-872v-450h805v-176h-805v-492h887v-176zM1048 1878q-5 -46 -21.5 -86.5t-42.5 -71t-61.5 -48t-79.5 -17.5q-27 0 -53 6t-67 20l-54 19q-27 9 -46 15t-33.5 9.5t-25.5 5t-20 1.5q-41 0 -62 -25.5t-34 -65.5h-98q6 45 21 85t40.5 70t63 47.5
t88.5 17.5q40 0 73.5 -9.5t65.5 -21.5l45 -19q29 -12 56.5 -19t39.5 -7q31 0 49.5 9t29.5 23t16 30.5t8 31.5h102z" />
    <glyph glyph-name=".notdef.046" unicode="&#x1ebd;" 
d="M1042 336q-2 -19 -13 -54.5t-33.5 -77.5t-57.5 -84.5t-86 -76.5q-18 -12 -42 -25.5t-57.5 -24t-80.5 -17.5t-111 -7q-113 0 -202 40.5t-150.5 112t-94 170t-32.5 214.5q0 124 30.5 233t93.5 189.5t160 127t230 46.5q116 0 202.5 -44.5t144 -126t86 -197t28.5 -257.5h-783
q0 -168 78 -260t234 -92q64 0 114 21.5t85.5 54t55 69t21.5 66.5h180zM870 621q-4 62 -20 119.5t-50.5 102t-90.5 71t-138 26.5q-62 0 -116 -26.5t-94.5 -71t-63.5 -102t-23 -119.5h596zM930 1479q-5 -46 -21.5 -87t-42.5 -71.5t-61.5 -48t-79.5 -17.5q-28 0 -53.5 6.5
t-67.5 20.5l-53 18q-27 9 -46 15t-33.5 9.5t-25.5 5t-20 1.5q-41 0 -62.5 -25t-33.5 -65h-98q6 45 20.5 85t40 70t63 47t89.5 17q40 0 73.5 -9t65.5 -21l45 -19q29 -12 56.5 -19.5t39.5 -7.5q31 0 49.5 9.5t29.5 23.5t16 30.5t8 31.5h102z" />
    <glyph glyph-name=".notdef.071" unicode="&#x1ef2;" horiz-adv-x="1366" 
d="M782 0h-198v592l-555 878h231l422 -706l422 706h233l-555 -878v-592zM428 1903h221l182 -289h-137z" />
    <glyph glyph-name=".notdef.005" unicode="&#x1ef3;" horiz-adv-x="1024" 
d="M803 1071h198q-94 -264 -187.5 -525t-197.5 -526q-42 -108 -74 -184.5t-59 -127.5t-53.5 -80t-59 -43.5t-74 -18.5t-99.5 -4q-20 0 -37 5t-39 11v164q17 -6 44 -12t64 -6q36 0 58 7.5t41 33t39.5 74.5t52.5 132l-397 1100h204l285 -872h4zM239 1503h221l183 -289h-138z
" />
    <glyph glyph-name=".notdef.067" unicode="&#x1ef4;" horiz-adv-x="1366" 
d="M782 0h-198v592l-555 878h231l422 -706l422 706h233l-555 -878v-592zM795 -380h-213v217h213v-217z" />
    <glyph glyph-name=".notdef.001" unicode="&#x1ef5;" horiz-adv-x="1024" 
d="M803 1071h198q-94 -264 -187.5 -525t-197.5 -526q-42 -108 -74 -184.5t-59 -127.5t-53.5 -80t-59 -43.5t-74 -18.5t-99.5 -4q-20 0 -37 5t-39 11v164q17 -6 44 -12t64 -6q36 0 58 7.5t41 33t39.5 74.5t52.5 132l-397 1100h204l285 -872h4zM871 -380h-213v217h213v-217z
" />
    <glyph glyph-name=".notdef.069" unicode="&#x1ef6;" horiz-adv-x="1366" 
d="M782 592l555 878h-233l-422 -706l-422 706h-231l555 -878v-592h198v592zM755 1612h-117q-1 62 15.5 108t75 87t58.5 93q0 49 -27 70.5t-62 21.5q-55 0 -76.5 -31t-21.5 -76l-131 -2q0 111 72 168q61 49 149 49q78 0 138 -30q98 -52 98 -166q0 -54 -25.5 -90.5t-86 -79.5
t-59.5 -122z" />
    <glyph glyph-name=".notdef.003" unicode="&#x1ef7;" horiz-adv-x="1024" 
d="M516 199h-4l-285 872h-204l397 -1100q-32 -83 -52.5 -132t-39.5 -74.5t-41 -33t-58 -7.5q-37 0 -64 6t-44 12v-164q22 -6 39 -11t37 -5q58 0 99.5 4t74 18.5t59 43.5t53.5 80t59 127.5t74 184.5q104 265 197.5 526t187.5 525h-198zM587 1214h-117q-1 62 15.5 108t75 87
t58.5 93q0 49 -27 70.5t-62 21.5q-55 0 -76.5 -31t-21.5 -76l-131 -2q0 111 72 168q61 49 149 49q78 0 138 -30q98 -52 98 -166q0 -54 -25.5 -90.5t-86 -79.5t-59.5 -122z" />
    <glyph glyph-name=".notdef.068" unicode="&#x1ef8;" horiz-adv-x="1366" 
d="M782 0h-198v592l-555 878h231l422 -706l422 706h233l-555 -878v-592zM1033 1878q-5 -46 -21.5 -86.5t-42.5 -71t-61.5 -48t-79.5 -17.5q-27 0 -53 6t-67 20l-54 19q-27 9 -46 15t-33.5 9.5t-25.5 5t-20 1.5q-41 0 -62 -25.5t-34 -65.5h-98q6 45 21 85t40.5 70t63 47.5
t88.5 17.5q40 0 73.5 -9.5t65.5 -21.5l45 -19q29 -12 56.5 -19t39.5 -7q31 0 49.5 9t29.5 23t16 30.5t8 31.5h102z" />
    <glyph glyph-name=".notdef.002" unicode="&#x1ef9;" horiz-adv-x="1024" 
d="M803 1071h198q-94 -264 -187.5 -525t-197.5 -526q-42 -108 -74 -184.5t-59 -127.5t-53.5 -80t-59 -43.5t-74 -18.5t-99.5 -4q-20 0 -37 5t-39 11v164q17 -6 44 -12t64 -6q36 0 58 7.5t41 33t39.5 74.5t52.5 132l-397 1100h204l285 -872h4zM861 1479q-5 -46 -21.5 -87
t-42.5 -71.5t-61.5 -48t-79.5 -17.5q-28 0 -53.5 6.5t-67.5 20.5l-53 18q-27 9 -46 15t-33.5 9.5t-25.5 5t-20 1.5q-41 0 -62.5 -25t-33.5 -65h-98q6 45 20.5 85t40 70t63 47t89.5 17q40 0 73.5 -9t65.5 -21l45 -19q29 -12 56.5 -19.5t39.5 -7.5q31 0 49.5 9.5t29.5 23.5
t16 30.5t8 31.5h102z" />
    <glyph glyph-name="dcroat" unicode="&#x111;" 
d="M1022 0h-170v147h-4q-29 -54 -66 -89t-77 -54.5t-81.5 -27t-80.5 -7.5q-91 0 -161.5 26.5t-123 71.5t-88 105t-57.5 126.5t-31.5 135.5t-9.5 133q0 113 29.5 210.5t86.5 169.5t140 113.5t190 41.5q73 0 126 -20t91 -48.5t62.5 -59.5t40.5 -54l4 14v536h180v-1470z
M258 539q0 -89 17.5 -164.5t53 -131t90 -87t128.5 -31.5q43 0 94 16.5t95.5 57t74 110t29.5 176.5q0 43 -3.5 94t-14 101.5t-29.5 97.5t-51.5 83t-79 57.5t-111.5 21.5q-70 0 -118.5 -20t-81.5 -53.5t-51.5 -76t-27.5 -87t-11.5 -87.5t-2.5 -77zM1145 1196h-609v172h609
v-172z" />
    <glyph glyph-name=".notdef.110" unicode="&#x1ea0;" horiz-adv-x="1366" 
d="M387 428l-154 -428h-204l553 1470h225l532 -1470h-217l-145 428h-590zM905 604l-217 647h-4l-235 -647h456zM792 -380h-213v217h213v-217z" />
    <glyph glyph-name=".notdef.062" unicode="&#x1ea1;" 
d="M127 745q3 96 35.5 164t89.5 110.5t137.5 62.5t179.5 20q21 0 59 -3t82.5 -13.5t90 -30t82.5 -53t60.5 -82.5t23.5 -117v-617q0 -34 15.5 -48.5t43.5 -14.5q12 0 28 2.5t31 5.5v-131q-23 -6 -45 -13t-53 -7q-60 0 -96.5 14t-56.5 37t-27.5 52t-9.5 60q-26 -28 -60.5 -59
t-81 -56.5t-107 -42t-138.5 -16.5q-74 0 -135.5 22.5t-106 63t-69.5 98t-25 126.5q0 22 3.5 53.5t14.5 65.5t32.5 68.5t57.5 64.5t89 52t128 31l297 37q16 1 33 6.5t30.5 19t22.5 37.5t9 64q0 85 -62 129.5t-190 44.5q-77 0 -123.5 -21t-72 -52t-36 -67t-14.5 -67h-166z
M786 547q-11 -9 -27 -16.5t-48 -15.5t-85 -16.5t-137 -19.5q-33 -5 -73 -13.5t-74.5 -27.5t-58 -50.5t-23.5 -82.5q0 -88 46.5 -137t148.5 -49q63 0 122.5 19t106 53t74.5 80t28 100v176zM675 -380h-213v217h213v-217z" />
    <glyph glyph-name=".notdef.108" unicode="&#x1ea2;" horiz-adv-x="1366" 
d="M977 428l145 -428h217l-532 1470h-225l-553 -1470h204l154 428h590zM449 604l235 647h4l217 -647h-456zM754 1612h-117q-1 62 15.5 108t75 87t58.5 93q0 49 -27 70.5t-62 21.5q-55 0 -76.5 -31t-21.5 -76l-131 -2q0 111 72 168q61 49 149 49q78 0 138 -30q98 -52 98 -166
q0 -54 -25.5 -90.5t-86 -79.5t-59.5 -122z" />
    <glyph glyph-name=".notdef.064" unicode="&#x1ea3;" 
d="M293 745q4 31 14.5 67t36 67t72 52t123.5 21q128 0 190 -44.5t62 -129.5q0 -40 -9 -64t-22.5 -37.5t-30.5 -19t-33 -6.5l-297 -37q-75 -9 -128 -31t-89 -52t-57.5 -64.5t-32.5 -68.5t-14.5 -65.5t-3.5 -53.5q0 -69 25 -126.5t69.5 -98t106 -63t135.5 -22.5
q78 0 138.5 16.5t107 42t81 56.5t60.5 59q2 -31 9.5 -60t27.5 -52t56.5 -37t96.5 -14q31 0 53 7t45 13v131q-15 -3 -31 -5.5t-28 -2.5q-28 0 -43.5 14.5t-15.5 48.5v617q0 68 -23.5 117t-60.5 82.5t-82.5 53t-90 30t-82.5 13.5t-59 3q-99 0 -179.5 -20t-137.5 -62.5
t-89.5 -110.5t-35.5 -164h166zM786 371q0 -54 -28 -100t-74.5 -80t-106 -53t-122.5 -19q-102 0 -148.5 49t-46.5 137q0 51 23.5 82.5t58 50.5t74.5 27.5t73 13.5q84 11 137 19.5t85 16.5t48 15.5t27 16.5v-176zM639 1214h-117q-1 62 15.5 108t75 87t58.5 93q0 49 -27 70.5
t-62 21.5q-55 0 -76.5 -31t-21.5 -76l-131 -2q0 111 72 168q61 49 149 49q78 0 138 -30q98 -52 98 -166q0 -54 -25.5 -90.5t-86 -79.5t-59.5 -122z" />
    <glyph glyph-name=".notdef.119" unicode="&#x1eae;" horiz-adv-x="1366" 
d="M387 428l-154 -428h-204l553 1470h225l532 -1470h-217l-145 428h-590zM905 604l-217 647h-4l-235 -647h456zM480 1849q10 -45 29.5 -75.5t47.5 -49t63 -26.5t75 -8t74.5 8t62.5 26.5t48 49t30 75.5h100q-6 -57 -27.5 -108t-59.5 -89.5t-95 -61.5t-133 -23
q-77 0 -133.5 23t-95 61.5t-60 89.5t-27.5 108h101zM707 1850h-137l182 289h221z" />
    <glyph glyph-name=".notdef.053" unicode="&#x1eaf;" 
d="M127 745q3 96 35.5 164t89.5 110.5t137.5 62.5t179.5 20q21 0 59 -3t82.5 -13.5t90 -30t82.5 -53t60.5 -82.5t23.5 -117v-617q0 -34 15.5 -48.5t43.5 -14.5q12 0 28 2.5t31 5.5v-131q-23 -6 -45 -13t-53 -7q-60 0 -96.5 14t-56.5 37t-27.5 52t-9.5 60q-26 -28 -60.5 -59
t-81 -56.5t-107 -42t-138.5 -16.5q-74 0 -135.5 22.5t-106 63t-69.5 98t-25 126.5q0 22 3.5 53.5t14.5 65.5t32.5 68.5t57.5 64.5t89 52t128 31l297 37q16 1 33 6.5t30.5 19t22.5 37.5t9 64q0 85 -62 129.5t-190 44.5q-77 0 -123.5 -21t-72 -52t-36 -67t-14.5 -67h-166z
M786 547q-11 -9 -27 -16.5t-48 -15.5t-85 -16.5t-137 -19.5q-33 -5 -73 -13.5t-74.5 -27.5t-58 -50.5t-23.5 -82.5q0 -88 46.5 -137t148.5 -49q63 0 122.5 19t106 53t74.5 80t28 100v176zM358 1495q10 -45 29.5 -75.5t47.5 -49t63 -26.5t75 -8t74.5 8t62.5 26.5t48 49
t30 75.5h100q-6 -57 -27.5 -108t-59.5 -89.5t-95 -61.5t-133 -23q-77 0 -133.5 23t-95 61.5t-60 89.5t-27.5 108h101zM585 1495h-137l182 289h221z" />
    <glyph glyph-name=".notdef.118" unicode="&#x1eb0;" horiz-adv-x="1366" 
d="M387 428l-154 -428h-204l553 1470h225l532 -1470h-217l-145 428h-590zM905 604l-217 647h-4l-235 -647h456zM480 1849q10 -45 29.5 -75.5t47.5 -49t63 -26.5t75 -8t74.5 8t62.5 26.5t48 49t30 75.5h100q-6 -57 -27.5 -108t-59.5 -89.5t-95 -61.5t-133 -23
q-77 0 -133.5 23t-95 61.5t-60 89.5t-27.5 108h101zM418 2140h221l182 -289h-137z" />
    <glyph glyph-name=".notdef.054" unicode="&#x1eb1;" 
d="M127 745q3 96 35.5 164t89.5 110.5t137.5 62.5t179.5 20q21 0 59 -3t82.5 -13.5t90 -30t82.5 -53t60.5 -82.5t23.5 -117v-617q0 -34 15.5 -48.5t43.5 -14.5q12 0 28 2.5t31 5.5v-131q-23 -6 -45 -13t-53 -7q-60 0 -96.5 14t-56.5 37t-27.5 52t-9.5 60q-26 -28 -60.5 -59
t-81 -56.5t-107 -42t-138.5 -16.5q-74 0 -135.5 22.5t-106 63t-69.5 98t-25 126.5q0 22 3.5 53.5t14.5 65.5t32.5 68.5t57.5 64.5t89 52t128 31l297 37q16 1 33 6.5t30.5 19t22.5 37.5t9 64q0 85 -62 129.5t-190 44.5q-77 0 -123.5 -21t-72 -52t-36 -67t-14.5 -67h-166z
M786 547q-11 -9 -27 -16.5t-48 -15.5t-85 -16.5t-137 -19.5q-33 -5 -73 -13.5t-74.5 -27.5t-58 -50.5t-23.5 -82.5q0 -88 46.5 -137t148.5 -49q63 0 122.5 19t106 53t74.5 80t28 100v176zM358 1495q10 -45 29.5 -75.5t47.5 -49t63 -26.5t75 -8t74.5 8t62.5 26.5t48 49
t30 75.5h100q-6 -57 -27.5 -108t-59.5 -89.5t-95 -61.5t-133 -23q-77 0 -133.5 23t-95 61.5t-60 89.5t-27.5 108h101zM296 1786h221l182 -289h-137z" />
    <glyph glyph-name=".notdef.120" unicode="&#x1eb2;" horiz-adv-x="1366" 
d="M977 428l145 -428h217l-532 1470h-225l-553 -1470h204l154 428h590zM449 604l235 647h4l217 -647h-456zM379 1849q6 -57 27.5 -108t60 -89.5t95 -61.5t133.5 -23q76 0 133 23t95 61.5t59.5 89.5t27.5 108h-100q-10 -45 -30 -75.5t-48 -49t-62.5 -26.5t-74.5 -8t-75 8
t-63 26.5t-47.5 49t-29.5 75.5h-101zM748 1850h-117q-1 62 15.5 108t75 87t58.5 93q0 49 -27 70.5t-62 21.5q-55 0 -76.5 -31t-21.5 -76l-131 -2q0 111 72 168q61 49 149 49q78 0 138 -30q98 -52 98 -166q0 -54 -25.5 -90.5t-86 -79.5t-59.5 -122z" />
    <glyph glyph-name=".notdef.052" unicode="&#x1eb3;" 
d="M293 745q4 31 14.5 67t36 67t72 52t123.5 21q128 0 190 -44.5t62 -129.5q0 -40 -9 -64t-22.5 -37.5t-30.5 -19t-33 -6.5l-297 -37q-75 -9 -128 -31t-89 -52t-57.5 -64.5t-32.5 -68.5t-14.5 -65.5t-3.5 -53.5q0 -69 25 -126.5t69.5 -98t106 -63t135.5 -22.5
q78 0 138.5 16.5t107 42t81 56.5t60.5 59q2 -31 9.5 -60t27.5 -52t56.5 -37t96.5 -14q31 0 53 7t45 13v131q-15 -3 -31 -5.5t-28 -2.5q-28 0 -43.5 14.5t-15.5 48.5v617q0 68 -23.5 117t-60.5 82.5t-82.5 53t-90 30t-82.5 13.5t-59 3q-99 0 -179.5 -20t-137.5 -62.5
t-89.5 -110.5t-35.5 -164h166zM786 371q0 -54 -28 -100t-74.5 -80t-106 -53t-122.5 -19q-102 0 -148.5 49t-46.5 137q0 51 23.5 82.5t58 50.5t74.5 27.5t73 13.5q84 11 137 19.5t85 16.5t48 15.5t27 16.5v-176zM257 1495q6 -57 27.5 -108t60 -89.5t95 -61.5t133.5 -23
q76 0 133 23t95 61.5t59.5 89.5t27.5 108h-100q-10 -45 -30 -75.5t-48 -49t-62.5 -26.5t-74.5 -8t-75 8t-63 26.5t-47.5 49t-29.5 75.5h-101zM629 1495h-117q-1 62 15.5 108t75 87t58.5 93q0 49 -27 70.5t-62 21.5q-55 0 -76.5 -31t-21.5 -76l-131 -2q0 111 72 168
q61 49 149 49q78 0 138 -30q98 -52 98 -166q0 -54 -25.5 -90.5t-86 -79.5t-59.5 -122z" />
    <glyph glyph-name=".notdef.121" unicode="&#x1eb4;" horiz-adv-x="1366" 
d="M387 428l-154 -428h-204l553 1470h225l532 -1470h-217l-145 428h-590zM905 604l-217 647h-4l-235 -647h456zM480 1849q10 -45 29.5 -75.5t47.5 -49t63 -26.5t75 -8t74.5 8t62.5 26.5t48 49t30 75.5h100q-6 -57 -27.5 -108t-59.5 -89.5t-95 -61.5t-133 -23
q-77 0 -133.5 23t-95 61.5t-60 89.5t-27.5 108h101zM1059 2165q-5 -46 -21.5 -86.5t-42.5 -71t-61.5 -48t-79.5 -17.5q-27 0 -53 6t-67 20l-54 19q-27 9 -46 15t-33.5 9.5t-25.5 5t-20 1.5q-41 0 -62 -25.5t-34 -65.5h-98q6 45 21 85t40.5 70t63 47.5t88.5 17.5
q40 0 73.5 -9.5t65.5 -21.5l45 -19q29 -12 56.5 -19t39.5 -7q31 0 49.5 9t29.5 23t16 30.5t8 31.5h102z" />
    <glyph glyph-name=".notdef.051" unicode="&#x1eb5;" 
d="M127 745q3 96 35.5 164t89.5 110.5t137.5 62.5t179.5 20q21 0 59 -3t82.5 -13.5t90 -30t82.5 -53t60.5 -82.5t23.5 -117v-617q0 -34 15.5 -48.5t43.5 -14.5q12 0 28 2.5t31 5.5v-131q-23 -6 -45 -13t-53 -7q-60 0 -96.5 14t-56.5 37t-27.5 52t-9.5 60q-26 -28 -60.5 -59
t-81 -56.5t-107 -42t-138.5 -16.5q-74 0 -135.5 22.5t-106 63t-69.5 98t-25 126.5q0 22 3.5 53.5t14.5 65.5t32.5 68.5t57.5 64.5t89 52t128 31l297 37q16 1 33 6.5t30.5 19t22.5 37.5t9 64q0 85 -62 129.5t-190 44.5q-77 0 -123.5 -21t-72 -52t-36 -67t-14.5 -67h-166z
M786 547q-11 -9 -27 -16.5t-48 -15.5t-85 -16.5t-137 -19.5q-33 -5 -73 -13.5t-74.5 -27.5t-58 -50.5t-23.5 -82.5q0 -88 46.5 -137t148.5 -49q63 0 122.5 19t106 53t74.5 80t28 100v176zM358 1495q10 -45 29.5 -75.5t47.5 -49t63 -26.5t75 -8t74.5 8t62.5 26.5t48 49
t30 75.5h100q-6 -57 -27.5 -108t-59.5 -89.5t-95 -61.5t-133 -23q-77 0 -133.5 23t-95 61.5t-60 89.5t-27.5 108h101zM953 1831q-5 -46 -21.5 -86.5t-42.5 -71t-61.5 -48t-79.5 -17.5q-27 0 -53 6t-67 20l-54 19q-27 9 -46 15t-33.5 9.5t-25.5 5t-20 1.5q-41 0 -62 -25.5
t-34 -65.5h-98q6 45 21 85t40.5 70t63 47.5t88.5 17.5q40 0 73.5 -9.5t65.5 -21.5l45 -19q29 -12 56.5 -19t39.5 -7q31 0 49.5 9t29.5 23t16 30.5t8 31.5h102z" />
    <glyph glyph-name=".notdef.122" unicode="&#x1eb6;" horiz-adv-x="1366" 
d="M387 428l-154 -428h-204l553 1470h225l532 -1470h-217l-145 428h-590zM905 604l-217 647h-4l-235 -647h456zM480 1849q10 -45 29.5 -75.5t47.5 -49t63 -26.5t75 -8t74.5 8t62.5 26.5t48 49t30 75.5h100q-6 -57 -27.5 -108t-59.5 -89.5t-95 -61.5t-133 -23
q-77 0 -133.5 23t-95 61.5t-60 89.5t-27.5 108h101zM792 -380h-213v217h213v-217z" />
    <glyph glyph-name=".notdef.050" unicode="&#x1eb7;" 
d="M127 745q3 96 35.5 164t89.5 110.5t137.5 62.5t179.5 20q21 0 59 -3t82.5 -13.5t90 -30t82.5 -53t60.5 -82.5t23.5 -117v-617q0 -34 15.5 -48.5t43.5 -14.5q12 0 28 2.5t31 5.5v-131q-23 -6 -45 -13t-53 -7q-60 0 -96.5 14t-56.5 37t-27.5 52t-9.5 60q-26 -28 -60.5 -59
t-81 -56.5t-107 -42t-138.5 -16.5q-74 0 -135.5 22.5t-106 63t-69.5 98t-25 126.5q0 22 3.5 53.5t14.5 65.5t32.5 68.5t57.5 64.5t89 52t128 31l297 37q16 1 33 6.5t30.5 19t22.5 37.5t9 64q0 85 -62 129.5t-190 44.5q-77 0 -123.5 -21t-72 -52t-36 -67t-14.5 -67h-166z
M786 547q-11 -9 -27 -16.5t-48 -15.5t-85 -16.5t-137 -19.5q-33 -5 -73 -13.5t-74.5 -27.5t-58 -50.5t-23.5 -82.5q0 -88 46.5 -137t148.5 -49q63 0 122.5 19t106 53t74.5 80t28 100v176zM358 1495q10 -45 29.5 -75.5t47.5 -49t63 -26.5t75 -8t74.5 8t62.5 26.5t48 49
t30 75.5h100q-6 -57 -27.5 -108t-59.5 -89.5t-95 -61.5t-133 -23q-77 0 -133.5 23t-95 61.5t-60 89.5t-27.5 108h101zM675 -380h-213v217h213v-217z" />
    <glyph glyph-name=".notdef.130" unicode="&#x1ebe;" horiz-adv-x="1366" 
d="M1262 0h-1086v1470h1071v-176h-872v-450h805v-176h-805v-492h887v-176zM547 1614h-162l203 289h190l203 -289h-164l-135 190zM1047 1816h-137l182 289h221z" />
    <glyph glyph-name=".notdef.042" unicode="&#x1ebf;" 
d="M1042 336q-2 -19 -13 -54.5t-33.5 -77.5t-57.5 -84.5t-86 -76.5q-18 -12 -42 -25.5t-57.5 -24t-80.5 -17.5t-111 -7q-113 0 -202 40.5t-150.5 112t-94 170t-32.5 214.5q0 124 30.5 233t93.5 189.5t160 127t230 46.5q116 0 202.5 -44.5t144 -126t86 -197t28.5 -257.5h-783
q0 -168 78 -260t234 -92q64 0 114 21.5t85.5 54t55 69t21.5 66.5h180zM870 621q-4 62 -20 119.5t-50.5 102t-90.5 71t-138 26.5q-62 0 -116 -26.5t-94.5 -71t-63.5 -102t-23 -119.5h596zM434 1214h-162l203 289h191l202 -289h-163l-136 191zM934 1416h-137l182 289h221z" />
    <glyph glyph-name=".notdef.129" unicode="&#x1ec0;" horiz-adv-x="1366" 
d="M1262 0h-1086v1470h1071v-176h-872v-450h805v-176h-805v-492h887v-176zM547 1614h-162l203 289h190l203 -289h-164l-135 190zM745 2105h221l182 -289h-137z" />
    <glyph glyph-name=".notdef.043" unicode="&#x1ec1;" 
d="M1042 336q-2 -19 -13 -54.5t-33.5 -77.5t-57.5 -84.5t-86 -76.5q-18 -12 -42 -25.5t-57.5 -24t-80.5 -17.5t-111 -7q-113 0 -202 40.5t-150.5 112t-94 170t-32.5 214.5q0 124 30.5 233t93.5 189.5t160 127t230 46.5q116 0 202.5 -44.5t144 -126t86 -197t28.5 -257.5h-783
q0 -168 78 -260t234 -92q64 0 114 21.5t85.5 54t55 69t21.5 66.5h180zM870 621q-4 62 -20 119.5t-50.5 102t-90.5 71t-138 26.5q-62 0 -116 -26.5t-94.5 -71t-63.5 -102t-23 -119.5h596zM434 1214h-162l203 289h191l202 -289h-163l-136 191zM632 1703h221l182 -289h-137z
" />
    <glyph glyph-name=".notdef.131" unicode="&#x1ec2;" horiz-adv-x="1366" 
d="M1262 176h-887v492h805v176h-805v450h872v176h-1071v-1470h1086v176zM682 1804l135 -190h164l-203 289h-190l-203 -289h162zM1056 1804h-117q-1 62 15.5 108t75 87t58.5 93q0 49 -27 70.5t-62 21.5q-55 0 -76.5 -31t-21.5 -76l-131 -2q0 111 72 168q61 49 149 49
q78 0 138 -30q98 -52 98 -166q0 -54 -25.5 -90.5t-86 -79.5t-59.5 -122z" />
    <glyph glyph-name=".notdef.041" unicode="&#x1ec3;" 
d="M862 336q-2 -30 -21.5 -66.5t-55 -69t-85.5 -54t-114 -21.5q-156 0 -234 92t-78 260h783q0 142 -28.5 257.5t-86 197t-144 126t-202.5 44.5q-133 0 -230 -46.5t-160 -127t-93.5 -189.5t-30.5 -233q0 -116 32.5 -214.5t94 -170t150.5 -112t202 -40.5q64 0 111 7t80.5 17.5
t57.5 24t42 25.5q51 34 86 76.5t57.5 84.5t33.5 77.5t13 54.5h-180zM274 621q0 62 23 119.5t63.5 102t94.5 71t116 26.5q82 0 138 -26.5t90.5 -71t50.5 -102t20 -119.5h-596zM569 1405l136 -191h163l-202 289h-191l-203 -289h162zM943 1403h-117q-1 62 15.5 108t75 87
t58.5 93q0 49 -27 70.5t-62 21.5q-55 0 -76.5 -31t-21.5 -76l-131 -2q0 111 72 168q61 49 149 49q78 0 138 -30q98 -52 98 -166q0 -54 -25.5 -90.5t-86 -79.5t-59.5 -122z" />
    <glyph glyph-name=".notdef.132" unicode="&#x1ec4;" horiz-adv-x="1366" 
d="M1262 0h-1086v1470h1071v-176h-872v-450h805v-176h-805v-492h887v-176zM547 1614h-162l203 289h190l203 -289h-164l-135 190zM1048 2196q-5 -46 -21.5 -86.5t-42.5 -71t-61.5 -48t-79.5 -17.5q-27 0 -53 6t-67 20l-54 19q-27 9 -46 15t-33.5 9.5t-25.5 5t-20 1.5
q-41 0 -62 -25.5t-34 -65.5h-98q6 45 21 85t40.5 70t63 47.5t88.5 17.5q40 0 73.5 -9.5t65.5 -21.5l45 -19q29 -12 56.5 -19t39.5 -7q31 0 49.5 9t29.5 23t16 30.5t8 31.5h102z" />
    <glyph glyph-name=".notdef.040" unicode="&#x1ec5;" 
d="M1042 336q-2 -19 -13 -54.5t-33.5 -77.5t-57.5 -84.5t-86 -76.5q-18 -12 -42 -25.5t-57.5 -24t-80.5 -17.5t-111 -7q-113 0 -202 40.5t-150.5 112t-94 170t-32.5 214.5q0 124 30.5 233t93.5 189.5t160 127t230 46.5q116 0 202.5 -44.5t144 -126t86 -197t28.5 -257.5h-783
q0 -168 78 -260t234 -92q64 0 114 21.5t85.5 54t55 69t21.5 66.5h180zM870 621q-4 62 -20 119.5t-50.5 102t-90.5 71t-138 26.5q-62 0 -116 -26.5t-94.5 -71t-63.5 -102t-23 -119.5h596zM434 1214h-162l203 289h191l202 -289h-163l-136 191zM935 1795q-5 -46 -21.5 -86.5
t-42.5 -71t-61.5 -48t-79.5 -17.5q-27 0 -53 6t-67 20l-54 19q-27 9 -46 15t-33.5 9.5t-25.5 5t-20 1.5q-41 0 -62 -25.5t-34 -65.5h-98q6 45 21 85t40.5 70t63 47.5t88.5 17.5q40 0 73.5 -9.5t65.5 -21.5l45 -19q29 -12 56.5 -19t39.5 -7q31 0 49.5 9t29.5 23t16 30.5
t8 31.5h102z" />
    <glyph glyph-name=".notdef.105" unicode="&#x1ec6;" horiz-adv-x="1366" 
d="M1262 0h-1086v1470h1071v-176h-872v-450h805v-176h-805v-492h887v-176zM547 1614h-162l203 289h190l203 -289h-164l-135 190zM797 -380h-213v217h213v-217z" />
    <glyph glyph-name=".notdef.039" unicode="&#x1ec7;" 
d="M1042 336q-2 -19 -13 -54.5t-33.5 -77.5t-57.5 -84.5t-86 -76.5q-18 -12 -42 -25.5t-57.5 -24t-80.5 -17.5t-111 -7q-113 0 -202 40.5t-150.5 112t-94 170t-32.5 214.5q0 124 30.5 233t93.5 189.5t160 127t230 46.5q116 0 202.5 -44.5t144 -126t86 -197t28.5 -257.5h-783
q0 -168 78 -260t234 -92q64 0 114 21.5t85.5 54t55 69t21.5 66.5h180zM870 621q-4 62 -20 119.5t-50.5 102t-90.5 71t-138 26.5q-62 0 -116 -26.5t-94.5 -71t-63.5 -102t-23 -119.5h596zM434 1214h-162l203 289h191l202 -289h-163l-136 191zM675 -380h-213v217h213v-217z
" />
    <glyph glyph-name=".notdef.092" unicode="&#x1ed0;" horiz-adv-x="1593" 
d="M1309 735q0 130 -35 239.5t-101 189t-161 124.5t-215 45t-215 -45t-161 -124.5t-101 -189t-35 -239.5t35 -239.5t101 -189t161 -124.5t215 -45t215 45t161 124.5t101 189t35 239.5zM1513 735q0 -79 -15 -167.5t-48.5 -174.5t-88.5 -164t-134.5 -137.5t-186 -95
t-243.5 -35.5t-243.5 35.5t-186.5 95t-134.5 137.5t-88.5 164t-49 174.5t-15 167.5t15 167.5t49 174.5t88.5 164t134.5 138t186.5 95t243.5 35t243.5 -35t186 -95t134.5 -138t88.5 -164t48.5 -174.5t15 -167.5zM662 1614h-162l202 289h191l203 -289h-164l-135 190z
M1161 1816h-137l182 289h221z" />
    <glyph glyph-name=".notdef.026" unicode="&#x1ed1;" 
d="M72 537q0 69 13 137.5t40 131.5t67.5 117t95.5 94t125 62.5t156 22.5q85 0 155.5 -22.5t125.5 -62.5t96 -94t68 -117t40 -131.5t13 -137.5t-13 -138t-40 -132t-68 -117t-96 -94t-125.5 -62.5t-155.5 -22.5t-155.5 22.5t-125.5 62.5t-95.5 94t-67.5 117t-40 132t-13 138z
M258 537q0 -36 5 -80.5t18 -90t35.5 -88.5t57 -76.5t82.5 -54t113 -20.5q64 0 112.5 20.5t83 54t57 76.5t36 88.5t18.5 90t5 80.5t-5 80t-18.5 89.5t-36 88.5t-57 76.5t-83 54t-112.5 20.5t-112.5 -20.5t-83 -54t-57 -76.5t-35.5 -88.5t-18 -89.5t-5 -80zM434 1214h-162
l203 289h191l202 -289h-163l-136 191zM934 1416h-137l182 289h221z" />
    <glyph glyph-name=".notdef.093" unicode="&#x1ed2;" horiz-adv-x="1593" 
d="M1309 735q0 130 -35 239.5t-101 189t-161 124.5t-215 45t-215 -45t-161 -124.5t-101 -189t-35 -239.5t35 -239.5t101 -189t161 -124.5t215 -45t215 45t161 124.5t101 189t35 239.5zM1513 735q0 -79 -15 -167.5t-48.5 -174.5t-88.5 -164t-134.5 -137.5t-186 -95
t-243.5 -35.5t-243.5 35.5t-186.5 95t-134.5 137.5t-88.5 164t-49 174.5t-15 167.5t15 167.5t49 174.5t88.5 164t134.5 138t186.5 95t243.5 35t243.5 -35t186 -95t134.5 -138t88.5 -164t48.5 -174.5t15 -167.5zM662 1614h-162l202 289h191l203 -289h-164l-135 190zM859 2105
h221l182 -289h-137z" />
    <glyph glyph-name=".notdef.027" unicode="&#x1ed3;" 
d="M72 537q0 69 13 137.5t40 131.5t67.5 117t95.5 94t125 62.5t156 22.5q85 0 155.5 -22.5t125.5 -62.5t96 -94t68 -117t40 -131.5t13 -137.5t-13 -138t-40 -132t-68 -117t-96 -94t-125.5 -62.5t-155.5 -22.5t-155.5 22.5t-125.5 62.5t-95.5 94t-67.5 117t-40 132t-13 138z
M258 537q0 -36 5 -80.5t18 -90t35.5 -88.5t57 -76.5t82.5 -54t113 -20.5q64 0 112.5 20.5t83 54t57 76.5t36 88.5t18.5 90t5 80.5t-5 80t-18.5 89.5t-36 88.5t-57 76.5t-83 54t-112.5 20.5t-112.5 -20.5t-83 -54t-57 -76.5t-35.5 -88.5t-18 -89.5t-5 -80zM434 1214h-162
l203 289h191l202 -289h-163l-136 191zM632 1703h221l182 -289h-137z" />
    <glyph glyph-name=".notdef.091" unicode="&#x1ed4;" horiz-adv-x="1593" 
d="M1309 735q0 -130 -35 -239.5t-101 -189t-161 -124.5t-215 -45t-215 45t-161 124.5t-101 189t-35 239.5t35 239.5t101 189t161 124.5t215 45t215 -45t161 -124.5t101 -189t35 -239.5zM1513 735q0 79 -15 167.5t-48.5 174.5t-88.5 164t-134.5 138t-186 95t-243.5 35
t-243.5 -35t-186.5 -95t-134.5 -138t-88.5 -164t-49 -174.5t-15 -167.5t15 -167.5t49 -174.5t88.5 -164t134.5 -137.5t186.5 -95t243.5 -35.5t243.5 35.5t186 95t134.5 137.5t88.5 164t48.5 174.5t15 167.5zM797 1804l135 -190h164l-203 289h-191l-202 -289h162zM1170 1804
h-117q-1 62 15.5 108t75 87t58.5 93q0 49 -27 70.5t-62 21.5q-55 0 -76.5 -31t-21.5 -76l-131 -2q0 111 72 168q61 49 149 49q78 0 138 -30q98 -52 98 -166q0 -54 -25.5 -90.5t-86 -79.5t-59.5 -122z" />
    <glyph glyph-name=".notdef.025" unicode="&#x1ed5;" 
d="M72 537q0 -69 13 -138t40 -132t67.5 -117t95.5 -94t125.5 -62.5t155.5 -22.5t155.5 22.5t125.5 62.5t96 94t68 117t40 132t13 138t-13 137.5t-40 131.5t-68 117t-96 94t-125.5 62.5t-155.5 22.5q-86 0 -156 -22.5t-125 -62.5t-95.5 -94t-67.5 -117t-40 -131.5t-13 -137.5
zM258 537q0 36 5 80t18 89.5t35.5 88.5t57 76.5t83 54t112.5 20.5t112.5 -20.5t83 -54t57 -76.5t36 -88.5t18.5 -89.5t5 -80t-5 -80.5t-18.5 -90t-36 -88.5t-57 -76.5t-83 -54t-112.5 -20.5q-65 0 -113 20.5t-82.5 54t-57 76.5t-35.5 88.5t-18 90t-5 80.5zM569 1405
l136 -191h163l-202 289h-191l-203 -289h162zM943 1403h-117q-1 62 15.5 108t75 87t58.5 93q0 49 -27 70.5t-62 21.5q-55 0 -76.5 -31t-21.5 -76l-131 -2q0 111 72 168q61 49 149 49q78 0 138 -30q98 -52 98 -166q0 -54 -25.5 -90.5t-86 -79.5t-59.5 -122z" />
    <glyph glyph-name=".notdef.090" unicode="&#x1ed6;" horiz-adv-x="1593" 
d="M1309 735q0 130 -35 239.5t-101 189t-161 124.5t-215 45t-215 -45t-161 -124.5t-101 -189t-35 -239.5t35 -239.5t101 -189t161 -124.5t215 -45t215 45t161 124.5t101 189t35 239.5zM1513 735q0 -79 -15 -167.5t-48.5 -174.5t-88.5 -164t-134.5 -137.5t-186 -95
t-243.5 -35.5t-243.5 35.5t-186.5 95t-134.5 137.5t-88.5 164t-49 174.5t-15 167.5t15 167.5t49 174.5t88.5 164t134.5 138t186.5 95t243.5 35t243.5 -35t186 -95t134.5 -138t88.5 -164t48.5 -174.5t15 -167.5zM662 1614h-162l202 289h191l203 -289h-164l-135 190z
M1163 2196q-5 -46 -21.5 -86.5t-42.5 -71t-61.5 -48t-79.5 -17.5q-27 0 -53 6t-67 20l-54 19q-27 9 -46 15t-33.5 9.5t-25.5 5t-20 1.5q-41 0 -62 -25.5t-34 -65.5h-98q6 45 21 85t40.5 70t63 47.5t88.5 17.5q40 0 73.5 -9.5t65.5 -21.5l45 -19q29 -12 56.5 -19t39.5 -7
q31 0 49.5 9t29.5 23t16 30.5t8 31.5h102z" />
    <glyph glyph-name=".notdef.024" unicode="&#x1ed7;" 
d="M72 537q0 69 13 137.5t40 131.5t67.5 117t95.5 94t125 62.5t156 22.5q85 0 155.5 -22.5t125.5 -62.5t96 -94t68 -117t40 -131.5t13 -137.5t-13 -138t-40 -132t-68 -117t-96 -94t-125.5 -62.5t-155.5 -22.5t-155.5 22.5t-125.5 62.5t-95.5 94t-67.5 117t-40 132t-13 138z
M258 537q0 -36 5 -80.5t18 -90t35.5 -88.5t57 -76.5t82.5 -54t113 -20.5q64 0 112.5 20.5t83 54t57 76.5t36 88.5t18.5 90t5 80.5t-5 80t-18.5 89.5t-36 88.5t-57 76.5t-83 54t-112.5 20.5t-112.5 -20.5t-83 -54t-57 -76.5t-35.5 -88.5t-18 -89.5t-5 -80zM434 1214h-162
l203 289h191l202 -289h-163l-136 191zM935 1795q-5 -46 -21.5 -86.5t-42.5 -71t-61.5 -48t-79.5 -17.5q-27 0 -53 6t-67 20l-54 19q-27 9 -46 15t-33.5 9.5t-25.5 5t-20 1.5q-41 0 -62 -25.5t-34 -65.5h-98q6 45 21 85t40.5 70t63 47.5t88.5 17.5q40 0 73.5 -9.5t65.5 -21.5
l45 -19q29 -12 56.5 -19t39.5 -7q31 0 49.5 9t29.5 23t16 30.5t8 31.5h102z" />
    <glyph glyph-name=".notdef.089" unicode="&#x1ed8;" horiz-adv-x="1593" 
d="M1309 735q0 130 -35 239.5t-101 189t-161 124.5t-215 45t-215 -45t-161 -124.5t-101 -189t-35 -239.5t35 -239.5t101 -189t161 -124.5t215 -45t215 45t161 124.5t101 189t35 239.5zM1513 735q0 -79 -15 -167.5t-48.5 -174.5t-88.5 -164t-134.5 -137.5t-186 -95
t-243.5 -35.5t-243.5 35.5t-186.5 95t-134.5 137.5t-88.5 164t-49 174.5t-15 167.5t15 167.5t49 174.5t88.5 164t134.5 138t186.5 95t243.5 35t243.5 -35t186 -95t134.5 -138t88.5 -164t48.5 -174.5t15 -167.5zM662 1614h-162l202 289h191l203 -289h-164l-135 190zM910 -380
h-213v217h213v-217z" />
    <glyph glyph-name=".notdef.023" unicode="&#x1ed9;" 
d="M72 537q0 69 13 137.5t40 131.5t67.5 117t95.5 94t125 62.5t156 22.5q85 0 155.5 -22.5t125.5 -62.5t96 -94t68 -117t40 -131.5t13 -137.5t-13 -138t-40 -132t-68 -117t-96 -94t-125.5 -62.5t-155.5 -22.5t-155.5 22.5t-125.5 62.5t-95.5 94t-67.5 117t-40 132t-13 138z
M258 537q0 -36 5 -80.5t18 -90t35.5 -88.5t57 -76.5t82.5 -54t113 -20.5q64 0 112.5 20.5t83 54t57 76.5t36 88.5t18.5 90t5 80.5t-5 80t-18.5 89.5t-36 88.5t-57 76.5t-83 54t-112.5 20.5t-112.5 -20.5t-83 -54t-57 -76.5t-35.5 -88.5t-18 -89.5t-5 -80zM434 1214h-162
l203 289h191l202 -289h-163l-136 191zM678 -380h-213v217h213v-217z" />
    <glyph glyph-name=".notdef.113" unicode="&#x1ea4;" horiz-adv-x="1366" 
d="M387 428l-154 -428h-204l553 1470h225l532 -1470h-217l-145 428h-590zM905 604l-217 647h-4l-235 -647h456zM547 1614h-162l203 289h190l203 -289h-164l-135 190zM1047 1816h-137l182 289h221z" />
    <glyph glyph-name=".notdef.059" unicode="&#x1ea5;" 
d="M127 745q3 96 35.5 164t89.5 110.5t137.5 62.5t179.5 20q21 0 59 -3t82.5 -13.5t90 -30t82.5 -53t60.5 -82.5t23.5 -117v-617q0 -34 15.5 -48.5t43.5 -14.5q12 0 28 2.5t31 5.5v-131q-23 -6 -45 -13t-53 -7q-60 0 -96.5 14t-56.5 37t-27.5 52t-9.5 60q-26 -28 -60.5 -59
t-81 -56.5t-107 -42t-138.5 -16.5q-74 0 -135.5 22.5t-106 63t-69.5 98t-25 126.5q0 22 3.5 53.5t14.5 65.5t32.5 68.5t57.5 64.5t89 52t128 31l297 37q16 1 33 6.5t30.5 19t22.5 37.5t9 64q0 85 -62 129.5t-190 44.5q-77 0 -123.5 -21t-72 -52t-36 -67t-14.5 -67h-166z
M786 547q-11 -9 -27 -16.5t-48 -15.5t-85 -16.5t-137 -19.5q-33 -5 -73 -13.5t-74.5 -27.5t-58 -50.5t-23.5 -82.5q0 -88 46.5 -137t148.5 -49q63 0 122.5 19t106 53t74.5 80t28 100v176zM434 1214h-162l203 289h191l202 -289h-163l-136 191zM934 1416h-137l182 289h221z
" />
    <glyph glyph-name=".notdef.112" unicode="&#x1ea6;" horiz-adv-x="1366" 
d="M387 428l-154 -428h-204l553 1470h225l532 -1470h-217l-145 428h-590zM905 604l-217 647h-4l-235 -647h456zM547 1614h-162l203 289h190l203 -289h-164l-135 190zM745 2105h221l182 -289h-137z" />
    <glyph glyph-name=".notdef.060" unicode="&#x1ea7;" 
d="M127 745q3 96 35.5 164t89.5 110.5t137.5 62.5t179.5 20q21 0 59 -3t82.5 -13.5t90 -30t82.5 -53t60.5 -82.5t23.5 -117v-617q0 -34 15.5 -48.5t43.5 -14.5q12 0 28 2.5t31 5.5v-131q-23 -6 -45 -13t-53 -7q-60 0 -96.5 14t-56.5 37t-27.5 52t-9.5 60q-26 -28 -60.5 -59
t-81 -56.5t-107 -42t-138.5 -16.5q-74 0 -135.5 22.5t-106 63t-69.5 98t-25 126.5q0 22 3.5 53.5t14.5 65.5t32.5 68.5t57.5 64.5t89 52t128 31l297 37q16 1 33 6.5t30.5 19t22.5 37.5t9 64q0 85 -62 129.5t-190 44.5q-77 0 -123.5 -21t-72 -52t-36 -67t-14.5 -67h-166z
M786 547q-11 -9 -27 -16.5t-48 -15.5t-85 -16.5t-137 -19.5q-33 -5 -73 -13.5t-74.5 -27.5t-58 -50.5t-23.5 -82.5q0 -88 46.5 -137t148.5 -49q63 0 122.5 19t106 53t74.5 80t28 100v176zM434 1214h-162l203 289h191l202 -289h-163l-136 191zM632 1703h221l182 -289h-137z
" />
    <glyph glyph-name=".notdef.114" unicode="&#x1ea8;" horiz-adv-x="1366" 
d="M977 428l145 -428h217l-532 1470h-225l-553 -1470h204l154 428h590zM449 604l235 647h4l217 -647h-456zM682 1804l135 -190h164l-203 289h-190l-203 -289h162zM1056 1804h-117q-1 62 15.5 108t75 87t58.5 93q0 49 -27 70.5t-62 21.5q-55 0 -76.5 -31t-21.5 -76l-131 -2
q0 111 72 168q61 49 149 49q78 0 138 -30q98 -52 98 -166q0 -54 -25.5 -90.5t-86 -79.5t-59.5 -122z" />
    <glyph glyph-name=".notdef.058" unicode="&#x1ea9;" 
d="M293 745q4 31 14.5 67t36 67t72 52t123.5 21q128 0 190 -44.5t62 -129.5q0 -40 -9 -64t-22.5 -37.5t-30.5 -19t-33 -6.5l-297 -37q-75 -9 -128 -31t-89 -52t-57.5 -64.5t-32.5 -68.5t-14.5 -65.5t-3.5 -53.5q0 -69 25 -126.5t69.5 -98t106 -63t135.5 -22.5
q78 0 138.5 16.5t107 42t81 56.5t60.5 59q2 -31 9.5 -60t27.5 -52t56.5 -37t96.5 -14q31 0 53 7t45 13v131q-15 -3 -31 -5.5t-28 -2.5q-28 0 -43.5 14.5t-15.5 48.5v617q0 68 -23.5 117t-60.5 82.5t-82.5 53t-90 30t-82.5 13.5t-59 3q-99 0 -179.5 -20t-137.5 -62.5
t-89.5 -110.5t-35.5 -164h166zM786 371q0 -54 -28 -100t-74.5 -80t-106 -53t-122.5 -19q-102 0 -148.5 49t-46.5 137q0 51 23.5 82.5t58 50.5t74.5 27.5t73 13.5q84 11 137 19.5t85 16.5t48 15.5t27 16.5v-176zM569 1405l136 -191h163l-202 289h-191l-203 -289h162z
M943 1403h-117q-1 62 15.5 108t75 87t58.5 93q0 49 -27 70.5t-62 21.5q-55 0 -76.5 -31t-21.5 -76l-131 -2q0 111 72 168q61 49 149 49q78 0 138 -30q98 -52 98 -166q0 -54 -25.5 -90.5t-86 -79.5t-59.5 -122z" />
    <glyph glyph-name=".notdef.115" unicode="&#x1eaa;" horiz-adv-x="1366" 
d="M387 428l-154 -428h-204l553 1470h225l532 -1470h-217l-145 428h-590zM905 604l-217 647h-4l-235 -647h456zM547 1614h-162l203 289h190l203 -289h-164l-135 190zM1048 2196q-5 -46 -21.5 -86.5t-42.5 -71t-61.5 -48t-79.5 -17.5q-27 0 -53 6t-67 20l-54 19q-27 9 -46 15
t-33.5 9.5t-25.5 5t-20 1.5q-41 0 -62 -25.5t-34 -65.5h-98q6 45 21 85t40.5 70t63 47.5t88.5 17.5q40 0 73.5 -9.5t65.5 -21.5l45 -19q29 -12 56.5 -19t39.5 -7q31 0 49.5 9t29.5 23t16 30.5t8 31.5h102z" />
    <glyph glyph-name=".notdef.057" unicode="&#x1eab;" 
d="M127 745q3 96 35.5 164t89.5 110.5t137.5 62.5t179.5 20q21 0 59 -3t82.5 -13.5t90 -30t82.5 -53t60.5 -82.5t23.5 -117v-617q0 -34 15.5 -48.5t43.5 -14.5q12 0 28 2.5t31 5.5v-131q-23 -6 -45 -13t-53 -7q-60 0 -96.5 14t-56.5 37t-27.5 52t-9.5 60q-26 -28 -60.5 -59
t-81 -56.5t-107 -42t-138.5 -16.5q-74 0 -135.5 22.5t-106 63t-69.5 98t-25 126.5q0 22 3.5 53.5t14.5 65.5t32.5 68.5t57.5 64.5t89 52t128 31l297 37q16 1 33 6.5t30.5 19t22.5 37.5t9 64q0 85 -62 129.5t-190 44.5q-77 0 -123.5 -21t-72 -52t-36 -67t-14.5 -67h-166z
M786 547q-11 -9 -27 -16.5t-48 -15.5t-85 -16.5t-137 -19.5q-33 -5 -73 -13.5t-74.5 -27.5t-58 -50.5t-23.5 -82.5q0 -88 46.5 -137t148.5 -49q63 0 122.5 19t106 53t74.5 80t28 100v176zM434 1214h-162l203 289h191l202 -289h-163l-136 191zM935 1812q-5 -46 -21.5 -86.5
t-42.5 -71t-61.5 -48t-79.5 -17.5q-27 0 -53 6t-67 20l-54 19q-27 9 -46 15t-33.5 9.5t-25.5 5t-20 1.5q-41 0 -62 -25.5t-34 -65.5h-98q6 45 21 85t40.5 70t63 47.5t88.5 17.5q40 0 73.5 -9.5t65.5 -21.5l45 -19q29 -12 56.5 -19t39.5 -7q31 0 49.5 9t29.5 23t16 30.5
t8 31.5h102z" />
    <glyph glyph-name=".notdef.116" unicode="&#x1eac;" horiz-adv-x="1366" 
d="M387 428l-154 -428h-204l553 1470h225l532 -1470h-217l-145 428h-590zM905 604l-217 647h-4l-235 -647h456zM547 1614h-162l203 289h190l203 -289h-164l-135 190zM792 -380h-213v217h213v-217z" />
    <glyph glyph-name=".notdef.056" unicode="&#x1ead;" 
d="M127 745q3 96 35.5 164t89.5 110.5t137.5 62.5t179.5 20q21 0 59 -3t82.5 -13.5t90 -30t82.5 -53t60.5 -82.5t23.5 -117v-617q0 -34 15.5 -48.5t43.5 -14.5q12 0 28 2.5t31 5.5v-131q-23 -6 -45 -13t-53 -7q-60 0 -96.5 14t-56.5 37t-27.5 52t-9.5 60q-26 -28 -60.5 -59
t-81 -56.5t-107 -42t-138.5 -16.5q-74 0 -135.5 22.5t-106 63t-69.5 98t-25 126.5q0 22 3.5 53.5t14.5 65.5t32.5 68.5t57.5 64.5t89 52t128 31l297 37q16 1 33 6.5t30.5 19t22.5 37.5t9 64q0 85 -62 129.5t-190 44.5q-77 0 -123.5 -21t-72 -52t-36 -67t-14.5 -67h-166z
M786 547q-11 -9 -27 -16.5t-48 -15.5t-85 -16.5t-137 -19.5q-33 -5 -73 -13.5t-74.5 -27.5t-58 -50.5t-23.5 -82.5q0 -88 46.5 -137t148.5 -49q63 0 122.5 19t106 53t74.5 80t28 100v176zM434 1214h-162l203 289h191l202 -289h-163l-136 191zM675 -380h-213v217h213v-217z
" />
    <glyph glyph-name=".notdef.081" unicode="&#x1ee8;" horiz-adv-x="1667" 
d="M1319 1470v-954q0 -113 -36 -214t-109 -176.5t-184.5 -120t-262.5 -44.5q-148 0 -255 44t-176 117.5t-101.5 168.5t-32.5 198v981h198v-925q0 -120 33 -199t86.5 -125.5t120 -65t133.5 -18.5q68 0 137 18t124.5 64t90.5 124t35 198v929h199zM1387 1471h200v-169
q0 -63 -12 -103t-44.5 -65.5t-89.5 -40t-147 -25.5v81q59 4 97.5 11.5t60.5 22.5t31 40t10 65h-106v183zM733 1614h-137l182 289h222z" />
    <glyph glyph-name=".notdef.082" unicode="&#x1eea;" horiz-adv-x="1667" 
d="M1319 1470v-954q0 -113 -36 -214t-109 -176.5t-184.5 -120t-262.5 -44.5q-148 0 -255 44t-176 117.5t-101.5 168.5t-32.5 198v981h198v-925q0 -120 33 -199t86.5 -125.5t120 -65t133.5 -18.5q68 0 137 18t124.5 64t90.5 124t35 198v929h199zM1387 1471h200v-169
q0 -63 -12 -103t-44.5 -65.5t-89.5 -40t-147 -25.5v81q59 4 97.5 11.5t60.5 22.5t31 40t10 65h-106v183zM480 1903h221l182 -289h-137z" />
    <glyph glyph-name=".notdef.080" unicode="&#x1eec;" horiz-adv-x="1667" 
d="M1120 1470v-929q0 -120 -35 -198t-90.5 -124t-124.5 -64t-137 -18q-67 0 -133.5 18.5t-120 65t-86.5 125.5t-33 199v925h-198v-981q0 -103 32.5 -198t101.5 -168.5t176 -117.5t255 -44q151 0 262.5 44.5t184.5 120t109 176.5t36 214v954h-199zM1387 1288h106
q-1 -40 -10 -65t-31 -40t-60.5 -22.5t-97.5 -11.5v-81q90 11 147 25.5t89.5 40t44.5 65.5t12 103v169h-200v-183zM808 1612h-117q-1 62 15.5 108t75 87t58.5 93q0 49 -27 70.5t-62 21.5q-55 0 -76.5 -31t-21.5 -76l-131 -2q0 111 72 168q61 49 149 49q78 0 138 -30
q98 -52 98 -166q0 -54 -25.5 -90.5t-86 -79.5t-59.5 -122z" />
    <glyph glyph-name=".notdef.079" unicode="&#x1eee;" horiz-adv-x="1667" 
d="M1319 1470v-954q0 -113 -36 -214t-109 -176.5t-184.5 -120t-262.5 -44.5q-148 0 -255 44t-176 117.5t-101.5 168.5t-32.5 198v981h198v-925q0 -120 33 -199t86.5 -125.5t120 -65t133.5 -18.5q68 0 137 18t124.5 64t90.5 124t35 198v929h199zM1387 1471h200v-169
q0 -63 -12 -103t-44.5 -65.5t-89.5 -40t-147 -25.5v81q59 4 97.5 11.5t60.5 22.5t31 40t10 65h-106v183zM1094 1878q-5 -46 -21.5 -86.5t-42.5 -71t-61.5 -48t-79.5 -17.5q-27 0 -53 6t-67 20l-54 19q-27 9 -46 15t-33.5 9.5t-25.5 5t-20 1.5q-41 0 -62 -25.5t-34 -65.5h-98
q6 45 21 85t40.5 70t63 47.5t88.5 17.5q40 0 73.5 -9.5t65.5 -21.5l45 -19q29 -12 56.5 -19t39.5 -7q31 0 49.5 9t29.5 23t16 30.5t8 31.5h102z" />
    <glyph glyph-name=".notdef.078" unicode="&#x1ef0;" horiz-adv-x="1667" 
d="M1319 1470v-954q0 -113 -36 -214t-109 -176.5t-184.5 -120t-262.5 -44.5q-148 0 -255 44t-176 117.5t-101.5 168.5t-32.5 198v981h198v-925q0 -120 33 -199t86.5 -125.5t120 -65t133.5 -18.5q68 0 137 18t124.5 64t90.5 124t35 198v929h199zM1387 1471h200v-169
q0 -63 -12 -103t-44.5 -65.5t-89.5 -40t-147 -25.5v81q59 4 97.5 11.5t60.5 22.5t31 40t10 65h-106v183zM834 -380h-213v217h213v-217z" />
    <glyph glyph-name=".notdef.012" unicode="&#x1ef1;" horiz-adv-x="1329" 
d="M831 0v156l-4 4q-28 -47 -60.5 -82.5t-73 -59.5t-91.5 -36.5t-115 -12.5q-59 0 -120.5 16t-112 54t-83 102t-32.5 160v770h180v-711q0 -66 16 -111t44 -72.5t65.5 -39.5t81.5 -12q85 0 142 34t91 86t48 115t14 121v590h180v-1071h-170zM1066 1072h200v-169
q0 -63 -12 -103t-44.5 -65.5t-89.5 -40t-147 -25.5v81q59 4 97.5 11.5t60.5 22.5t31 40t10 65h-106v183zM670 -380h-213v217h213v-217z" />
    <glyph glyph-name=".notdef.013" unicode="&#x1eef;" horiz-adv-x="1329" 
d="M831 0v156l-4 4q-28 -47 -60.5 -82.5t-73 -59.5t-91.5 -36.5t-115 -12.5q-59 0 -120.5 16t-112 54t-83 102t-32.5 160v770h180v-711q0 -66 16 -111t44 -72.5t65.5 -39.5t81.5 -12q85 0 142 34t91 86t48 115t14 121v590h180v-1071h-170zM1066 1072h200v-169
q0 -63 -12 -103t-44.5 -65.5t-89.5 -40t-147 -25.5v81q59 4 97.5 11.5t60.5 22.5t31 40t10 65h-106v183zM931 1479q-5 -46 -21.5 -87t-42.5 -71.5t-61.5 -48t-79.5 -17.5q-28 0 -53.5 6.5t-67.5 20.5l-53 18q-27 9 -46 15t-33.5 9.5t-25.5 5t-20 1.5q-41 0 -62.5 -25
t-33.5 -65h-98q6 45 20.5 85t40 70t63 47t89.5 17q40 0 73.5 -9t65.5 -21l45 -19q29 -12 56.5 -19.5t39.5 -7.5q31 0 49.5 9.5t29.5 23.5t16 30.5t8 31.5h102z" />
    <glyph glyph-name=".notdef.014" unicode="&#x1eed;" horiz-adv-x="1329" 
d="M1001 0v1071h-180v-590q0 -58 -14 -121t-48 -115t-91 -86t-142 -34q-44 0 -81.5 12t-65.5 39.5t-44 72.5t-16 111v711h-180v-770q0 -96 32.5 -160t83 -102t112 -54t120.5 -16q64 0 115 12.5t91.5 36.5t73 59.5t60.5 82.5l4 -4v-156h170zM1066 889h106q-1 -40 -10 -65
t-31 -40t-60.5 -22.5t-97.5 -11.5v-81q90 11 147 25.5t89.5 40t44.5 65.5t12 103v169h-200v-183zM629 1214h-117q-1 62 15.5 108t75 87t58.5 93q0 49 -27 70.5t-62 21.5q-55 0 -76.5 -31t-21.5 -76l-131 -2q0 111 72 168q61 49 149 49q78 0 138 -30q98 -52 98 -166
q0 -54 -25.5 -90.5t-86 -79.5t-59.5 -122z" />
    <glyph glyph-name=".notdef.016" unicode="&#x1eeb;" horiz-adv-x="1329" 
d="M831 0v156l-4 4q-28 -47 -60.5 -82.5t-73 -59.5t-91.5 -36.5t-115 -12.5q-59 0 -120.5 16t-112 54t-83 102t-32.5 160v770h180v-711q0 -66 16 -111t44 -72.5t65.5 -39.5t81.5 -12q85 0 142 34t91 86t48 115t14 121v590h180v-1071h-170zM1066 1072h200v-169
q0 -63 -12 -103t-44.5 -65.5t-89.5 -40t-147 -25.5v81q59 4 97.5 11.5t60.5 22.5t31 40t10 65h-106v183zM293 1503h221l183 -289h-138z" />
    <glyph glyph-name=".notdef.015" unicode="&#x1ee9;" horiz-adv-x="1329" 
d="M831 0v156l-4 4q-28 -47 -60.5 -82.5t-73 -59.5t-91.5 -36.5t-115 -12.5q-59 0 -120.5 16t-112 54t-83 102t-32.5 160v770h180v-711q0 -66 16 -111t44 -72.5t65.5 -39.5t81.5 -12q85 0 142 34t91 86t48 115t14 121v590h180v-1071h-170zM1066 1072h200v-169
q0 -63 -12 -103t-44.5 -65.5t-89.5 -40t-147 -25.5v81q59 4 97.5 11.5t60.5 22.5t31 40t10 65h-106v183zM579 1214h-137l183 289h221z" />
    <glyph glyph-name=".notdef.075" unicode="&#x1eda;" horiz-adv-x="1666" 
d="M1309 735q0 130 -35 239.5t-101 189t-161 124.5t-215 45t-215 -45t-161 -124.5t-101 -189t-35 -239.5t35 -239.5t101 -189t161 -124.5t215 -45t215 45t161 124.5t101 189t35 239.5zM1513 735q0 -79 -15 -167.5t-48.5 -174.5t-88.5 -164t-134.5 -137.5t-186 -95
t-243.5 -35.5t-243.5 35.5t-186.5 95t-134.5 137.5t-88.5 164t-49 174.5t-15 167.5t15 167.5t49 174.5t88.5 164t134.5 138t186.5 95t243.5 35t243.5 -35t186 -95t134.5 -138t88.5 -164t48.5 -174.5t15 -167.5zM1387 1471h200v-169q0 -63 -12 -103t-44.5 -65.5t-89.5 -40
t-147 -25.5v81q59 4 97.5 11.5t60.5 22.5t31 40t10 65h-106v183zM794 1614h-137l182 289h221z" />
    <glyph glyph-name=".notdef.009" unicode="&#x1edb;" horiz-adv-x="1289" 
d="M72 537q0 69 13 137.5t40 131.5t67.5 117t95.5 94t125 62.5t156 22.5q85 0 155.5 -22.5t125.5 -62.5t96 -94t68 -117t40 -131.5t13 -137.5t-13 -138t-40 -132t-68 -117t-96 -94t-125.5 -62.5t-155.5 -22.5t-155.5 22.5t-125.5 62.5t-95.5 94t-67.5 117t-40 132t-13 138z
M258 537q0 -36 5 -80.5t18 -90t35.5 -88.5t57 -76.5t82.5 -54t113 -20.5q64 0 112.5 20.5t83 54t57 76.5t36 88.5t18.5 90t5 80.5t-5 80t-18.5 89.5t-36 88.5t-57 76.5t-83 54t-112.5 20.5t-112.5 -20.5t-83 -54t-57 -76.5t-35.5 -88.5t-18 -89.5t-5 -80zM1009 1072h200
v-169q0 -63 -12 -103t-44.5 -65.5t-89.5 -40t-147 -25.5v81q59 4 97.5 11.5t60.5 22.5t31 40t10 65h-106v183zM566 1214h-137l183 289h221z" />
    <glyph glyph-name=".notdef.076" unicode="&#x1edc;" horiz-adv-x="1666" 
d="M1309 735q0 130 -35 239.5t-101 189t-161 124.5t-215 45t-215 -45t-161 -124.5t-101 -189t-35 -239.5t35 -239.5t101 -189t161 -124.5t215 -45t215 45t161 124.5t101 189t35 239.5zM1513 735q0 -79 -15 -167.5t-48.5 -174.5t-88.5 -164t-134.5 -137.5t-186 -95
t-243.5 -35.5t-243.5 35.5t-186.5 95t-134.5 137.5t-88.5 164t-49 174.5t-15 167.5t15 167.5t49 174.5t88.5 164t134.5 138t186.5 95t243.5 35t243.5 -35t186 -95t134.5 -138t88.5 -164t48.5 -174.5t15 -167.5zM1387 1471h200v-169q0 -63 -12 -103t-44.5 -65.5t-89.5 -40
t-147 -25.5v81q59 4 97.5 11.5t60.5 22.5t31 40t10 65h-106v183zM528 1903h222l182 -289h-137z" />
    <glyph glyph-name=".notdef.010" unicode="&#x1edd;" horiz-adv-x="1289" 
d="M72 537q0 69 13 137.5t40 131.5t67.5 117t95.5 94t125 62.5t156 22.5q85 0 155.5 -22.5t125.5 -62.5t96 -94t68 -117t40 -131.5t13 -137.5t-13 -138t-40 -132t-68 -117t-96 -94t-125.5 -62.5t-155.5 -22.5t-155.5 22.5t-125.5 62.5t-95.5 94t-67.5 117t-40 132t-13 138z
M258 537q0 -36 5 -80.5t18 -90t35.5 -88.5t57 -76.5t82.5 -54t113 -20.5q64 0 112.5 20.5t83 54t57 76.5t36 88.5t18.5 90t5 80.5t-5 80t-18.5 89.5t-36 88.5t-57 76.5t-83 54t-112.5 20.5t-112.5 -20.5t-83 -54t-57 -76.5t-35.5 -88.5t-18 -89.5t-5 -80zM1009 1072h200
v-169q0 -63 -12 -103t-44.5 -65.5t-89.5 -40t-147 -25.5v81q59 4 97.5 11.5t60.5 22.5t31 40t10 65h-106v183zM296 1503h221l183 -289h-138z" />
    <glyph glyph-name=".notdef.074" unicode="&#x1ede;" horiz-adv-x="1666" 
d="M1309 735q0 -130 -35 -239.5t-101 -189t-161 -124.5t-215 -45t-215 45t-161 124.5t-101 189t-35 239.5t35 239.5t101 189t161 124.5t215 45t215 -45t161 -124.5t101 -189t35 -239.5zM1513 735q0 79 -15 167.5t-48.5 174.5t-88.5 164t-134.5 138t-186 95t-243.5 35
t-243.5 -35t-186.5 -95t-134.5 -138t-88.5 -164t-49 -174.5t-15 -167.5t15 -167.5t49 -174.5t88.5 -164t134.5 -137.5t186.5 -95t243.5 -35.5t243.5 35.5t186 95t134.5 137.5t88.5 164t48.5 174.5t15 167.5zM1387 1288h106q-1 -40 -10 -65t-31 -40t-60.5 -22.5t-97.5 -11.5
v-81q90 11 147 25.5t89.5 40t44.5 65.5t12 103v169h-200v-183zM850 1612h-117q-1 62 15.5 108t75 87t58.5 93q0 49 -27 70.5t-62 21.5q-55 0 -76.5 -31t-21.5 -76l-131 -2q0 111 72 168q61 49 149 49q78 0 138 -30q98 -52 98 -166q0 -54 -25.5 -90.5t-86 -79.5t-59.5 -122z
" />
    <glyph glyph-name=".notdef.008" unicode="&#x1edf;" horiz-adv-x="1289" 
d="M72 537q0 -69 13 -138t40 -132t67.5 -117t95.5 -94t125.5 -62.5t155.5 -22.5t155.5 22.5t125.5 62.5t96 94t68 117t40 132t13 138t-13 137.5t-40 131.5t-68 117t-96 94t-125.5 62.5t-155.5 22.5q-86 0 -156 -22.5t-125 -62.5t-95.5 -94t-67.5 -117t-40 -131.5t-13 -137.5
zM258 537q0 36 5 80t18 89.5t35.5 88.5t57 76.5t83 54t112.5 20.5t112.5 -20.5t83 -54t57 -76.5t36 -88.5t18.5 -89.5t5 -80t-5 -80.5t-18.5 -90t-36 -88.5t-57 -76.5t-83 -54t-112.5 -20.5q-65 0 -113 20.5t-82.5 54t-57 76.5t-35.5 88.5t-18 90t-5 80.5zM1009 889h106
q-1 -40 -10 -65t-31 -40t-60.5 -22.5t-97.5 -11.5v-81q90 11 147 25.5t89.5 40t44.5 65.5t12 103v169h-200v-183zM629 1214h-117q-1 62 15.5 108t75 87t58.5 93q0 49 -27 70.5t-62 21.5q-55 0 -76.5 -31t-21.5 -76l-131 -2q0 111 72 168q61 49 149 49q78 0 138 -30
q98 -52 98 -166q0 -54 -25.5 -90.5t-86 -79.5t-59.5 -122z" />
    <glyph glyph-name=".notdef.073" unicode="&#x1ee0;" horiz-adv-x="1666" 
d="M1309 735q0 130 -35 239.5t-101 189t-161 124.5t-215 45t-215 -45t-161 -124.5t-101 -189t-35 -239.5t35 -239.5t101 -189t161 -124.5t215 -45t215 45t161 124.5t101 189t35 239.5zM1513 735q0 -79 -15 -167.5t-48.5 -174.5t-88.5 -164t-134.5 -137.5t-186 -95
t-243.5 -35.5t-243.5 35.5t-186.5 95t-134.5 137.5t-88.5 164t-49 174.5t-15 167.5t15 167.5t49 174.5t88.5 164t134.5 138t186.5 95t243.5 35t243.5 -35t186 -95t134.5 -138t88.5 -164t48.5 -174.5t15 -167.5zM1387 1471h200v-169q0 -63 -12 -103t-44.5 -65.5t-89.5 -40
t-147 -25.5v81q59 4 97.5 11.5t60.5 22.5t31 40t10 65h-106v183zM1144 1878q-5 -46 -21.5 -86.5t-42.5 -71t-61.5 -48t-79.5 -17.5q-28 0 -53.5 6t-67.5 20l-53 19q-27 9 -46.5 15t-33.5 9.5t-25 5t-20 1.5q-41 0 -62.5 -25.5t-33.5 -65.5h-98q6 45 20.5 85t40 70t63 47.5
t89.5 17.5q40 0 73.5 -9.5t65.5 -21.5l45 -19q29 -12 56.5 -19t39.5 -7q31 0 49.5 9t29 23t15.5 30.5t8 31.5h103z" />
    <glyph glyph-name=".notdef.007" unicode="&#x1ee1;" horiz-adv-x="1289" 
d="M72 537q0 69 13 137.5t40 131.5t67.5 117t95.5 94t125 62.5t156 22.5q85 0 155.5 -22.5t125.5 -62.5t96 -94t68 -117t40 -131.5t13 -137.5t-13 -138t-40 -132t-68 -117t-96 -94t-125.5 -62.5t-155.5 -22.5t-155.5 22.5t-125.5 62.5t-95.5 94t-67.5 117t-40 132t-13 138z
M258 537q0 -36 5 -80.5t18 -90t35.5 -88.5t57 -76.5t82.5 -54t113 -20.5q64 0 112.5 20.5t83 54t57 76.5t36 88.5t18.5 90t5 80.5t-5 80t-18.5 89.5t-36 88.5t-57 76.5t-83 54t-112.5 20.5t-112.5 -20.5t-83 -54t-57 -76.5t-35.5 -88.5t-18 -89.5t-5 -80zM1009 1072h200
v-169q0 -63 -12 -103t-44.5 -65.5t-89.5 -40t-147 -25.5v81q59 4 97.5 11.5t60.5 22.5t31 40t10 65h-106v183zM920 1479q-6 -46 -22 -87t-42.5 -71.5t-62 -48t-78.5 -17.5q-28 0 -54 6.5t-67 20.5l-53 18q-54 19 -80.5 25t-44.5 6q-42 0 -63 -25t-34 -65h-98q6 45 21 85
t40.5 70t63 47t88.5 17q40 0 73.5 -9t65.5 -21l45 -19q29 -12 56.5 -19.5t40.5 -7.5q31 0 49.5 9.5t29 23.5t15.5 30.5t8 31.5h103z" />
    <glyph glyph-name=".notdef.072" unicode="&#x1ee2;" horiz-adv-x="1666" 
d="M1309 735q0 130 -35 239.5t-101 189t-161 124.5t-215 45t-215 -45t-161 -124.5t-101 -189t-35 -239.5t35 -239.5t101 -189t161 -124.5t215 -45t215 45t161 124.5t101 189t35 239.5zM1513 735q0 -79 -15 -167.5t-48.5 -174.5t-88.5 -164t-134.5 -137.5t-186 -95
t-243.5 -35.5t-243.5 35.5t-186.5 95t-134.5 137.5t-88.5 164t-49 174.5t-15 167.5t15 167.5t49 174.5t88.5 164t134.5 138t186.5 95t243.5 35t243.5 -35t186 -95t134.5 -138t88.5 -164t48.5 -174.5t15 -167.5zM1387 1471h200v-169q0 -63 -12 -103t-44.5 -65.5t-89.5 -40
t-147 -25.5v81q59 4 97.5 11.5t60.5 22.5t31 40t10 65h-106v183zM910 -380h-213v217h213v-217z" />
    <glyph glyph-name=".notdef.006" unicode="&#x1ee3;" horiz-adv-x="1289" 
d="M72 537q0 69 13 137.5t40 131.5t67.5 117t95.5 94t125 62.5t156 22.5q85 0 155.5 -22.5t125.5 -62.5t96 -94t68 -117t40 -131.5t13 -137.5t-13 -138t-40 -132t-68 -117t-96 -94t-125.5 -62.5t-155.5 -22.5t-155.5 22.5t-125.5 62.5t-95.5 94t-67.5 117t-40 132t-13 138z
M258 537q0 -36 5 -80.5t18 -90t35.5 -88.5t57 -76.5t82.5 -54t113 -20.5q64 0 112.5 20.5t83 54t57 76.5t36 88.5t18.5 90t5 80.5t-5 80t-18.5 89.5t-36 88.5t-57 76.5t-83 54t-112.5 20.5t-112.5 -20.5t-83 -54t-57 -76.5t-35.5 -88.5t-18 -89.5t-5 -80zM1009 1072h200
v-169q0 -63 -12 -103t-44.5 -65.5t-89.5 -40t-147 -25.5v81q59 4 97.5 11.5t60.5 22.5t31 40t10 65h-106v183zM678 -380h-213v217h213v-217z" />
  </font>
</defs>
</svg>
